<?xml version="1.0" encoding="UTF-8"?><svg xmlns="http://www.w3.org/2000/svg" viewBox="0 0 347.08 537.59"><defs><style>.d{font-size:11.73px;}.d,.e,.f{font-family:Poppins-Regular, Poppins;}.e{font-size:12px;}.f{font-size:11.44px;}</style></defs><g id="a"/><g id="b"><g id="c"><text class="d" transform="translate(.64 245.73) scale(1.02 1)"><tspan x="0" y="0">8</tspan></text><text class="d" transform="translate(2.75 210.26) scale(1.02 1)"><tspan x="0" y="0">7</tspan></text><text class="d" transform="translate(9.27 164.93) scale(1.02 1)"><tspan x="0" y="0">6</tspan></text><text class="d" transform="translate(22.48 121.37) scale(1.02 1)"><tspan x="0" y="0">5</tspan></text><text class="d" transform="translate(39.07 86.94) scale(1.02 1)"><tspan x="0" y="0">4</tspan></text><text class="d" transform="translate(64.77 54.95) scale(1.02 1)"><tspan x="0" y="0">3</tspan></text><text class="d" transform="translate(99.04 27.75) scale(1.02 1)"><tspan x="0" y="0">2</tspan></text><text class="d" transform="translate(144.11 10.45) scale(1.02 1)"><tspan x="0" y="0">1</tspan></text><text class="d" transform="translate(339.51 245.24) scale(1.02 1)"><tspan x="0" y="0">8</tspan></text><text class="d" transform="translate(337.4 209.76) scale(1.02 1)"><tspan x="0" y="0">7</tspan></text><text class="d" transform="translate(330.88 164.44) scale(1.02 1)"><tspan x="0" y="0">6</tspan></text><text class="d" transform="translate(317.67 120.88) scale(1.02 1)"><tspan x="0" y="0">5</tspan></text><text class="d" transform="translate(301.08 86.44) scale(1.02 1)"><tspan x="0" y="0">4</tspan></text><text class="d" transform="translate(275.38 54.45) scale(1.02 1)"><tspan x="0" y="0">3</tspan></text><text class="d" transform="translate(241.11 27.25) scale(1.02 1)"><tspan x="0" y="0">2</tspan></text><text class="d" transform="translate(196.03 9.96) scale(1.02 1)"><tspan x="0" y="0">1</tspan></text><text class="f" transform="translate(0 301.63) scale(1.05 1)"><tspan x="0" y="0">8</tspan></text><text class="f" transform="translate(4.41 350.91) scale(1.05 1)"><tspan x="0" y="0">7</tspan></text><text class="f" transform="translate(13.23 395.95) scale(1.05 1)"><tspan x="0" y="0">6</tspan></text><text class="f" transform="translate(26.33 434.2) scale(1.05 1)"><tspan x="0" y="0">5</tspan></text><text class="f" transform="translate(43.29 467.88) scale(1.05 1)"><tspan x="0" y="0">4</tspan></text><text class="f" transform="translate(74.79 497.3) scale(1.05 1)"><tspan x="0" y="0">3</tspan></text><text class="f" transform="translate(108.34 525.68) scale(1.05 1)"><tspan x="0" y="0">2</tspan></text><text class="f" transform="translate(158.22 531.05) scale(1.05 1)"><tspan x="0" y="0">1</tspan></text><text class="f" transform="translate(338.87 302.11) scale(1.05 1)"><tspan x="0" y="0">8</tspan></text><text class="f" transform="translate(336.76 336.7) scale(1.05 1)"><tspan x="0" y="0">7</tspan></text><text class="f" transform="translate(326.59 393.46) scale(1.05 1)"><tspan x="0" y="0">6</tspan></text><text class="f" transform="translate(307.28 434.19) scale(1.05 1)"><tspan x="0" y="0">5</tspan></text><text class="f" transform="translate(284.87 467.88) scale(1.05 1)"><tspan x="0" y="0">4</tspan></text><text class="f" transform="translate(265.98 498.26) scale(1.05 1)"><tspan x="0" y="0">3</tspan></text><text class="f" transform="translate(231.96 522.07) scale(1.05 1)"><tspan x="0" y="0">2</tspan></text><text class="f" transform="translate(186.91 531.05) scale(1.05 1)"><tspan x="0" y="0">1</tspan></text><text class="e" transform="translate(64.77 214.21)"><tspan x="0" y="0">5</tspan></text><text class="e" transform="translate(70.36 180.31)"><tspan x="0" y="0">4</tspan></text><text class="e" transform="translate(88.46 146.51)"><tspan x="0" y="0">3</tspan></text><text class="e" transform="translate(112.66 119.35)"><tspan x="0" y="0">2</tspan></text><text class="e" transform="translate(154.51 102.97)"><tspan x="0" y="0">1</tspan></text><text class="e" transform="translate(268.26 213.07)"><tspan x="0" y="0">5</tspan></text><text class="e" transform="translate(264.39 178.31)"><tspan x="0" y="0">4</tspan></text><text class="e" transform="translate(249.79 145.25)"><tspan x="0" y="0">3</tspan></text><text class="e" transform="translate(224.65 120.9)"><tspan x="0" y="0">2</tspan></text><text class="e" transform="translate(183.98 102.97)"><tspan x="0" y="0">1</tspan></text><text class="e" transform="translate(70.47 340.68)"><tspan x="0" y="0">5</tspan></text><text class="e" transform="translate(80.68 382.82)"><tspan x="0" y="0">4</tspan></text><text class="e" transform="translate(98.55 417.26)"><tspan x="0" y="0">3</tspan></text><text class="e" transform="translate(126.89 442.42)"><tspan x="0" y="0">2</tspan></text><text class="e" transform="translate(161.17 448.27)"><tspan x="0" y="0">1</tspan></text><text class="e" transform="translate(266.17 335.49)"><tspan x="0" y="0">5</tspan></text><text class="e" transform="translate(258.53 382.82)"><tspan x="0" y="0">4</tspan></text><text class="e" transform="translate(240.07 417.24)"><tspan x="0" y="0">3</tspan></text><text class="e" transform="translate(213.33 442.42)"><tspan x="0" y="0">2</tspan></text><text class="e" transform="translate(183.94 449.53)"><tspan x="0" y="0">1</tspan></text></g></g></svg>