<svg width="38" height="35" viewBox="0 0 38 35" fill="none" xmlns="http://www.w3.org/2000/svg">
<path d="M2.63409 21.4848C-5.36043 6.18885 8.30705 1.73662 9.9653 1.44573C18.0645 -0.396578 23.0568 1.16291 28.3719 2.04366C31.4353 2.67393 35.2754 5.88989 36.6893 9.07353C37.3613 10.4472 36.6893 17.8568 36.6893 17.8568C36.6893 17.8568 39.9185 29.1126 29.1661 33.5002C20.517 35.4153 15.1582 32.369 11.3268 32.2478C3.37594 30.1308 3.9345 25.2503 2.59918 21.4848" fill="#B5CEED"/>
<path d="M12.4419 4.5169C12.4419 4.37953 14.554 4.5169 17.8792 5.17949C18.8708 5.33631 19.8161 5.68307 20.6546 6.19759C21.3665 7.06687 21.78 8.11405 21.8415 9.20346C22.1119 11.5682 21.5288 13.9492 20.1833 15.9747C19.3469 16.9631 18.2582 17.7434 17.0152 18.2453C15.9476 18.7357 14.8419 19.1517 13.7074 19.4897C11.8167 20.057 9.89009 20.5158 7.93841 20.8633C4.61318 21.4532 2.51854 21.5744 2.50109 21.4289C2.48363 21.2835 4.50844 20.8633 7.73767 20.0795C9.35228 19.6836 11.2287 19.1907 13.3321 18.5039C14.4019 18.1529 15.4456 17.7372 16.4566 17.2595C17.5051 16.8256 18.4289 16.1696 19.1534 15.3445C20.3429 13.5302 20.8892 11.4167 20.7157 9.30044C20.6809 8.44141 20.4041 7.60573 19.9127 6.87635C19.2152 6.46314 18.4484 6.16004 17.6435 5.97943C14.4492 5.11484 12.407 4.71082 12.407 4.54114" fill="#5775B8"/>
<path d="M36.0763 16.9192C36.0763 17 35.7184 17.1374 35.0551 17.3233L33.8507 17.6303L32.3146 18.1717C29.3899 19.3014 26.6905 20.8774 24.3289 22.834C18.7606 27.456 15.7234 32.4819 15.4179 32.3041C15.1125 32.1264 17.7308 26.7933 23.5172 21.9775C25.9778 19.9175 28.8805 18.3618 32.0354 17.4121L33.6849 17.0162L34.9678 16.8869C35.6748 16.8384 36.0675 16.8465 36.0763 16.8869" fill="#5775B8"/>
<path d="M19.8797 15.3839C19.9844 15.2708 21.0055 15.9011 22.0179 17.4283C22.7027 18.444 23.1154 19.5965 23.2217 20.7898C23.328 21.983 23.1247 23.1826 22.6289 24.2884C22.3466 24.9124 21.9864 25.5036 21.5554 26.0499L21.2499 26.4378L21.1015 26.6236C21.1015 26.6236 21.1015 26.6236 21.1015 26.664C21.0046 26.9086 20.9288 27.1599 20.8746 27.4155C20.6277 28.2823 20.7237 29.2022 21.1452 30.0092C22.0179 31.294 23.4231 31.3183 23.3184 31.5445C23.3184 31.6092 23.0042 31.6657 22.4456 31.593C22.042 31.5372 21.6545 31.4078 21.3054 31.2122C20.9563 31.0166 20.6526 30.7588 20.4121 30.4537C19.7347 29.5012 19.493 28.3388 19.74 27.2216C19.7935 26.9087 19.8752 26.6006 19.9844 26.3004C20.018 26.1681 20.087 26.0459 20.1852 25.9449L20.3073 25.7671L20.5779 25.4116C20.9437 24.9185 21.2565 24.3935 21.5117 23.844C21.9322 22.877 22.127 21.8386 22.0833 20.7969C22.0397 19.7553 21.7587 18.7339 21.2586 17.7999C20.5168 16.297 19.7662 15.489 19.8884 15.3758" fill="#5775B8"/>
<path d="M20.2229 6.43956C19.9 6.26987 20.5371 5.09822 21.9684 4.45988C23.3998 3.82153 24.6565 3.92659 24.6914 4.21748C24.7264 4.50837 23.6878 4.92853 22.5183 5.46991C21.3488 6.01129 20.5022 6.59308 20.2316 6.43956" fill="#5775B8"/>
</svg>