<svg width="12" height="13" viewBox="0 0 12 13" fill="none" xmlns="http://www.w3.org/2000/svg">
<path d="M11.25 5.70768H6.75V0.957682C6.75 0.747719 6.67098 0.546356 6.53033 0.39789C6.38968 0.249423 6.19891 0.166016 6 0.166016C5.80109 0.166016 5.61032 0.249423 5.46967 0.39789C5.32902 0.546356 5.25 0.747719 5.25 0.957682V5.70768H0.75C0.551088 5.70768 0.360322 5.79109 0.21967 5.93956C0.0790178 6.08802 0 6.28939 0 6.49935C0 6.70931 0.0790178 6.91068 0.21967 7.05914C0.360322 7.20761 0.551088 7.29102 0.75 7.29102H5.25V12.041C5.25 12.251 5.32902 12.4523 5.46967 12.6008C5.61032 12.7493 5.80109 12.8327 6 12.8327C6.19891 12.8327 6.38968 12.7493 6.53033 12.6008C6.67098 12.4523 6.75 12.251 6.75 12.041V7.29102H11.25C11.4489 7.29102 11.6397 7.20761 11.7803 7.05914C11.921 6.91068 12 6.70931 12 6.49935C12 6.28939 11.921 6.08802 11.7803 5.93956C11.6397 5.79109 11.4489 5.70768 11.25 5.70768Z" fill="#24272E"/>
</svg>
