<svg width="17" height="16" viewBox="0 0 17 16" fill="none" xmlns="http://www.w3.org/2000/svg">
<g clip-path="url(#clip0_3357_15124)">
<path d="M15.592 13.5524L11.6351 1.10353C11.3896 0.331813 10.5621 -0.0965938 9.79046 0.148594L8.36055 0.603031C8.26109 0.634688 8.16677 0.676531 8.0784 0.726937C7.82299 0.292469 7.3509 0 6.81152 0H5.31152C4.92546 0 4.57393 0.149937 4.31152 0.394375C4.04909 0.149937 3.69759 0 3.31152 0H1.81152C1.00165 0 0.342773 0.658875 0.342773 1.46875V14.5312C0.342773 15.3411 1.00165 16 1.81152 16H3.31152C3.69759 16 4.04912 15.8501 4.31152 15.6056C4.57393 15.85 4.92546 16 5.31152 16H6.81152C7.6214 16 8.28027 15.3411 8.28027 14.5312V5.19816L11.3629 14.8965C11.5615 15.5208 12.1411 15.9205 12.7639 15.9205C12.9109 15.9205 13.0602 15.8982 13.2076 15.8514L14.6374 15.397C15.0112 15.278 15.3164 15.0207 15.4967 14.6724C15.6771 14.3239 15.7109 13.9261 15.592 13.5524ZM13.1839 9.07119L10.7418 9.84744L9.20824 5.02278L11.6503 4.24653L13.1839 9.07119ZM13.4679 9.96463L13.7897 10.9772L11.3476 11.7535L11.0258 10.7409L13.4679 9.96463ZM4.78027 4.46875H7.34277V9.53125H4.78027V4.46875ZM3.84277 9.53125H1.28027V4.46875H3.84277V9.53125ZM1.28027 10.4688H3.84277V11.5312H1.28027V10.4688ZM4.78027 10.4688H7.34277V11.5312H4.78027V10.4688ZM5.31152 0.9375H6.81152C7.10446 0.9375 7.34277 1.17581 7.34277 1.46875V3.53125H4.78027V1.46875C4.78027 1.17581 5.01859 0.9375 5.31152 0.9375ZM1.81152 0.9375H3.31152C3.60446 0.9375 3.84277 1.17581 3.84277 1.46875V3.53125H1.28027V1.46875C1.28027 1.17581 1.51859 0.9375 1.81152 0.9375ZM3.31152 15.0625H1.81152C1.51859 15.0625 1.28027 14.8242 1.28027 14.5312V12.4688H3.84277V14.5312C3.84277 14.8242 3.60446 15.0625 3.31152 15.0625ZM6.81152 15.0625H5.31152C5.01859 15.0625 4.78027 14.8242 4.78027 14.5312V12.4688H7.34277V14.5312C7.34277 14.8242 7.10446 15.0625 6.81152 15.0625ZM8.28027 1.92753C8.30909 1.72644 8.45024 1.55831 8.64474 1.49641L10.0744 1.04203C10.3536 0.953344 10.6529 1.10844 10.7417 1.38759L11.3664 3.35306L8.9243 4.12931L8.29959 2.16391C8.29034 2.13488 8.28027 1.92753 8.28027 1.92753ZM14.6641 14.2414C14.5989 14.3674 14.4884 14.4606 14.3532 14.5036L12.9236 14.958C12.6446 15.0467 12.3451 14.8916 12.2563 14.6124L11.6316 12.6469L14.0737 11.8707L14.6985 13.8366C14.7416 13.9717 14.7293 14.1154 14.6641 14.2414Z" fill="#4E5056"/>
</g>
<defs>
<clipPath id="clip0_3357_15124">
<rect width="16" height="16" fill="white" transform="translate(0.00195312)"/>
</clipPath>
</defs>
</svg>
