<svg width="12" height="13" viewBox="0 0 12 13" fill="none" xmlns="http://www.w3.org/2000/svg">
<path d="M6.9398 6.50166L11.1398 2.12601C11.2653 1.99501 11.3359 1.81735 11.3359 1.63209C11.3359 1.44684 11.2653 1.26917 11.1398 1.13818C11.0143 1.00719 10.844 0.933594 10.6665 0.933594C10.4889 0.933594 10.3187 1.00719 10.1931 1.13818L5.9998 5.52079L1.80646 1.13818C1.68093 1.00719 1.51066 0.933594 1.33313 0.933594C1.1556 0.933594 0.985332 1.00719 0.859797 1.13818C0.734261 1.26917 0.663736 1.44684 0.663736 1.63209C0.663736 1.81735 0.734261 1.99501 0.859797 2.12601L5.0598 6.50166L0.859797 10.8773C0.797311 10.942 0.747715 11.0189 0.713869 11.1037C0.680023 11.1885 0.662598 11.2794 0.662598 11.3712C0.662598 11.4631 0.680023 11.554 0.713869 11.6388C0.747715 11.7235 0.797311 11.8005 0.859797 11.8651C0.921772 11.9303 0.995506 11.9821 1.07675 12.0174C1.15798 12.0527 1.24512 12.0709 1.33313 12.0709C1.42114 12.0709 1.50827 12.0527 1.58951 12.0174C1.67075 11.9821 1.74449 11.9303 1.80646 11.8651L5.9998 7.48253L10.1931 11.8651C10.2551 11.9303 10.3288 11.9821 10.4101 12.0174C10.4913 12.0527 10.5785 12.0709 10.6665 12.0709C10.7545 12.0709 10.8416 12.0527 10.9228 12.0174C11.0041 11.9821 11.0778 11.9303 11.1398 11.8651C11.2023 11.8005 11.2519 11.7235 11.2857 11.6388C11.3196 11.554 11.337 11.4631 11.337 11.3712C11.337 11.2794 11.3196 11.1885 11.2857 11.1037C11.2519 11.0189 11.2023 10.942 11.1398 10.8773L6.9398 6.50166Z" fill="#24272E"/>
</svg>
