<svg width="15" height="18" viewBox="0 0 15 18" fill="none" xmlns="http://www.w3.org/2000/svg">
<path d="M10.5162 8.5619V16.0684C10.5162 16.3364 10.299 16.5536 10.031 16.5536H1.03794C0.769969 16.5536 0.552734 16.3364 0.552734 16.0684V3.70884C0.552734 3.44087 0.769969 3.22363 1.03794 3.22363H10.031C10.299 3.22363 10.5162 3.44087 10.5162 3.70884V8.5619Z" fill="white"/>
<path d="M3.15332 10.6631H7.9119V11.7721H3.15332V10.6631Z" fill="#275DF3"/>
<path d="M3.15332 13.3525H7.9119V14.4616H3.15332V13.3525Z" fill="#275DF3"/>
<path d="M3.15332 5.32129H7.9119V6.43034H3.15332V5.32129Z" fill="#275DF3"/>
<path d="M3.15332 8.00781H7.9119V9.11686H3.15332V8.00781Z" fill="#275DF3"/>
<path d="M10.0328 17.1099H1.03973C0.466424 17.1099 0 16.6435 0 16.0702V3.71063C0 3.13732 0.466424 2.6709 1.03973 2.6709H5.51266V3.77995H1.10905V16.0009H9.96344V9.60342H11.0725V16.0702C11.0725 16.6435 10.6061 17.1099 10.0328 17.1099Z" fill="#275DF3"/>
<path d="M10.1591 8.56316C12.2814 8.56316 14.0018 6.8456 14.0018 4.72689C14.0018 2.60818 12.2814 0.890625 10.1591 0.890625C8.03685 0.890625 6.31641 2.60818 6.31641 4.72689C6.31641 6.8456 8.03685 8.56316 10.1591 8.56316Z" fill="#275DF3"/>
<path d="M11.4477 5.996L9.90997 5.22303C9.72267 5.12887 9.60449 4.93717 9.60449 4.72756V2.06055H10.7135V4.38567L11.9458 5.00507L11.4477 5.996Z" fill="white"/>
</svg>
