<svg width="14" height="15" viewBox="0 0 14 15" fill="none" xmlns="http://www.w3.org/2000/svg">
<path d="M7.00008 13.3327C3.77842 13.3327 1.16675 10.721 1.16675 7.49935C1.16675 4.27769 3.77842 1.66602 7.00008 1.66602C10.2217 1.66602 12.8334 4.27769 12.8334 7.49935C12.8334 10.721 10.2217 13.3327 7.00008 13.3327ZM7.00008 12.166C9.57742 12.166 11.6667 10.0767 11.6667 7.49935C11.6667 4.92202 9.57742 2.83268 7.00008 2.83268C4.42275 2.83268 2.33341 4.92202 2.33341 7.49935C2.33341 10.0767 4.42275 12.166 7.00008 12.166ZM6.41675 4.58268H7.58342V5.74935H6.41675V4.58268ZM6.41675 6.91602H7.58342V10.416H6.41675V6.91602Z" fill="black"/>
</svg>
