<svg width="17" height="16" viewBox="0 0 17 16" fill="none" xmlns="http://www.w3.org/2000/svg">
<g clip-path="url(#clip0_3357_15102)">
<path d="M7.04802 0C3.16292 0 0.00195312 3.16097 0.00195312 7.04606C0.00195312 10.9314 3.16292 14.0921 7.04802 14.0921C10.9333 14.0921 14.0941 10.9314 14.0941 7.04606C14.0941 3.16097 10.9333 0 7.04802 0ZM7.04802 12.7913C3.88011 12.7913 1.30277 10.214 1.30277 7.04609C1.30277 3.87819 3.88011 1.30081 7.04802 1.30081C10.2159 1.30081 12.7933 3.87816 12.7933 7.04606C12.7933 10.214 10.2159 12.7913 7.04802 12.7913Z" fill="#4E5056"/>
<path d="M15.8109 14.8893L12.0819 11.1603C11.8278 10.9062 11.4163 10.9062 11.1622 11.1603C10.9082 11.4142 10.9082 11.8261 11.1622 12.08L14.8912 15.809C15.0183 15.936 15.1846 15.9995 15.3511 15.9995C15.5174 15.9995 15.6839 15.936 15.8109 15.809C16.065 15.5551 16.065 15.1432 15.8109 14.8893Z" fill="#4E5056"/>
</g>
<defs>
<clipPath id="clip0_3357_15102">
<rect width="16" height="16" fill="white" transform="translate(0.00195312)"/>
</clipPath>
</defs>
</svg>
