<svg width="16" height="5" viewBox="0 0 16 5" fill="none" xmlns="http://www.w3.org/2000/svg">
<path d="M2.375 4.28125C1.92745 4.28125 1.49822 4.09358 1.18176 3.75953C0.86529 3.42548 0.6875 2.97242 0.6875 2.5C0.6875 2.02758 0.86529 1.57451 1.18176 1.24047C1.49822 0.906417 1.92745 0.71875 2.375 0.71875C2.82255 0.71875 3.25178 0.906417 3.56824 1.24047C3.88471 1.57451 4.0625 2.02758 4.0625 2.5C4.0625 2.97242 3.88471 3.42548 3.56824 3.75953C3.25178 4.09358 2.82255 4.28125 2.375 4.28125ZM8 4.28125C7.55245 4.28125 7.12322 4.09358 6.80676 3.75953C6.49029 3.42548 6.3125 2.97242 6.3125 2.5C6.3125 2.02758 6.49029 1.57451 6.80676 1.24047C7.12322 0.906417 7.55245 0.71875 8 0.71875C8.44755 0.71875 8.87678 0.906417 9.19324 1.24047C9.50971 1.57451 9.6875 2.02758 9.6875 2.5C9.6875 2.97242 9.50971 3.42548 9.19324 3.75953C8.87678 4.09358 8.44755 4.28125 8 4.28125ZM13.625 4.28125C13.1774 4.28125 12.7482 4.09358 12.4318 3.75953C12.1153 3.42548 11.9375 2.97242 11.9375 2.5C11.9375 2.02758 12.1153 1.57451 12.4318 1.24047C12.7482 0.906417 13.1774 0.71875 13.625 0.71875C14.0726 0.71875 14.5018 0.906417 14.8182 1.24047C15.1347 1.57451 15.3125 2.02758 15.3125 2.5C15.3125 2.97242 15.1347 3.42548 14.8182 3.75953C14.5018 4.09358 14.0726 4.28125 13.625 4.28125Z" fill="black"/>
</svg>
