<svg width="17" height="16" viewBox="0 0 17 16" fill="none" xmlns="http://www.w3.org/2000/svg">
<g clip-path="url(#clip0_2952_5932)">
<path d="M7.04777 0C3.16268 0 0.00170898 3.16097 0.00170898 7.04606C0.00170898 10.9314 3.16268 14.0921 7.04777 14.0921C10.9331 14.0921 14.0938 10.9314 14.0938 7.04606C14.0938 3.16097 10.9331 0 7.04777 0ZM7.04777 12.7913C3.87987 12.7913 1.30252 10.214 1.30252 7.04609C1.30252 3.87819 3.87987 1.30081 7.04777 1.30081C10.2157 1.30081 12.793 3.87816 12.793 7.04606C12.793 10.214 10.2157 12.7913 7.04777 12.7913Z" fill="#275DF3"/>
<path d="M15.8112 14.8893L12.0822 11.1603C11.8281 10.9062 11.4166 10.9062 11.1625 11.1603C10.9084 11.4142 10.9084 11.8261 11.1625 12.08L14.8915 15.809C15.0185 15.936 15.1848 15.9995 15.3513 15.9995C15.5176 15.9995 15.6841 15.936 15.8112 15.809C16.0652 15.5551 16.0652 15.1432 15.8112 14.8893Z" fill="#275DF3"/>
</g>
<defs>
<clipPath id="clip0_2952_5932">
<rect width="16" height="16" fill="white" transform="translate(0.00170898)"/>
</clipPath>
</defs>
</svg>
