<svg width="15" height="14" viewBox="0 0 15 14" fill="none" xmlns="http://www.w3.org/2000/svg">
<g clip-path="url(#clip0_2952_3098)">
<path d="M12.2102 0.949341C12.1668 0.841114 12.092 0.748367 11.9954 0.683069C11.8988 0.617771 11.7849 0.582919 11.6683 0.583008H2.33496C2.21837 0.582919 2.10442 0.617771 2.00782 0.683069C1.91123 0.748367 1.83642 0.841114 1.79304 0.949341L0.626378 3.86601C0.59904 3.93509 0.584988 4.00871 0.584961 4.08301V12.833C0.584961 12.9877 0.646419 13.1361 0.755815 13.2455C0.865211 13.3549 1.01358 13.4163 1.16829 13.4163H12.835C12.9897 13.4163 13.138 13.3549 13.2474 13.2455C13.3568 13.1361 13.4183 12.9877 13.4183 12.833V4.08301C13.4183 4.00871 13.4042 3.93509 13.3769 3.86601L12.2102 0.949341ZM2.72988 1.74967H11.2734L11.9734 3.49967H2.02988L2.72988 1.74967ZM1.75163 12.2497V4.66634H12.2516V12.2497H1.75163Z" fill="#4E5056"/>
<path d="M5.83561 9.91699H3.50228C3.34757 9.91699 3.1992 9.97845 3.0898 10.0878C2.9804 10.1972 2.91895 10.3456 2.91895 10.5003C2.91895 10.655 2.9804 10.8034 3.0898 10.9128C3.1992 11.0222 3.34757 11.0837 3.50228 11.0837H5.83561C5.99032 11.0837 6.13869 11.0222 6.24809 10.9128C6.35749 10.8034 6.41895 10.655 6.41895 10.5003C6.41895 10.3456 6.35749 10.1972 6.24809 10.0878C6.13869 9.97845 5.99032 9.91699 5.83561 9.91699Z" fill="#4E5056"/>
</g>
<defs>
<clipPath id="clip0_2952_3098">
<rect width="14" height="14" fill="white" transform="translate(0.00195312)"/>
</clipPath>
</defs>
</svg>
