<svg width="16" height="16" viewBox="0 0 16 16" fill="none" xmlns="http://www.w3.org/2000/svg">
<path d="M15.5915 13.5524L11.6346 1.10353C11.3891 0.331813 10.5616 -0.0965938 9.78997 0.148594L8.36007 0.603031C8.2606 0.634688 8.16629 0.676531 8.07791 0.726937C7.8225 0.292469 7.35041 0 6.81104 0H5.31104C4.92497 0 4.57344 0.149937 4.31104 0.394375C4.0486 0.149937 3.6971 0 3.31104 0H1.81104C1.00116 0 0.342285 0.658875 0.342285 1.46875V14.5312C0.342285 15.3411 1.00116 16 1.81104 16H3.31104C3.6971 16 4.04863 15.8501 4.31104 15.6056C4.57344 15.85 4.92497 16 5.31104 16H6.81104C7.62091 16 8.27979 15.3411 8.27979 14.5312V5.19816L11.3624 14.8965C11.561 15.5208 12.1406 15.9205 12.7634 15.9205C12.9104 15.9205 13.0598 15.8982 13.2071 15.8514L14.6369 15.397C15.0107 15.278 15.3159 15.0207 15.4962 14.6724C15.6766 14.3239 15.7104 13.9261 15.5915 13.5524ZM13.1834 9.07119L10.7413 9.84744L9.20775 5.02278L11.6498 4.24653L13.1834 9.07119ZM13.4674 9.96463L13.7892 10.9772L11.3471 11.7535L11.0253 10.7409L13.4674 9.96463ZM4.77979 4.46875H7.34229V9.53125H4.77979V4.46875ZM3.84229 9.53125H1.27979V4.46875H3.84229V9.53125ZM1.27979 10.4688H3.84229V11.5312H1.27979V10.4688ZM4.77979 10.4688H7.34229V11.5312H4.77979V10.4688ZM5.31104 0.9375H6.81104C7.10397 0.9375 7.34229 1.17581 7.34229 1.46875V3.53125H4.77979V1.46875C4.77979 1.17581 5.0181 0.9375 5.31104 0.9375ZM1.81104 0.9375H3.31104C3.60397 0.9375 3.84229 1.17581 3.84229 1.46875V3.53125H1.27979V1.46875C1.27979 1.17581 1.5181 0.9375 1.81104 0.9375ZM3.31104 15.0625H1.81104C1.5181 15.0625 1.27979 14.8242 1.27979 14.5312V12.4688H3.84229V14.5312C3.84229 14.8242 3.60397 15.0625 3.31104 15.0625ZM6.81104 15.0625H5.31104C5.0181 15.0625 4.77979 14.8242 4.77979 14.5312V12.4688H7.34229V14.5312C7.34229 14.8242 7.10397 15.0625 6.81104 15.0625ZM8.27979 1.92753C8.3086 1.72644 8.44975 1.55831 8.64425 1.49641L10.0739 1.04203C10.3531 0.953344 10.6524 1.10844 10.7412 1.38759L11.3659 3.35306L8.92382 4.12931L8.2991 2.16391C8.28985 2.13488 8.27979 1.92753 8.27979 1.92753ZM14.6636 14.2414C14.5984 14.3674 14.4879 14.4606 14.3528 14.5036L12.9231 14.958C12.6441 15.0467 12.3446 14.8916 12.2558 14.6124L11.6311 12.6469L14.0732 11.8707L14.698 13.8366C14.7411 13.9717 14.7288 14.1154 14.6636 14.2414Z" fill="#275DF3"/>
</svg>
