<svg width="12" height="13" viewBox="0 0 12 13" fill="none" xmlns="http://www.w3.org/2000/svg">
<path d="M4.83464 0.75H7.16797C8.40565 0.75 9.59263 1.24167 10.4678 2.11683C11.343 2.992 11.8346 4.17899 11.8346 5.41667C11.8346 6.65434 11.343 7.84133 10.4678 8.7165C9.59263 9.59167 8.40565 10.0833 7.16797 10.0833V12.125C4.2513 10.9583 0.167969 9.20833 0.167969 5.41667C0.167969 4.17899 0.659634 2.992 1.5348 2.11683C2.40997 1.24167 3.59696 0.75 4.83464 0.75ZM6.0013 8.91667H7.16797C7.62759 8.91667 8.08272 8.82614 8.50736 8.65025C8.932 8.47435 9.31784 8.21655 9.64284 7.89154C9.96785 7.56653 10.2257 7.1807 10.4015 6.75606C10.5774 6.33142 10.668 5.87629 10.668 5.41667C10.668 4.95704 10.5774 4.50191 10.4015 4.07727C10.2257 3.65263 9.96785 3.2668 9.64284 2.94179C9.31784 2.61679 8.932 2.35898 8.50736 2.18309C8.08272 2.0072 7.62759 1.91667 7.16797 1.91667H4.83464C3.90638 1.91667 3.01614 2.28542 2.35976 2.94179C1.70338 3.59817 1.33464 4.48841 1.33464 5.41667C1.33464 7.5225 2.7708 8.89683 6.0013 10.3633V8.91667Z" fill="white"/>
</svg>
