<svg width="21" height="21" viewBox="0 0 21 21" fill="none" xmlns="http://www.w3.org/2000/svg">
<path d="M6.99976 9.625C6.8267 9.625 6.65753 9.67632 6.51364 9.77246C6.36974 9.86861 6.25759 10.0053 6.19137 10.1652C6.12514 10.325 6.10781 10.501 6.14157 10.6707C6.17534 10.8404 6.25867 10.9963 6.38104 11.1187C6.50341 11.2411 6.65932 11.3244 6.82906 11.3582C6.99879 11.3919 7.17472 11.3746 7.33461 11.3084C7.49449 11.2422 7.63115 11.13 7.7273 10.9861C7.82344 10.8422 7.87476 10.6731 7.87476 10.5C7.87476 10.2679 7.78257 10.0454 7.61848 9.88128C7.45438 9.71719 7.23182 9.625 6.99976 9.625V9.625ZM10.4998 9.625C10.3267 9.625 10.1575 9.67632 10.0136 9.77246C9.86974 9.86861 9.75759 10.0053 9.69137 10.1652C9.62514 10.325 9.60781 10.501 9.64157 10.6707C9.67534 10.8404 9.75867 10.9963 9.88104 11.1187C10.0034 11.2411 10.1593 11.3244 10.3291 11.3582C10.4988 11.3919 10.6747 11.3746 10.8346 11.3084C10.9945 11.2422 11.1312 11.13 11.2273 10.9861C11.3234 10.8422 11.3748 10.6731 11.3748 10.5C11.3748 10.2679 11.2826 10.0454 11.1185 9.88128C10.9544 9.71719 10.7318 9.625 10.4998 9.625ZM13.9998 9.625C13.8267 9.625 13.6575 9.67632 13.5136 9.77246C13.3697 9.86861 13.2576 10.0053 13.1914 10.1652C13.1251 10.325 13.1078 10.501 13.1416 10.6707C13.1753 10.8404 13.2587 10.9963 13.381 11.1187C13.5034 11.2411 13.6593 11.3244 13.8291 11.3582C13.9988 11.3919 14.1747 11.3746 14.3346 11.3084C14.4945 11.2422 14.6312 11.13 14.7273 10.9861C14.8234 10.8422 14.8748 10.6731 14.8748 10.5C14.8748 10.2679 14.7826 10.0454 14.6185 9.88128C14.4544 9.71719 14.2318 9.625 13.9998 9.625ZM10.4998 1.75C9.35069 1.75 8.21288 1.97633 7.15128 2.41605C6.08968 2.85578 5.12509 3.5003 4.31258 4.31282C2.67163 5.95376 1.74976 8.17936 1.74976 10.5C1.74211 12.5205 2.4417 14.48 3.72726 16.0387L1.97726 17.7887C1.85585 17.9118 1.7736 18.068 1.7409 18.2378C1.7082 18.4075 1.7265 18.5832 1.79351 18.7425C1.86619 18.8999 1.984 19.0322 2.132 19.1226C2.28 19.2129 2.45151 19.2573 2.62476 19.25H10.4998C12.8204 19.25 15.046 18.3281 16.6869 16.6872C18.3279 15.0462 19.2498 12.8206 19.2498 10.5C19.2498 8.17936 18.3279 5.95376 16.6869 4.31282C15.046 2.67187 12.8204 1.75 10.4998 1.75V1.75ZM10.4998 17.5H4.73351L5.54726 16.6862C5.62994 16.6052 5.69571 16.5086 5.74077 16.4019C5.78583 16.2953 5.80928 16.1808 5.80976 16.065C5.80647 15.8342 5.71212 15.6141 5.54726 15.4525C4.40152 14.308 3.68804 12.8017 3.52837 11.1902C3.36869 9.57867 3.77271 7.96163 4.67158 6.61458C5.57046 5.26753 6.90858 4.27381 8.45796 3.80273C10.0073 3.33164 11.6721 3.41233 13.1687 4.03105C14.6653 4.64977 15.901 5.76824 16.6654 7.1959C17.4298 8.62357 17.6755 10.2721 17.3607 11.8606C17.046 13.4492 16.1902 14.8794 14.9391 15.9077C13.6881 16.936 12.1192 17.4987 10.4998 17.5V17.5Z" fill="#275DF3"/>
</svg>
