<svg width="21" height="21" viewBox="0 0 21 21" fill="none" xmlns="http://www.w3.org/2000/svg">
<path d="M17.6402 4.37466C16.7127 3.44471 15.4832 2.87713 14.1738 2.77443C12.8644 2.67173 11.5614 3.04069 10.5002 3.81466C9.38694 2.98659 8.00123 2.6111 6.62217 2.76381C5.24311 2.91652 3.97313 3.58609 3.06797 4.63767C2.16281 5.68925 1.68971 7.04474 1.74394 8.43117C1.79817 9.8176 2.37571 11.132 3.36024 12.1097L8.79399 17.5522C9.24901 18 9.86183 18.2509 10.5002 18.2509C11.1387 18.2509 11.7515 18 12.2065 17.5522L17.6402 12.1097C18.6619 11.0818 19.2353 9.6914 19.2353 8.24216C19.2353 6.79292 18.6619 5.40255 17.6402 4.37466V4.37466ZM16.4065 10.9022L10.9727 16.3359C10.9109 16.3983 10.8373 16.4479 10.7562 16.4817C10.6751 16.5155 10.5881 16.533 10.5002 16.533C10.4124 16.533 10.3254 16.5155 10.2443 16.4817C10.1632 16.4479 10.0896 16.3983 10.0277 16.3359L4.59399 10.8759C3.90778 10.1745 3.52353 9.23219 3.52353 8.25091C3.52353 7.26962 3.90778 6.32735 4.59399 5.62591C5.29325 4.93552 6.23634 4.5484 7.21899 4.5484C8.20164 4.5484 9.14473 4.93552 9.84399 5.62591C9.92533 5.70792 10.0221 5.77301 10.1287 5.81744C10.2354 5.86186 10.3497 5.88473 10.4652 5.88473C10.5808 5.88473 10.6951 5.86186 10.8017 5.81744C10.9084 5.77301 11.0051 5.70792 11.0865 5.62591C11.7858 4.93552 12.7288 4.5484 13.7115 4.5484C14.6941 4.5484 15.6372 4.93552 16.3365 5.62591C17.0321 6.31816 17.429 7.25532 17.4421 8.23663C17.4552 9.21794 17.0834 10.1653 16.4065 10.8759V10.9022Z" fill="url(#paint0_linear_3326_35504)"/>
<defs>
<linearGradient id="paint0_linear_3326_35504" x1="1.73975" y1="11.3944" x2="18.3927" y2="11.5506" gradientUnits="userSpaceOnUse">
<stop stop-color="#EA3323"/>
<stop offset="1" stop-color="#275DF3"/>
</linearGradient>
</defs>
</svg>
