<svg width="21" height="21" viewBox="0 0 21 21" fill="none" xmlns="http://www.w3.org/2000/svg">
<path d="M17.7973 8.15584L5.54735 2.03084C5.06391 1.79023 4.51801 1.70457 3.98411 1.78554C3.4502 1.86651 2.95425 2.11018 2.56389 2.48332C2.17353 2.85646 1.90775 3.34091 1.80278 3.87063C1.69782 4.40034 1.75878 4.94954 1.97735 5.44334L4.07735 10.1421C4.125 10.2557 4.14954 10.3777 4.14954 10.5008C4.14954 10.624 4.125 10.746 4.07735 10.8596L1.97735 15.5583C1.79946 15.958 1.72426 16.3957 1.75858 16.8318C1.7929 17.2679 1.93565 17.6885 2.17386 18.0553C2.41207 18.4222 2.73819 18.7238 3.12257 18.9325C3.50696 19.1413 3.93742 19.2507 4.37485 19.2508C4.78455 19.2468 5.18815 19.1511 5.5561 18.9708L17.8061 12.8458C18.2406 12.6273 18.6059 12.2922 18.8611 11.8782C19.1163 11.4641 19.2514 10.9873 19.2514 10.5008C19.2514 10.0144 19.1163 9.5376 18.8611 9.12353C18.6059 8.70945 18.2406 8.37443 17.8061 8.15584H17.7973ZM17.0186 11.2796L4.7686 17.4046C4.60774 17.4818 4.42712 17.508 4.25094 17.4797C4.07476 17.4514 3.91146 17.3699 3.78292 17.2461C3.65439 17.1223 3.56677 16.9622 3.53181 16.7872C3.49686 16.6122 3.51624 16.4308 3.58735 16.2671L5.6786 11.5683C5.70567 11.5056 5.72905 11.4413 5.7486 11.3758H11.7773C12.0094 11.3758 12.232 11.2837 12.3961 11.1196C12.5602 10.9555 12.6523 10.7329 12.6523 10.5008C12.6523 10.2688 12.5602 10.0462 12.3961 9.88213C12.232 9.71803 12.0094 9.62585 11.7773 9.62585H5.7486C5.72905 9.56037 5.70567 9.49609 5.6786 9.43335L3.58735 4.73459C3.51624 4.57094 3.49686 4.38945 3.53181 4.21447C3.56677 4.03949 3.65439 3.87937 3.78292 3.7556C3.91146 3.63183 4.07476 3.55031 4.25094 3.52198C4.42712 3.49365 4.60774 3.51986 4.7686 3.59709L17.0186 9.7221C17.1619 9.79552 17.2822 9.90708 17.3662 10.0445C17.4502 10.1819 17.4946 10.3398 17.4946 10.5008C17.4946 10.6619 17.4502 10.8198 17.3662 10.9572C17.2822 11.0946 17.1619 11.2062 17.0186 11.2796V11.2796Z" fill="url(#paint0_linear_3326_35526)"/>
<defs>
<linearGradient id="paint0_linear_3326_35526" x1="1.75049" y1="11.522" x2="18.4089" y2="11.6606" gradientUnits="userSpaceOnUse">
<stop stop-color="#EA3323"/>
<stop offset="1" stop-color="#275DF3"/>
</linearGradient>
</defs>
</svg>
