<svg width="21" height="21" viewBox="0 0 21 21" fill="none" xmlns="http://www.w3.org/2000/svg">
<path d="M16.5639 10.2112C16.5674 10.1822 16.5674 10.1528 16.5639 10.1237C15.9118 8.56764 14.6779 7.32755 13.1252 6.6675V3.5H14.0002C14.2322 3.5 14.4548 3.40781 14.6189 3.24372C14.783 3.07962 14.8752 2.85706 14.8752 2.625C14.8752 2.39294 14.783 2.17038 14.6189 2.00628C14.4548 1.84219 14.2322 1.75 14.0002 1.75H7.00016C6.76809 1.75 6.54553 1.84219 6.38144 2.00628C6.21735 2.17038 6.12516 2.39294 6.12516 2.625C6.12516 2.85706 6.21735 3.07962 6.38144 3.24372C6.54553 3.40781 6.76809 3.5 7.00016 3.5H7.87516V6.6675C6.32735 7.34535 5.10585 8.6014 4.47141 10.1675C4.46792 10.1966 4.46792 10.2259 4.47141 10.255C4.05879 11.252 3.89839 12.3354 4.00441 13.4092C4.11043 14.483 4.47959 15.5141 5.07921 16.4112C5.67883 17.3083 6.49041 18.0437 7.44207 18.5523C8.39374 19.0609 9.45612 19.3269 10.5352 19.3269C11.6142 19.3269 12.6766 19.0609 13.6282 18.5523C14.5799 18.0437 15.3915 17.3083 15.9911 16.4112C16.5907 15.5141 16.9599 14.483 17.0659 13.4092C17.1719 12.3354 17.0115 11.252 16.5989 10.255L16.5639 10.2112ZM9.02141 8.1025C9.19684 8.0453 9.34969 7.93411 9.45813 7.78481C9.56656 7.63552 9.62502 7.45577 9.62516 7.27125V3.5H11.3752V7.27125C11.3753 7.45577 11.4338 7.63552 11.5422 7.78481C11.6506 7.93411 11.8035 8.0453 11.9789 8.1025C12.8511 8.38494 13.623 8.9137 14.2014 9.625H6.79891C7.37734 8.9137 8.1492 8.38494 9.02141 8.1025V8.1025ZM10.5002 17.5C9.22451 17.4977 8.00178 16.9899 7.09976 16.0879C6.19774 15.1859 5.68997 13.9631 5.68766 12.6875C5.68908 12.2431 5.7539 11.8011 5.88016 11.375H15.1202C15.2464 11.8011 15.3112 12.2431 15.3127 12.6875C15.3103 13.9631 14.8026 15.1859 13.9006 16.0879C12.9985 16.9899 11.7758 17.4977 10.5002 17.5V17.5ZM12.2502 14C12.0771 14 11.9079 14.0513 11.764 14.1475C11.6201 14.2436 11.508 14.3803 11.4418 14.5402C11.3755 14.7 11.3582 14.876 11.392 15.0457C11.4257 15.2154 11.5091 15.3713 11.6314 15.4937C11.7538 15.6161 11.9097 15.6994 12.0795 15.7332C12.2492 15.7669 12.4251 15.7496 12.585 15.6834C12.7449 15.6172 12.8815 15.505 12.9777 15.3611C13.0738 15.2172 13.1252 15.0481 13.1252 14.875C13.1252 14.6429 13.033 14.4204 12.8689 14.2563C12.7048 14.0922 12.4822 14 12.2502 14ZM8.75016 13.125C8.5771 13.125 8.40793 13.1763 8.26403 13.2725C8.12014 13.3686 8.00799 13.5053 7.94176 13.6652C7.87554 13.825 7.85821 14.001 7.89197 14.1707C7.92573 14.3404 8.00907 14.4963 8.13144 14.6187C8.25381 14.7411 8.40972 14.8244 8.57945 14.8582C8.74919 14.8919 8.92512 14.8746 9.08501 14.8084C9.24489 14.7422 9.38155 14.63 9.47769 14.4861C9.57384 14.3422 9.62516 14.1731 9.62516 14C9.62516 13.7679 9.53297 13.5454 9.36888 13.3813C9.20478 13.2172 8.98222 13.125 8.75016 13.125Z" fill="#275DF3"/>
</svg>
