<svg width="21" height="21" viewBox="0 0 21 21" fill="none" xmlns="http://www.w3.org/2000/svg">
<path d="M16.625 2.625H4.375C3.67881 2.625 3.01113 2.90156 2.51884 3.39384C2.02656 3.88613 1.75 4.55381 1.75 5.25V12.25C1.75 12.9462 2.02656 13.6139 2.51884 14.1062C3.01113 14.5984 3.67881 14.875 4.375 14.875H9.625V16.625H6.125C5.89294 16.625 5.67038 16.7172 5.50628 16.8813C5.34219 17.0454 5.25 17.2679 5.25 17.5C5.25 17.7321 5.34219 17.9546 5.50628 18.1187C5.67038 18.2828 5.89294 18.375 6.125 18.375H14.875C15.1071 18.375 15.3296 18.2828 15.4937 18.1187C15.6578 17.9546 15.75 17.7321 15.75 17.5C15.75 17.2679 15.6578 17.0454 15.4937 16.8813C15.3296 16.7172 15.1071 16.625 14.875 16.625H11.375V14.875H16.625C17.3212 14.875 17.9889 14.5984 18.4812 14.1062C18.9734 13.6139 19.25 12.9462 19.25 12.25V5.25C19.25 4.55381 18.9734 3.88613 18.4812 3.39384C17.9889 2.90156 17.3212 2.625 16.625 2.625ZM17.5 12.25C17.5 12.4821 17.4078 12.7046 17.2437 12.8687C17.0796 13.0328 16.8571 13.125 16.625 13.125H4.375C4.14294 13.125 3.92038 13.0328 3.75628 12.8687C3.59219 12.7046 3.5 12.4821 3.5 12.25V5.25C3.5 5.01794 3.59219 4.79538 3.75628 4.63128C3.92038 4.46719 4.14294 4.375 4.375 4.375H16.625C16.8571 4.375 17.0796 4.46719 17.2437 4.63128C17.4078 4.79538 17.5 5.01794 17.5 5.25V12.25Z" fill="#A1A3A6"/>
</svg>
