<svg width="21" height="21" viewBox="0 0 21 21" fill="none" xmlns="http://www.w3.org/2000/svg">
<path d="M18.6375 8.82004C18.3916 8.52486 18.084 8.28724 17.7362 8.12395C17.3885 7.96067 17.0092 7.8757 16.625 7.87504H12.635L13.125 6.62379C13.3288 6.07594 13.3967 5.48682 13.3228 4.90697C13.2489 4.32712 13.0355 3.77385 12.7008 3.29461C12.3661 2.81538 11.9201 2.42449 11.4012 2.15546C10.8822 1.88644 10.3058 1.74732 9.72125 1.75004C9.55293 1.75039 9.38829 1.79928 9.24706 1.89085C9.10583 1.98241 8.99401 2.11277 8.925 2.26629L6.43125 7.87504H4.375C3.67881 7.87504 3.01113 8.1516 2.51884 8.64388C2.02656 9.13617 1.75 9.80385 1.75 10.5V16.625C1.75 17.3212 2.02656 17.9889 2.51884 18.4812C3.01113 18.9735 3.67881 19.25 4.375 19.25H15.5137C16.1278 19.2498 16.7224 19.0343 17.194 18.6411C17.6657 18.2478 17.9845 17.7016 18.095 17.0975L19.2063 10.9725C19.275 10.594 19.2597 10.205 19.1614 9.83301C19.0631 9.46104 18.8842 9.11522 18.6375 8.82004ZM6.125 17.5H4.375C4.14294 17.5 3.92038 17.4079 3.75628 17.2438C3.59219 17.0797 3.5 16.8571 3.5 16.625V10.5C3.5 10.268 3.59219 10.0454 3.75628 9.88132C3.92038 9.71723 4.14294 9.62504 4.375 9.62504H6.125V17.5ZM17.5 10.6575L16.3887 16.7825C16.3515 16.9864 16.2431 17.1704 16.0828 17.3018C15.9226 17.4332 15.7209 17.5034 15.5137 17.5H7.875V8.93379L10.255 3.57879C10.5 3.65021 10.7275 3.77164 10.9232 3.93542C11.1189 4.0992 11.2785 4.30177 11.392 4.53035C11.5054 4.75892 11.5703 5.00853 11.5824 5.26343C11.5946 5.51832 11.5537 5.77297 11.4625 6.01129L10.9987 7.26254C10.8999 7.52701 10.8666 7.81147 10.9015 8.09163C10.9365 8.37179 11.0387 8.63934 11.1994 8.87144C11.3602 9.10354 11.5747 9.2933 11.8247 9.42452C12.0746 9.55575 12.3527 9.62455 12.635 9.62504H16.625C16.7535 9.62483 16.8806 9.65295 16.997 9.70739C17.1135 9.76183 17.2165 9.84127 17.2988 9.94004C17.383 10.0374 17.4448 10.1523 17.4796 10.2763C17.5144 10.4003 17.5213 10.5305 17.5 10.6575Z" fill="#275DF3"/>
</svg>
