<svg width="14" height="14" viewBox="0 0 14 14" fill="none" xmlns="http://www.w3.org/2000/svg">
<path d="M2 10.6705H4.82667C4.9144 10.671 5.00138 10.6542 5.0826 10.621C5.16383 10.5879 5.23771 10.539 5.3 10.4772L9.91333 5.8572L11.8067 4.00387C11.8692 3.94189 11.9187 3.86816 11.9526 3.78692C11.9864 3.70568 12.0039 3.61854 12.0039 3.53053C12.0039 3.44252 11.9864 3.35539 11.9526 3.27415C11.9187 3.19291 11.8692 3.11917 11.8067 3.0572L8.98 0.197199C8.91803 0.134713 8.84429 0.0851171 8.76305 0.0512713C8.68181 0.0174255 8.59467 0 8.50667 0C8.41866 0 8.33152 0.0174255 8.25028 0.0512713C8.16904 0.0851171 8.09531 0.134713 8.03333 0.197199L6.15333 2.08387L1.52667 6.70387C1.46488 6.76616 1.416 6.84004 1.38282 6.92126C1.34964 7.00249 1.33283 7.08946 1.33333 7.1772V10.0039C1.33333 10.1807 1.40357 10.3502 1.5286 10.4753C1.65362 10.6003 1.82319 10.6705 2 10.6705ZM8.50667 1.61053L10.3933 3.4972L9.44667 4.44387L7.56 2.5572L8.50667 1.61053ZM2.66667 7.45053L6.62 3.4972L8.50667 5.38387L4.55333 9.3372H2.66667V7.45053ZM12.6667 12.0039H0.666667C0.489856 12.0039 0.320286 12.0741 0.195262 12.1991C0.0702379 12.3242 0 12.4937 0 12.6705C0 12.8473 0.0702379 13.0169 0.195262 13.1419C0.320286 13.267 0.489856 13.3372 0.666667 13.3372H12.6667C12.8435 13.3372 13.013 13.267 13.1381 13.1419C13.2631 13.0169 13.3333 12.8473 13.3333 12.6705C13.3333 12.4937 13.2631 12.3242 13.1381 12.1991C13.013 12.0741 12.8435 12.0039 12.6667 12.0039Z" fill="#24272E"/>
</svg>
