<svg width="725" height="425" viewBox="0 0 725 425" fill="none" xmlns="http://www.w3.org/2000/svg">
<g opacity="0.5">
<path d="M601.809 61.9841C601.809 45.8101 608.234 30.2986 619.671 18.8618C631.108 7.42509 646.619 0.999992 662.793 0.999989C678.967 0.999987 694.479 7.42508 705.915 18.8618C717.352 30.2985 723.777 45.8101 723.777 61.9841L601.809 61.9841Z" stroke="white" stroke-width="2" stroke-linecap="round" stroke-linejoin="round"/>
<path d="M601.809 61.9841C601.809 45.8101 608.234 30.2986 619.671 18.8618C631.108 7.42509 646.619 0.999992 662.793 0.999989C678.967 0.999987 694.479 7.42508 705.915 18.8618C717.352 30.2985 723.777 45.8101 723.777 61.9841L601.809 61.9841Z" stroke="#96C9FF" stroke-width="2" stroke-linecap="round" stroke-linejoin="round"/>
<path d="M601.809 242.992C601.809 226.818 608.234 211.307 619.671 199.87C631.108 188.433 646.619 182.008 662.793 182.008C678.967 182.008 694.479 188.433 705.915 199.87C717.352 211.307 723.777 226.818 723.777 242.992L601.809 242.992Z" stroke="white" stroke-width="2" stroke-linecap="round" stroke-linejoin="round"/>
<path d="M601.809 242.992C601.809 226.818 608.234 211.307 619.671 199.87C631.108 188.433 646.619 182.008 662.793 182.008C678.967 182.008 694.479 188.433 705.915 199.87C717.352 211.307 723.777 226.818 723.777 242.992L601.809 242.992Z" stroke="#96C9FF" stroke-width="2" stroke-linecap="round" stroke-linejoin="round"/>
<path d="M601.809 122.32C601.809 106.146 608.234 90.6347 619.671 79.198C631.108 67.7613 646.619 61.3362 662.793 61.3362C678.967 61.3362 694.479 67.7613 705.915 79.198C717.352 90.6347 723.777 106.146 723.777 122.32L601.809 122.32Z" stroke="white" stroke-width="2" stroke-linecap="round" stroke-linejoin="round"/>
<path d="M601.809 122.32C601.809 106.146 608.234 90.6347 619.671 79.198C631.108 67.7613 646.619 61.3362 662.793 61.3362C678.967 61.3362 694.479 67.7613 705.915 79.198C717.352 90.6347 723.777 106.146 723.777 122.32L601.809 122.32Z" stroke="#96C9FF" stroke-width="2" stroke-linecap="round" stroke-linejoin="round"/>
<path d="M601.809 303.328C601.809 287.154 608.234 271.642 619.671 260.206C631.108 248.769 646.619 242.344 662.793 242.344C678.967 242.344 694.479 248.769 705.915 260.206C717.352 271.642 723.777 287.154 723.777 303.328L601.809 303.328Z" stroke="white" stroke-width="2" stroke-linecap="round" stroke-linejoin="round"/>
<path d="M601.809 303.328C601.809 287.154 608.234 271.642 619.671 260.206C631.108 248.769 646.619 242.344 662.793 242.344C678.967 242.344 694.479 248.769 705.915 260.206C717.352 271.642 723.777 287.154 723.777 303.328L601.809 303.328Z" stroke="#96C9FF" stroke-width="2" stroke-linecap="round" stroke-linejoin="round"/>
<path d="M601.809 182.656C601.809 166.482 608.234 150.971 619.671 139.534C631.108 128.097 646.619 121.672 662.793 121.672C678.967 121.672 694.479 128.097 705.915 139.534C717.352 150.97 723.777 166.482 723.777 182.656L601.809 182.656Z" stroke="white" stroke-width="2" stroke-linecap="round" stroke-linejoin="round"/>
<path d="M601.809 182.656C601.809 166.482 608.234 150.971 619.671 139.534C631.108 128.097 646.619 121.672 662.793 121.672C678.967 121.672 694.479 128.097 705.915 139.534C717.352 150.97 723.777 166.482 723.777 182.656L601.809 182.656Z" stroke="#96C9FF" stroke-width="2" stroke-linecap="round" stroke-linejoin="round"/>
<path d="M601.809 363.664C601.809 347.49 608.234 331.978 619.671 320.542C631.108 309.105 646.619 302.68 662.793 302.68C678.967 302.68 694.479 309.105 705.915 320.542C717.352 331.978 723.777 347.49 723.777 363.664L601.809 363.664Z" stroke="white" stroke-width="2" stroke-linecap="round" stroke-linejoin="round"/>
<path d="M601.809 363.664C601.809 347.49 608.234 331.978 619.671 320.542C631.108 309.105 646.619 302.68 662.793 302.68C678.967 302.68 694.479 309.105 705.915 320.542C717.352 331.978 723.777 347.49 723.777 363.664L601.809 363.664Z" stroke="#96C9FF" stroke-width="2" stroke-linecap="round" stroke-linejoin="round"/>
<path d="M601.809 424C601.809 407.826 608.234 392.314 619.671 380.878C631.108 369.441 646.619 363.016 662.793 363.016C678.967 363.016 694.479 369.441 705.915 380.878C717.352 392.314 723.777 407.826 723.777 424L601.809 424Z" stroke="white" stroke-width="2" stroke-linecap="round" stroke-linejoin="round"/>
<path d="M601.809 424C601.809 407.826 608.234 392.314 619.671 380.878C631.108 369.441 646.619 363.016 662.793 363.016C678.967 363.016 694.479 369.441 705.915 380.878C717.352 392.314 723.777 407.826 723.777 424L601.809 424Z" stroke="#96C9FF" stroke-width="2" stroke-linecap="round" stroke-linejoin="round"/>
</g>
<g opacity="0.5">
<path d="M600.81 363.016C600.81 379.19 594.384 394.701 582.948 406.138C571.511 417.575 555.999 424 539.825 424C523.651 424 508.14 417.575 496.703 406.138C485.266 394.701 478.841 379.19 478.841 363.016L600.81 363.016Z" stroke="white" stroke-width="2" stroke-linecap="round" stroke-linejoin="round"/>
<path d="M600.81 363.016C600.81 379.19 594.384 394.701 582.948 406.138C571.511 417.575 555.999 424 539.825 424C523.651 424 508.14 417.575 496.703 406.138C485.266 394.701 478.841 379.19 478.841 363.016L600.81 363.016Z" stroke="#96C9FF" stroke-width="2" stroke-linecap="round" stroke-linejoin="round"/>
<path d="M600.81 182.008C600.81 198.182 594.384 213.693 582.948 225.13C571.511 236.567 555.999 242.992 539.825 242.992C523.651 242.992 508.14 236.567 496.703 225.13C485.266 213.693 478.841 198.182 478.841 182.008L600.81 182.008Z" stroke="white" stroke-width="2" stroke-linecap="round" stroke-linejoin="round"/>
<path d="M600.81 182.008C600.81 198.182 594.384 213.693 582.948 225.13C571.511 236.567 555.999 242.992 539.825 242.992C523.651 242.992 508.14 236.567 496.703 225.13C485.266 213.693 478.841 198.182 478.841 182.008L600.81 182.008Z" stroke="#96C9FF" stroke-width="2" stroke-linecap="round" stroke-linejoin="round"/>
<path d="M600.81 302.68C600.81 318.854 594.384 334.366 582.948 345.802C571.511 357.239 555.999 363.664 539.825 363.664C523.651 363.664 508.14 357.239 496.703 345.802C485.266 334.366 478.841 318.854 478.841 302.68L600.81 302.68Z" stroke="white" stroke-width="2" stroke-linecap="round" stroke-linejoin="round"/>
<path d="M600.81 302.68C600.81 318.854 594.384 334.366 582.948 345.802C571.511 357.239 555.999 363.664 539.825 363.664C523.651 363.664 508.14 357.239 496.703 345.802C485.266 334.366 478.841 318.854 478.841 302.68L600.81 302.68Z" stroke="#96C9FF" stroke-width="2" stroke-linecap="round" stroke-linejoin="round"/>
<path d="M600.81 121.672C600.81 137.846 594.384 153.358 582.948 164.794C571.511 176.231 555.999 182.656 539.825 182.656C523.651 182.656 508.14 176.231 496.703 164.794C485.266 153.358 478.841 137.846 478.841 121.672L600.81 121.672Z" stroke="white" stroke-width="2" stroke-linecap="round" stroke-linejoin="round"/>
<path d="M600.81 121.672C600.81 137.846 594.384 153.358 582.948 164.794C571.511 176.231 555.999 182.656 539.825 182.656C523.651 182.656 508.14 176.231 496.703 164.794C485.266 153.358 478.841 137.846 478.841 121.672L600.81 121.672Z" stroke="#96C9FF" stroke-width="2" stroke-linecap="round" stroke-linejoin="round"/>
<path d="M600.81 242.344C600.81 258.518 594.384 274.029 582.948 285.466C571.511 296.903 555.999 303.328 539.825 303.328C523.651 303.328 508.14 296.903 496.703 285.466C485.266 274.029 478.841 258.518 478.841 242.344L600.81 242.344Z" stroke="white" stroke-width="2" stroke-linecap="round" stroke-linejoin="round"/>
<path d="M600.81 242.344C600.81 258.518 594.384 274.029 582.948 285.466C571.511 296.903 555.999 303.328 539.825 303.328C523.651 303.328 508.14 296.903 496.703 285.466C485.266 274.029 478.841 258.518 478.841 242.344L600.81 242.344Z" stroke="#96C9FF" stroke-width="2" stroke-linecap="round" stroke-linejoin="round"/>
<path d="M600.81 61.3361C600.81 77.5101 594.384 93.0216 582.948 104.458C571.511 115.895 555.999 122.32 539.825 122.32C523.651 122.32 508.14 115.895 496.703 104.458C485.266 93.0216 478.841 77.5101 478.841 61.3361L600.81 61.3361Z" stroke="white" stroke-width="2" stroke-linecap="round" stroke-linejoin="round"/>
<path d="M600.81 61.3361C600.81 77.5101 594.384 93.0216 582.948 104.458C571.511 115.895 555.999 122.32 539.825 122.32C523.651 122.32 508.14 115.895 496.703 104.458C485.266 93.0216 478.841 77.5101 478.841 61.3361L600.81 61.3361Z" stroke="#96C9FF" stroke-width="2" stroke-linecap="round" stroke-linejoin="round"/>
<path d="M600.81 1.00003C600.81 17.174 594.384 32.6856 582.948 44.1223C571.511 55.559 555.999 61.9841 539.825 61.9841C523.651 61.9841 508.14 55.559 496.703 44.1223C485.266 32.6856 478.841 17.174 478.841 1.00004L600.81 1.00003Z" stroke="white" stroke-width="2" stroke-linecap="round" stroke-linejoin="round"/>
<path d="M600.81 1.00003C600.81 17.174 594.384 32.6856 582.948 44.1223C571.511 55.559 555.999 61.9841 539.825 61.9841C523.651 61.9841 508.14 55.559 496.703 44.1223C485.266 32.6856 478.841 17.174 478.841 1.00004L600.81 1.00003Z" stroke="#96C9FF" stroke-width="2" stroke-linecap="round" stroke-linejoin="round"/>
</g>
<g opacity="0.5">
<path d="M355.873 61.9841C355.873 45.8101 362.298 30.2986 373.735 18.8618C385.172 7.42509 400.683 0.999992 416.857 0.999989C433.031 0.999987 448.543 7.42508 459.979 18.8618C471.416 30.2985 477.841 45.8101 477.841 61.9841L355.873 61.9841Z" stroke="white" stroke-width="2" stroke-linecap="round" stroke-linejoin="round"/>
<path d="M355.873 61.9841C355.873 45.8101 362.298 30.2986 373.735 18.8618C385.172 7.42509 400.683 0.999992 416.857 0.999989C433.031 0.999987 448.543 7.42508 459.979 18.8618C471.416 30.2985 477.841 45.8101 477.841 61.9841L355.873 61.9841Z" stroke="#96C9FF" stroke-width="2" stroke-linecap="round" stroke-linejoin="round"/>
<path d="M355.873 242.992C355.873 226.818 362.298 211.307 373.735 199.87C385.172 188.433 400.683 182.008 416.857 182.008C433.031 182.008 448.543 188.433 459.979 199.87C471.416 211.307 477.841 226.818 477.841 242.992L355.873 242.992Z" stroke="white" stroke-width="2" stroke-linecap="round" stroke-linejoin="round"/>
<path d="M355.873 242.992C355.873 226.818 362.298 211.307 373.735 199.87C385.172 188.433 400.683 182.008 416.857 182.008C433.031 182.008 448.543 188.433 459.979 199.87C471.416 211.307 477.841 226.818 477.841 242.992L355.873 242.992Z" stroke="#96C9FF" stroke-width="2" stroke-linecap="round" stroke-linejoin="round"/>
<path d="M355.873 122.32C355.873 106.146 362.298 90.6347 373.735 79.198C385.172 67.7613 400.683 61.3362 416.857 61.3362C433.031 61.3362 448.543 67.7613 459.979 79.198C471.416 90.6347 477.841 106.146 477.841 122.32L355.873 122.32Z" stroke="white" stroke-width="2" stroke-linecap="round" stroke-linejoin="round"/>
<path d="M355.873 122.32C355.873 106.146 362.298 90.6347 373.735 79.198C385.172 67.7613 400.683 61.3362 416.857 61.3362C433.031 61.3362 448.543 67.7613 459.979 79.198C471.416 90.6347 477.841 106.146 477.841 122.32L355.873 122.32Z" stroke="#96C9FF" stroke-width="2" stroke-linecap="round" stroke-linejoin="round"/>
<path d="M355.873 303.328C355.873 287.154 362.298 271.642 373.735 260.206C385.172 248.769 400.683 242.344 416.857 242.344C433.031 242.344 448.543 248.769 459.979 260.206C471.416 271.642 477.841 287.154 477.841 303.328L355.873 303.328Z" stroke="white" stroke-width="2" stroke-linecap="round" stroke-linejoin="round"/>
<path d="M355.873 303.328C355.873 287.154 362.298 271.642 373.735 260.206C385.172 248.769 400.683 242.344 416.857 242.344C433.031 242.344 448.543 248.769 459.979 260.206C471.416 271.642 477.841 287.154 477.841 303.328L355.873 303.328Z" stroke="#96C9FF" stroke-width="2" stroke-linecap="round" stroke-linejoin="round"/>
<path d="M355.873 182.656C355.873 166.482 362.298 150.971 373.735 139.534C385.172 128.097 400.683 121.672 416.857 121.672C433.031 121.672 448.543 128.097 459.979 139.534C471.416 150.97 477.841 166.482 477.841 182.656L355.873 182.656Z" stroke="white" stroke-width="2" stroke-linecap="round" stroke-linejoin="round"/>
<path d="M355.873 182.656C355.873 166.482 362.298 150.971 373.735 139.534C385.172 128.097 400.683 121.672 416.857 121.672C433.031 121.672 448.543 128.097 459.979 139.534C471.416 150.97 477.841 166.482 477.841 182.656L355.873 182.656Z" stroke="#96C9FF" stroke-width="2" stroke-linecap="round" stroke-linejoin="round"/>
<path d="M355.873 363.664C355.873 347.49 362.298 331.978 373.735 320.542C385.172 309.105 400.683 302.68 416.857 302.68C433.031 302.68 448.543 309.105 459.979 320.542C471.416 331.978 477.841 347.49 477.841 363.664L355.873 363.664Z" stroke="white" stroke-width="2" stroke-linecap="round" stroke-linejoin="round"/>
<path d="M355.873 363.664C355.873 347.49 362.298 331.978 373.735 320.542C385.172 309.105 400.683 302.68 416.857 302.68C433.031 302.68 448.543 309.105 459.979 320.542C471.416 331.978 477.841 347.49 477.841 363.664L355.873 363.664Z" stroke="#96C9FF" stroke-width="2" stroke-linecap="round" stroke-linejoin="round"/>
<path d="M355.873 424C355.873 407.826 362.298 392.314 373.735 380.878C385.172 369.441 400.683 363.016 416.857 363.016C433.031 363.016 448.543 369.441 459.979 380.878C471.416 392.314 477.841 407.826 477.841 424L355.873 424Z" stroke="white" stroke-width="2" stroke-linecap="round" stroke-linejoin="round"/>
<path d="M355.873 424C355.873 407.826 362.298 392.314 373.735 380.878C385.172 369.441 400.683 363.016 416.857 363.016C433.031 363.016 448.543 369.441 459.979 380.878C471.416 392.314 477.841 407.826 477.841 424L355.873 424Z" stroke="#96C9FF" stroke-width="2" stroke-linecap="round" stroke-linejoin="round"/>
</g>
<g opacity="0.5">
<path d="M354.873 363.016C354.873 379.19 348.448 394.701 337.011 406.138C325.574 417.575 310.063 424 293.889 424C277.715 424 262.203 417.575 250.767 406.138C239.33 394.702 232.905 379.19 232.905 363.016L354.873 363.016Z" stroke="white" stroke-width="2" stroke-linecap="round" stroke-linejoin="round"/>
<path d="M354.873 363.016C354.873 379.19 348.448 394.701 337.011 406.138C325.574 417.575 310.063 424 293.889 424C277.715 424 262.203 417.575 250.767 406.138C239.33 394.702 232.905 379.19 232.905 363.016L354.873 363.016Z" stroke="#96C9FF" stroke-width="2" stroke-linecap="round" stroke-linejoin="round"/>
<path d="M354.873 182.008C354.873 198.182 348.448 213.693 337.011 225.13C325.574 236.567 310.063 242.992 293.889 242.992C277.715 242.992 262.203 236.567 250.767 225.13C239.33 213.693 232.905 198.182 232.905 182.008L354.873 182.008Z" stroke="white" stroke-width="2" stroke-linecap="round" stroke-linejoin="round"/>
<path d="M354.873 182.008C354.873 198.182 348.448 213.693 337.011 225.13C325.574 236.567 310.063 242.992 293.889 242.992C277.715 242.992 262.203 236.567 250.767 225.13C239.33 213.693 232.905 198.182 232.905 182.008L354.873 182.008Z" stroke="#96C9FF" stroke-width="2" stroke-linecap="round" stroke-linejoin="round"/>
<path d="M354.873 302.68C354.873 318.854 348.448 334.366 337.011 345.802C325.574 357.239 310.063 363.664 293.889 363.664C277.715 363.664 262.203 357.239 250.767 345.802C239.33 334.366 232.905 318.854 232.905 302.68L354.873 302.68Z" stroke="white" stroke-width="2" stroke-linecap="round" stroke-linejoin="round"/>
<path d="M354.873 302.68C354.873 318.854 348.448 334.366 337.011 345.802C325.574 357.239 310.063 363.664 293.889 363.664C277.715 363.664 262.203 357.239 250.767 345.802C239.33 334.366 232.905 318.854 232.905 302.68L354.873 302.68Z" stroke="#96C9FF" stroke-width="2" stroke-linecap="round" stroke-linejoin="round"/>
<path d="M354.873 121.672C354.873 137.846 348.448 153.358 337.011 164.794C325.574 176.231 310.063 182.656 293.889 182.656C277.715 182.656 262.203 176.231 250.767 164.794C239.33 153.358 232.905 137.846 232.905 121.672L354.873 121.672Z" stroke="white" stroke-width="2" stroke-linecap="round" stroke-linejoin="round"/>
<path d="M354.873 121.672C354.873 137.846 348.448 153.358 337.011 164.794C325.574 176.231 310.063 182.656 293.889 182.656C277.715 182.656 262.203 176.231 250.767 164.794C239.33 153.358 232.905 137.846 232.905 121.672L354.873 121.672Z" stroke="#96C9FF" stroke-width="2" stroke-linecap="round" stroke-linejoin="round"/>
<path d="M354.873 242.344C354.873 258.518 348.448 274.029 337.011 285.466C325.574 296.903 310.063 303.328 293.889 303.328C277.715 303.328 262.203 296.903 250.767 285.466C239.33 274.03 232.905 258.518 232.905 242.344L354.873 242.344Z" stroke="white" stroke-width="2" stroke-linecap="round" stroke-linejoin="round"/>
<path d="M354.873 242.344C354.873 258.518 348.448 274.029 337.011 285.466C325.574 296.903 310.063 303.328 293.889 303.328C277.715 303.328 262.203 296.903 250.767 285.466C239.33 274.03 232.905 258.518 232.905 242.344L354.873 242.344Z" stroke="#96C9FF" stroke-width="2" stroke-linecap="round" stroke-linejoin="round"/>
<path d="M354.873 61.3361C354.873 77.5101 348.448 93.0217 337.011 104.458C325.574 115.895 310.063 122.32 293.889 122.32C277.715 122.32 262.203 115.895 250.767 104.458C239.33 93.0217 232.905 77.5101 232.905 61.3362L354.873 61.3361Z" stroke="white" stroke-width="2" stroke-linecap="round" stroke-linejoin="round"/>
<path d="M354.873 61.3361C354.873 77.5101 348.448 93.0217 337.011 104.458C325.574 115.895 310.063 122.32 293.889 122.32C277.715 122.32 262.203 115.895 250.767 104.458C239.33 93.0217 232.905 77.5101 232.905 61.3362L354.873 61.3361Z" stroke="#96C9FF" stroke-width="2" stroke-linecap="round" stroke-linejoin="round"/>
<path d="M354.873 1.00003C354.873 17.174 348.448 32.6856 337.011 44.1223C325.574 55.559 310.063 61.9841 293.889 61.9841C277.715 61.9841 262.203 55.559 250.767 44.1223C239.33 32.6856 232.905 17.174 232.905 1.00004L354.873 1.00003Z" stroke="white" stroke-width="2" stroke-linecap="round" stroke-linejoin="round"/>
<path d="M354.873 1.00003C354.873 17.174 348.448 32.6856 337.011 44.1223C325.574 55.559 310.063 61.9841 293.889 61.9841C277.715 61.9841 262.203 55.559 250.767 44.1223C239.33 32.6856 232.905 17.174 232.905 1.00004L354.873 1.00003Z" stroke="#96C9FF" stroke-width="2" stroke-linecap="round" stroke-linejoin="round"/>
</g>
<g opacity="0.5">
<path d="M109.937 61.9841C109.937 45.8101 116.362 30.2986 127.798 18.8618C139.235 7.42509 154.747 0.999992 170.921 0.999989C187.095 0.999987 202.606 7.42508 214.043 18.8618C225.48 30.2985 231.905 45.8101 231.905 61.9841L109.937 61.9841Z" stroke="white" stroke-width="2" stroke-linecap="round" stroke-linejoin="round"/>
<path d="M109.937 61.9841C109.937 45.8101 116.362 30.2986 127.798 18.8618C139.235 7.42509 154.747 0.999992 170.921 0.999989C187.095 0.999987 202.606 7.42508 214.043 18.8618C225.48 30.2985 231.905 45.8101 231.905 61.9841L109.937 61.9841Z" stroke="#96C9FF" stroke-width="2" stroke-linecap="round" stroke-linejoin="round"/>
<path d="M109.937 242.992C109.937 226.818 116.362 211.307 127.798 199.87C139.235 188.433 154.747 182.008 170.921 182.008C187.095 182.008 202.606 188.433 214.043 199.87C225.48 211.307 231.905 226.818 231.905 242.992L109.937 242.992Z" stroke="white" stroke-width="2" stroke-linecap="round" stroke-linejoin="round"/>
<path d="M109.937 242.992C109.937 226.818 116.362 211.307 127.798 199.87C139.235 188.433 154.747 182.008 170.921 182.008C187.095 182.008 202.606 188.433 214.043 199.87C225.48 211.307 231.905 226.818 231.905 242.992L109.937 242.992Z" stroke="#96C9FF" stroke-width="2" stroke-linecap="round" stroke-linejoin="round"/>
<path d="M109.937 122.32C109.937 106.146 116.362 90.6347 127.798 79.198C139.235 67.7613 154.747 61.3362 170.921 61.3362C187.095 61.3362 202.606 67.7613 214.043 79.198C225.48 90.6347 231.905 106.146 231.905 122.32L109.937 122.32Z" stroke="white" stroke-width="2" stroke-linecap="round" stroke-linejoin="round"/>
<path d="M109.937 122.32C109.937 106.146 116.362 90.6347 127.798 79.198C139.235 67.7613 154.747 61.3362 170.921 61.3362C187.095 61.3362 202.606 67.7613 214.043 79.198C225.48 90.6347 231.905 106.146 231.905 122.32L109.937 122.32Z" stroke="#96C9FF" stroke-width="2" stroke-linecap="round" stroke-linejoin="round"/>
<path d="M109.937 303.328C109.937 287.154 116.362 271.642 127.798 260.206C139.235 248.769 154.747 242.344 170.921 242.344C187.095 242.344 202.606 248.769 214.043 260.206C225.48 271.642 231.905 287.154 231.905 303.328L109.937 303.328Z" stroke="white" stroke-width="2" stroke-linecap="round" stroke-linejoin="round"/>
<path d="M109.937 303.328C109.937 287.154 116.362 271.642 127.798 260.206C139.235 248.769 154.747 242.344 170.921 242.344C187.095 242.344 202.606 248.769 214.043 260.206C225.48 271.642 231.905 287.154 231.905 303.328L109.937 303.328Z" stroke="#96C9FF" stroke-width="2" stroke-linecap="round" stroke-linejoin="round"/>
<path d="M109.937 182.656C109.937 166.482 116.362 150.971 127.798 139.534C139.235 128.097 154.747 121.672 170.921 121.672C187.095 121.672 202.606 128.097 214.043 139.534C225.48 150.97 231.905 166.482 231.905 182.656L109.937 182.656Z" stroke="white" stroke-width="2" stroke-linecap="round" stroke-linejoin="round"/>
<path d="M109.937 182.656C109.937 166.482 116.362 150.971 127.798 139.534C139.235 128.097 154.747 121.672 170.921 121.672C187.095 121.672 202.606 128.097 214.043 139.534C225.48 150.97 231.905 166.482 231.905 182.656L109.937 182.656Z" stroke="#96C9FF" stroke-width="2" stroke-linecap="round" stroke-linejoin="round"/>
<path d="M109.937 363.664C109.937 347.49 116.362 331.978 127.798 320.542C139.235 309.105 154.747 302.68 170.921 302.68C187.095 302.68 202.606 309.105 214.043 320.542C225.48 331.978 231.905 347.49 231.905 363.664L109.937 363.664Z" stroke="white" stroke-width="2" stroke-linecap="round" stroke-linejoin="round"/>
<path d="M109.937 363.664C109.937 347.49 116.362 331.978 127.798 320.542C139.235 309.105 154.747 302.68 170.921 302.68C187.095 302.68 202.606 309.105 214.043 320.542C225.48 331.978 231.905 347.49 231.905 363.664L109.937 363.664Z" stroke="#96C9FF" stroke-width="2" stroke-linecap="round" stroke-linejoin="round"/>
<path d="M109.937 424C109.937 407.826 116.362 392.314 127.798 380.878C139.235 369.441 154.747 363.016 170.921 363.016C187.095 363.016 202.606 369.441 214.043 380.878C225.48 392.314 231.905 407.826 231.905 424L109.937 424Z" stroke="white" stroke-width="2" stroke-linecap="round" stroke-linejoin="round"/>
<path d="M109.937 424C109.937 407.826 116.362 392.314 127.798 380.878C139.235 369.441 154.747 363.016 170.921 363.016C187.095 363.016 202.606 369.441 214.043 380.878C225.48 392.314 231.905 407.826 231.905 424L109.937 424Z" stroke="#96C9FF" stroke-width="2" stroke-linecap="round" stroke-linejoin="round"/>
</g>
<g opacity="0.5">
<path d="M108.937 363.016C108.937 379.19 102.511 394.701 91.0747 406.138C79.638 417.575 64.1264 424 47.9524 424C31.7784 424 16.2669 417.575 4.83015 406.138C-6.60659 394.702 -13.0317 379.19 -13.0317 363.016L108.937 363.016Z" stroke="white" stroke-width="2" stroke-linecap="round" stroke-linejoin="round"/>
<path d="M108.937 363.016C108.937 379.19 102.511 394.701 91.0747 406.138C79.638 417.575 64.1264 424 47.9524 424C31.7784 424 16.2669 417.575 4.83015 406.138C-6.60659 394.702 -13.0317 379.19 -13.0317 363.016L108.937 363.016Z" stroke="#96C9FF" stroke-width="2" stroke-linecap="round" stroke-linejoin="round"/>
<path d="M108.937 182.008C108.937 198.182 102.511 213.693 91.0747 225.13C79.638 236.567 64.1264 242.992 47.9524 242.992C31.7784 242.992 16.2669 236.567 4.83015 225.13C-6.60659 213.693 -13.0317 198.182 -13.0317 182.008L108.937 182.008Z" stroke="white" stroke-width="2" stroke-linecap="round" stroke-linejoin="round"/>
<path d="M108.937 182.008C108.937 198.182 102.511 213.693 91.0747 225.13C79.638 236.567 64.1264 242.992 47.9524 242.992C31.7784 242.992 16.2669 236.567 4.83015 225.13C-6.60659 213.693 -13.0317 198.182 -13.0317 182.008L108.937 182.008Z" stroke="#96C9FF" stroke-width="2" stroke-linecap="round" stroke-linejoin="round"/>
<path d="M108.937 302.68C108.937 318.854 102.511 334.366 91.0747 345.802C79.638 357.239 64.1264 363.664 47.9524 363.664C31.7784 363.664 16.2669 357.239 4.83015 345.802C-6.60659 334.366 -13.0317 318.854 -13.0317 302.68L108.937 302.68Z" stroke="white" stroke-width="2" stroke-linecap="round" stroke-linejoin="round"/>
<path d="M108.937 302.68C108.937 318.854 102.511 334.366 91.0747 345.802C79.638 357.239 64.1264 363.664 47.9524 363.664C31.7784 363.664 16.2669 357.239 4.83015 345.802C-6.60659 334.366 -13.0317 318.854 -13.0317 302.68L108.937 302.68Z" stroke="#96C9FF" stroke-width="2" stroke-linecap="round" stroke-linejoin="round"/>
<path d="M108.937 121.672C108.937 137.846 102.511 153.358 91.0747 164.794C79.638 176.231 64.1264 182.656 47.9524 182.656C31.7784 182.656 16.2669 176.231 4.83015 164.794C-6.60659 153.358 -13.0317 137.846 -13.0317 121.672L108.937 121.672Z" stroke="white" stroke-width="2" stroke-linecap="round" stroke-linejoin="round"/>
<path d="M108.937 121.672C108.937 137.846 102.511 153.358 91.0747 164.794C79.638 176.231 64.1264 182.656 47.9524 182.656C31.7784 182.656 16.2669 176.231 4.83015 164.794C-6.60659 153.358 -13.0317 137.846 -13.0317 121.672L108.937 121.672Z" stroke="#96C9FF" stroke-width="2" stroke-linecap="round" stroke-linejoin="round"/>
<path d="M108.937 242.344C108.937 258.518 102.511 274.029 91.0747 285.466C79.638 296.903 64.1264 303.328 47.9524 303.328C31.7784 303.328 16.2669 296.903 4.83015 285.466C-6.60659 274.03 -13.0317 258.518 -13.0317 242.344L108.937 242.344Z" stroke="white" stroke-width="2" stroke-linecap="round" stroke-linejoin="round"/>
<path d="M108.937 242.344C108.937 258.518 102.511 274.029 91.0747 285.466C79.638 296.903 64.1264 303.328 47.9524 303.328C31.7784 303.328 16.2669 296.903 4.83015 285.466C-6.60659 274.03 -13.0317 258.518 -13.0317 242.344L108.937 242.344Z" stroke="#96C9FF" stroke-width="2" stroke-linecap="round" stroke-linejoin="round"/>
<path d="M108.937 61.3361C108.937 77.5101 102.511 93.0217 91.0747 104.458C79.638 115.895 64.1264 122.32 47.9524 122.32C31.7784 122.32 16.2669 115.895 4.83015 104.458C-6.60659 93.0217 -13.0317 77.5101 -13.0317 61.3362L108.937 61.3361Z" stroke="white" stroke-width="2" stroke-linecap="round" stroke-linejoin="round"/>
<path d="M108.937 61.3361C108.937 77.5101 102.511 93.0217 91.0747 104.458C79.638 115.895 64.1264 122.32 47.9524 122.32C31.7784 122.32 16.2669 115.895 4.83015 104.458C-6.60659 93.0217 -13.0317 77.5101 -13.0317 61.3362L108.937 61.3361Z" stroke="#96C9FF" stroke-width="2" stroke-linecap="round" stroke-linejoin="round"/>
<path d="M108.937 1.00003C108.937 17.174 102.511 32.6856 91.0747 44.1223C79.638 55.559 64.1264 61.9841 47.9524 61.9841C31.7784 61.9841 16.2669 55.559 4.83015 44.1223C-6.60659 32.6856 -13.0317 17.174 -13.0317 1.00004L108.937 1.00003Z" stroke="white" stroke-width="2" stroke-linecap="round" stroke-linejoin="round"/>
<path d="M108.937 1.00003C108.937 17.174 102.511 32.6856 91.0747 44.1223C79.638 55.559 64.1264 61.9841 47.9524 61.9841C31.7784 61.9841 16.2669 55.559 4.83015 44.1223C-6.60659 32.6856 -13.0317 17.174 -13.0317 1.00004L108.937 1.00003Z" stroke="#96C9FF" stroke-width="2" stroke-linecap="round" stroke-linejoin="round"/>
</g>
</svg>
