<svg width="704" height="327" viewBox="0 0 704 327" fill="none" xmlns="http://www.w3.org/2000/svg">
<g opacity="0.5">
<g opacity="0.5">
<path d="M123.394 182.008C123.394 198.182 116.973 213.693 105.545 225.13C94.1164 236.567 78.6162 242.992 62.4541 242.992C46.2919 242.992 30.7918 236.567 19.3634 225.13C7.93502 213.693 1.51463 198.182 1.51463 182.008L123.394 182.008Z" stroke="url(#paint0_linear_1742_14504)" stroke-width="2" stroke-linecap="round" stroke-linejoin="round"/>
<path d="M123.394 302.68C123.394 318.854 116.973 334.365 105.545 345.802C94.1164 357.239 78.6162 363.664 62.4541 363.664C46.2919 363.664 30.7918 357.239 19.3634 345.802C7.93502 334.365 1.51463 318.854 1.51463 302.68L123.394 302.68Z" stroke="url(#paint1_linear_1742_14504)" stroke-width="2" stroke-linecap="round" stroke-linejoin="round"/>
<path d="M123.394 121.672C123.394 137.846 116.973 153.358 105.545 164.794C94.1164 176.231 78.6162 182.656 62.4541 182.656C46.2919 182.656 30.7918 176.231 19.3634 164.794C7.93502 153.358 1.51463 137.846 1.51463 121.672L123.394 121.672Z" stroke="url(#paint2_linear_1742_14504)" stroke-width="2" stroke-linecap="round" stroke-linejoin="round"/>
<path d="M123.394 242.344C123.394 258.518 116.973 274.029 105.545 285.466C94.1164 296.903 78.6162 303.328 62.4541 303.328C46.2919 303.328 30.7918 296.903 19.3634 285.466C7.93502 274.03 1.51463 258.518 1.51463 242.344L123.394 242.344Z" stroke="url(#paint3_linear_1742_14504)" stroke-width="2" stroke-linecap="round" stroke-linejoin="round"/>
<path d="M123.394 61.3361C123.394 77.5101 116.973 93.0217 105.545 104.458C94.1164 115.895 78.6162 122.32 62.4541 122.32C46.2919 122.32 30.7918 115.895 19.3634 104.458C7.93502 93.0217 1.51463 77.5101 1.51463 61.3362L123.394 61.3361Z" stroke="url(#paint4_linear_1742_14504)" stroke-width="2" stroke-linecap="round" stroke-linejoin="round"/>
<path d="M123.394 1.00003C123.394 17.174 116.973 32.6856 105.545 44.1223C94.1164 55.559 78.6162 61.9841 62.4541 61.9841C46.2919 61.9841 30.7918 55.559 19.3634 44.1223C7.93502 32.6856 1.51463 17.174 1.51463 1.00004L123.394 1.00003Z" stroke="url(#paint5_linear_1742_14504)" stroke-width="2" stroke-linecap="round" stroke-linejoin="round"/>
</g>
<g opacity="0.5">
<path d="M368.049 182.008C368.049 198.182 361.628 213.693 350.2 225.13C338.772 236.567 323.272 242.992 307.109 242.992C290.947 242.992 275.447 236.567 264.019 225.13C252.59 213.693 246.17 198.182 246.17 182.008L368.049 182.008Z" stroke="url(#paint6_linear_1742_14504)" stroke-width="2" stroke-linecap="round" stroke-linejoin="round"/>
<path d="M368.049 302.68C368.049 318.854 361.628 334.365 350.2 345.802C338.772 357.239 323.272 363.664 307.109 363.664C290.947 363.664 275.447 357.239 264.019 345.802C252.59 334.365 246.17 318.854 246.17 302.68L368.049 302.68Z" stroke="url(#paint7_linear_1742_14504)" stroke-width="2" stroke-linecap="round" stroke-linejoin="round"/>
<path d="M368.049 121.672C368.049 137.846 361.628 153.358 350.2 164.794C338.772 176.231 323.272 182.656 307.109 182.656C290.947 182.656 275.447 176.231 264.019 164.794C252.59 153.358 246.17 137.846 246.17 121.672L368.049 121.672Z" stroke="url(#paint8_linear_1742_14504)" stroke-width="2" stroke-linecap="round" stroke-linejoin="round"/>
<path d="M368.049 242.344C368.049 258.518 361.628 274.029 350.2 285.466C338.772 296.903 323.272 303.328 307.109 303.328C290.947 303.328 275.447 296.903 264.019 285.466C252.59 274.03 246.17 258.518 246.17 242.344L368.049 242.344Z" stroke="url(#paint9_linear_1742_14504)" stroke-width="2" stroke-linecap="round" stroke-linejoin="round"/>
<path d="M368.049 61.3361C368.049 77.5101 361.628 93.0217 350.2 104.458C338.772 115.895 323.272 122.32 307.109 122.32C290.947 122.32 275.447 115.895 264.019 104.458C252.59 93.0217 246.17 77.5101 246.17 61.3362L368.049 61.3361Z" stroke="url(#paint10_linear_1742_14504)" stroke-width="2" stroke-linecap="round" stroke-linejoin="round"/>
<path d="M368.049 1.00003C368.049 17.174 361.628 32.6856 350.2 44.1223C338.772 55.559 323.272 61.9841 307.109 61.9841C290.947 61.9841 275.447 55.559 264.019 44.1223C252.59 32.6856 246.17 17.174 246.17 1.00004L368.049 1.00003Z" stroke="url(#paint11_linear_1742_14504)" stroke-width="2" stroke-linecap="round" stroke-linejoin="round"/>
</g>
<g opacity="0.5">
<path d="M612.704 182.008C612.704 198.182 606.284 213.693 594.855 225.13C583.427 236.567 567.927 242.992 551.765 242.992C535.602 242.992 520.102 236.567 508.674 225.13C497.246 213.693 490.825 198.182 490.825 182.008L612.704 182.008Z" stroke="url(#paint12_linear_1742_14504)" stroke-width="2" stroke-linecap="round" stroke-linejoin="round"/>
<path d="M612.704 302.68C612.704 318.854 606.284 334.365 594.855 345.802C583.427 357.239 567.927 363.664 551.765 363.664C535.602 363.664 520.102 357.239 508.674 345.802C497.246 334.365 490.825 318.854 490.825 302.68L612.704 302.68Z" stroke="url(#paint13_linear_1742_14504)" stroke-width="2" stroke-linecap="round" stroke-linejoin="round"/>
<path d="M612.704 121.672C612.704 137.846 606.284 153.358 594.855 164.794C583.427 176.231 567.927 182.656 551.765 182.656C535.602 182.656 520.102 176.231 508.674 164.794C497.246 153.358 490.825 137.846 490.825 121.672L612.704 121.672Z" stroke="url(#paint14_linear_1742_14504)" stroke-width="2" stroke-linecap="round" stroke-linejoin="round"/>
<path d="M612.704 242.344C612.704 258.518 606.284 274.029 594.855 285.466C583.427 296.903 567.927 303.328 551.765 303.328C535.602 303.328 520.102 296.903 508.674 285.466C497.246 274.03 490.825 258.518 490.825 242.344L612.704 242.344Z" stroke="url(#paint15_linear_1742_14504)" stroke-width="2" stroke-linecap="round" stroke-linejoin="round"/>
<path d="M612.704 61.3361C612.704 77.5101 606.284 93.0217 594.855 104.458C583.427 115.895 567.927 122.32 551.765 122.32C535.602 122.32 520.102 115.895 508.674 104.458C497.246 93.0217 490.825 77.5101 490.825 61.3362L612.704 61.3361Z" stroke="url(#paint16_linear_1742_14504)" stroke-width="2" stroke-linecap="round" stroke-linejoin="round"/>
<path d="M612.704 1.00003C612.704 17.174 606.284 32.6856 594.855 44.1223C583.427 55.559 567.927 61.9841 551.765 61.9841C535.602 61.9841 520.102 55.559 508.674 44.1223C497.246 32.6856 490.825 17.174 490.825 1.00004L612.704 1.00003Z" stroke="url(#paint17_linear_1742_14504)" stroke-width="2" stroke-linecap="round" stroke-linejoin="round"/>
</g>
<g opacity="0.5">
<path d="M124.043 61.9841C124.043 45.8101 130.464 30.2986 141.892 18.8618C153.321 7.42509 168.821 1 184.983 1C201.145 1 216.645 7.42509 228.074 18.8618C239.502 30.2986 245.922 45.8101 245.922 61.9841L124.043 61.9841Z" stroke="url(#paint18_linear_1742_14504)" stroke-width="2" stroke-linecap="round" stroke-linejoin="round"/>
<path d="M124.043 242.992C124.043 226.818 130.464 211.307 141.892 199.87C153.321 188.433 168.821 182.008 184.983 182.008C201.145 182.008 216.645 188.433 228.074 199.87C239.502 211.307 245.922 226.818 245.922 242.992H124.043Z" stroke="url(#paint19_linear_1742_14504)" stroke-width="2" stroke-linecap="round" stroke-linejoin="round"/>
<path d="M124.043 122.32C124.043 106.146 130.464 90.6344 141.892 79.1976C153.321 67.7609 168.821 61.3358 184.983 61.3358C201.145 61.3358 216.645 67.7609 228.074 79.1976C239.502 90.6344 245.922 106.146 245.922 122.32L124.043 122.32Z" stroke="url(#paint20_linear_1742_14504)" stroke-width="2" stroke-linecap="round" stroke-linejoin="round"/>
<path d="M124.043 303.328C124.043 287.154 130.464 271.643 141.892 260.206C153.321 248.769 168.821 242.344 184.983 242.344C201.145 242.344 216.645 248.769 228.074 260.206C239.502 271.643 245.922 287.154 245.922 303.328H124.043Z" stroke="url(#paint21_linear_1742_14504)" stroke-width="2" stroke-linecap="round" stroke-linejoin="round"/>
<path d="M124.043 182.656C124.043 166.482 130.464 150.971 141.892 139.534C153.321 128.097 168.821 121.672 184.983 121.672C201.145 121.672 216.645 128.097 228.074 139.534C239.502 150.971 245.922 166.482 245.922 182.656H124.043Z" stroke="url(#paint22_linear_1742_14504)" stroke-width="2" stroke-linecap="round" stroke-linejoin="round"/>
<path d="M124.043 363.664C124.043 347.49 130.464 331.978 141.892 320.542C153.321 309.105 168.821 302.68 184.983 302.68C201.145 302.68 216.645 309.105 228.074 320.542C239.502 331.978 245.922 347.49 245.922 363.664H124.043Z" stroke="url(#paint23_linear_1742_14504)" stroke-width="2" stroke-linecap="round" stroke-linejoin="round"/>
</g>
<g opacity="0.5">
<path d="M368.698 61.9841C368.698 45.8101 375.119 30.2986 386.547 18.8618C397.975 7.42509 413.476 1 429.638 1C445.8 1 461.3 7.42509 472.728 18.8618C484.157 30.2986 490.577 45.8101 490.577 61.9841L368.698 61.9841Z" stroke="url(#paint24_linear_1742_14504)" stroke-width="2" stroke-linecap="round" stroke-linejoin="round"/>
<path d="M368.698 242.992C368.698 226.818 375.119 211.307 386.547 199.87C397.975 188.433 413.476 182.008 429.638 182.008C445.8 182.008 461.3 188.433 472.728 199.87C484.157 211.307 490.577 226.818 490.577 242.992H368.698Z" stroke="url(#paint25_linear_1742_14504)" stroke-width="2" stroke-linecap="round" stroke-linejoin="round"/>
<path d="M368.698 122.32C368.698 106.146 375.119 90.6344 386.547 79.1976C397.975 67.7609 413.476 61.3358 429.638 61.3358C445.8 61.3358 461.3 67.7609 472.728 79.1976C484.157 90.6344 490.577 106.146 490.577 122.32L368.698 122.32Z" stroke="url(#paint26_linear_1742_14504)" stroke-width="2" stroke-linecap="round" stroke-linejoin="round"/>
<path d="M368.698 303.328C368.698 287.154 375.119 271.643 386.547 260.206C397.975 248.769 413.476 242.344 429.638 242.344C445.8 242.344 461.3 248.769 472.728 260.206C484.157 271.643 490.577 287.154 490.577 303.328H368.698Z" stroke="url(#paint27_linear_1742_14504)" stroke-width="2" stroke-linecap="round" stroke-linejoin="round"/>
<path d="M368.698 182.656C368.698 166.482 375.119 150.971 386.547 139.534C397.975 128.097 413.476 121.672 429.638 121.672C445.8 121.672 461.3 128.097 472.728 139.534C484.157 150.971 490.577 166.482 490.577 182.656H368.698Z" stroke="url(#paint28_linear_1742_14504)" stroke-width="2" stroke-linecap="round" stroke-linejoin="round"/>
<path d="M368.698 363.664C368.698 347.49 375.119 331.978 386.547 320.542C397.975 309.105 413.476 302.68 429.638 302.68C445.8 302.68 461.3 309.105 472.728 320.542C484.157 331.978 490.577 347.49 490.577 363.664H368.698Z" stroke="url(#paint29_linear_1742_14504)" stroke-width="2" stroke-linecap="round" stroke-linejoin="round"/>
</g>
<g opacity="0.5">
<path d="M368.698 61.9841C368.698 45.8101 375.119 30.2986 386.547 18.8618C397.975 7.42509 413.476 1 429.638 1C445.8 1 461.3 7.42509 472.728 18.8618C484.157 30.2986 490.577 45.8101 490.577 61.9841L368.698 61.9841Z" stroke="url(#paint30_linear_1742_14504)" stroke-width="2" stroke-linecap="round" stroke-linejoin="round"/>
<path d="M368.698 242.992C368.698 226.818 375.119 211.307 386.547 199.87C397.975 188.433 413.476 182.008 429.638 182.008C445.8 182.008 461.3 188.433 472.728 199.87C484.157 211.307 490.577 226.818 490.577 242.992H368.698Z" stroke="url(#paint31_linear_1742_14504)" stroke-width="2" stroke-linecap="round" stroke-linejoin="round"/>
<path d="M368.698 122.32C368.698 106.146 375.119 90.6344 386.547 79.1976C397.975 67.7609 413.476 61.3358 429.638 61.3358C445.8 61.3358 461.3 67.7609 472.728 79.1976C484.157 90.6344 490.577 106.146 490.577 122.32L368.698 122.32Z" stroke="url(#paint32_linear_1742_14504)" stroke-width="2" stroke-linecap="round" stroke-linejoin="round"/>
<path d="M368.698 303.328C368.698 287.154 375.119 271.643 386.547 260.206C397.975 248.769 413.476 242.344 429.638 242.344C445.8 242.344 461.3 248.769 472.728 260.206C484.157 271.643 490.577 287.154 490.577 303.328H368.698Z" stroke="url(#paint33_linear_1742_14504)" stroke-width="2" stroke-linecap="round" stroke-linejoin="round"/>
<path d="M368.698 182.656C368.698 166.482 375.119 150.971 386.547 139.534C397.975 128.097 413.476 121.672 429.638 121.672C445.8 121.672 461.3 128.097 472.728 139.534C484.157 150.971 490.577 166.482 490.577 182.656H368.698Z" stroke="url(#paint34_linear_1742_14504)" stroke-width="2" stroke-linecap="round" stroke-linejoin="round"/>
<path d="M368.698 363.664C368.698 347.49 375.119 331.978 386.547 320.542C397.975 309.105 413.476 302.68 429.638 302.68C445.8 302.68 461.3 309.105 472.728 320.542C484.157 331.978 490.577 347.49 490.577 363.664H368.698Z" stroke="url(#paint35_linear_1742_14504)" stroke-width="2" stroke-linecap="round" stroke-linejoin="round"/>
</g>
<g opacity="0.5">
<path d="M612.205 61.9841C612.205 45.8101 618.625 30.2986 630.054 18.8618C641.482 7.42509 656.982 1 673.145 1C689.307 1 704.807 7.42509 716.235 18.8618C727.664 30.2986 734.084 45.8101 734.084 61.9841L612.205 61.9841Z" stroke="url(#paint36_linear_1742_14504)" stroke-width="2" stroke-linecap="round" stroke-linejoin="round"/>
<path d="M612.205 242.992C612.205 226.818 618.625 211.307 630.054 199.87C641.482 188.433 656.982 182.008 673.145 182.008C689.307 182.008 704.807 188.433 716.235 199.87C727.664 211.307 734.084 226.818 734.084 242.992H612.205Z" stroke="url(#paint37_linear_1742_14504)" stroke-width="2" stroke-linecap="round" stroke-linejoin="round"/>
<path d="M612.205 122.32C612.205 106.146 618.625 90.6344 630.054 79.1976C641.482 67.7609 656.982 61.3358 673.145 61.3358C689.307 61.3358 704.807 67.7609 716.235 79.1976C727.664 90.6344 734.084 106.146 734.084 122.32L612.205 122.32Z" stroke="url(#paint38_linear_1742_14504)" stroke-width="2" stroke-linecap="round" stroke-linejoin="round"/>
<path d="M612.205 303.328C612.205 287.154 618.625 271.643 630.054 260.206C641.482 248.769 656.982 242.344 673.145 242.344C689.307 242.344 704.807 248.769 716.235 260.206C727.664 271.643 734.084 287.154 734.084 303.328H612.205Z" stroke="url(#paint39_linear_1742_14504)" stroke-width="2" stroke-linecap="round" stroke-linejoin="round"/>
<path d="M612.205 182.656C612.205 166.482 618.625 150.971 630.054 139.534C641.482 128.097 656.982 121.672 673.145 121.672C689.307 121.672 704.807 128.097 716.235 139.534C727.664 150.971 734.084 166.482 734.084 182.656H612.205Z" stroke="url(#paint40_linear_1742_14504)" stroke-width="2" stroke-linecap="round" stroke-linejoin="round"/>
<path d="M612.205 363.664C612.205 347.49 618.625 331.978 630.054 320.542C641.482 309.105 656.982 302.68 673.145 302.68C689.307 302.68 704.807 309.105 716.235 320.542C727.664 331.978 734.084 347.49 734.084 363.664H612.205Z" stroke="url(#paint41_linear_1742_14504)" stroke-width="2" stroke-linecap="round" stroke-linejoin="round"/>
</g>
</g>
<defs>
<linearGradient id="paint0_linear_1742_14504" x1="123.394" y1="208.949" x2="7.40612" y2="207.021" gradientUnits="userSpaceOnUse">
<stop stop-color="#EA3323"/>
<stop offset="1" stop-color="#275DF3"/>
</linearGradient>
<linearGradient id="paint1_linear_1742_14504" x1="123.394" y1="329.621" x2="7.40612" y2="327.693" gradientUnits="userSpaceOnUse">
<stop stop-color="#EA3323"/>
<stop offset="1" stop-color="#275DF3"/>
</linearGradient>
<linearGradient id="paint2_linear_1742_14504" x1="123.394" y1="148.613" x2="7.40612" y2="146.685" gradientUnits="userSpaceOnUse">
<stop stop-color="#EA3323"/>
<stop offset="1" stop-color="#275DF3"/>
</linearGradient>
<linearGradient id="paint3_linear_1742_14504" x1="123.394" y1="269.285" x2="7.40612" y2="267.357" gradientUnits="userSpaceOnUse">
<stop stop-color="#EA3323"/>
<stop offset="1" stop-color="#275DF3"/>
</linearGradient>
<linearGradient id="paint4_linear_1742_14504" x1="123.394" y1="88.2772" x2="7.40612" y2="86.3492" gradientUnits="userSpaceOnUse">
<stop stop-color="#EA3323"/>
<stop offset="1" stop-color="#275DF3"/>
</linearGradient>
<linearGradient id="paint5_linear_1742_14504" x1="123.394" y1="27.9411" x2="7.40612" y2="26.0131" gradientUnits="userSpaceOnUse">
<stop stop-color="#EA3323"/>
<stop offset="1" stop-color="#275DF3"/>
</linearGradient>
<linearGradient id="paint6_linear_1742_14504" x1="368.049" y1="208.949" x2="252.061" y2="207.021" gradientUnits="userSpaceOnUse">
<stop stop-color="#EA3323"/>
<stop offset="1" stop-color="#275DF3"/>
</linearGradient>
<linearGradient id="paint7_linear_1742_14504" x1="368.049" y1="329.621" x2="252.061" y2="327.693" gradientUnits="userSpaceOnUse">
<stop stop-color="#EA3323"/>
<stop offset="1" stop-color="#275DF3"/>
</linearGradient>
<linearGradient id="paint8_linear_1742_14504" x1="368.049" y1="148.613" x2="252.061" y2="146.685" gradientUnits="userSpaceOnUse">
<stop stop-color="#EA3323"/>
<stop offset="1" stop-color="#275DF3"/>
</linearGradient>
<linearGradient id="paint9_linear_1742_14504" x1="368.049" y1="269.285" x2="252.061" y2="267.357" gradientUnits="userSpaceOnUse">
<stop stop-color="#EA3323"/>
<stop offset="1" stop-color="#275DF3"/>
</linearGradient>
<linearGradient id="paint10_linear_1742_14504" x1="368.049" y1="88.2772" x2="252.061" y2="86.3492" gradientUnits="userSpaceOnUse">
<stop stop-color="#EA3323"/>
<stop offset="1" stop-color="#275DF3"/>
</linearGradient>
<linearGradient id="paint11_linear_1742_14504" x1="368.049" y1="27.9411" x2="252.061" y2="26.0131" gradientUnits="userSpaceOnUse">
<stop stop-color="#EA3323"/>
<stop offset="1" stop-color="#275DF3"/>
</linearGradient>
<linearGradient id="paint12_linear_1742_14504" x1="612.704" y1="208.949" x2="496.717" y2="207.021" gradientUnits="userSpaceOnUse">
<stop stop-color="#EA3323"/>
<stop offset="1" stop-color="#275DF3"/>
</linearGradient>
<linearGradient id="paint13_linear_1742_14504" x1="612.704" y1="329.621" x2="496.717" y2="327.693" gradientUnits="userSpaceOnUse">
<stop stop-color="#EA3323"/>
<stop offset="1" stop-color="#275DF3"/>
</linearGradient>
<linearGradient id="paint14_linear_1742_14504" x1="612.704" y1="148.613" x2="496.717" y2="146.685" gradientUnits="userSpaceOnUse">
<stop stop-color="#EA3323"/>
<stop offset="1" stop-color="#275DF3"/>
</linearGradient>
<linearGradient id="paint15_linear_1742_14504" x1="612.704" y1="269.285" x2="496.717" y2="267.357" gradientUnits="userSpaceOnUse">
<stop stop-color="#EA3323"/>
<stop offset="1" stop-color="#275DF3"/>
</linearGradient>
<linearGradient id="paint16_linear_1742_14504" x1="612.704" y1="88.2772" x2="496.717" y2="86.3492" gradientUnits="userSpaceOnUse">
<stop stop-color="#EA3323"/>
<stop offset="1" stop-color="#275DF3"/>
</linearGradient>
<linearGradient id="paint17_linear_1742_14504" x1="612.704" y1="27.9411" x2="496.717" y2="26.0131" gradientUnits="userSpaceOnUse">
<stop stop-color="#EA3323"/>
<stop offset="1" stop-color="#275DF3"/>
</linearGradient>
<linearGradient id="paint18_linear_1742_14504" x1="124.043" y1="35.043" x2="240.031" y2="36.971" gradientUnits="userSpaceOnUse">
<stop stop-color="#EA3323"/>
<stop offset="1" stop-color="#275DF3"/>
</linearGradient>
<linearGradient id="paint19_linear_1742_14504" x1="124.043" y1="216.051" x2="240.031" y2="217.979" gradientUnits="userSpaceOnUse">
<stop stop-color="#EA3323"/>
<stop offset="1" stop-color="#275DF3"/>
</linearGradient>
<linearGradient id="paint20_linear_1742_14504" x1="124.043" y1="95.3788" x2="240.031" y2="97.3068" gradientUnits="userSpaceOnUse">
<stop stop-color="#EA3323"/>
<stop offset="1" stop-color="#275DF3"/>
</linearGradient>
<linearGradient id="paint21_linear_1742_14504" x1="124.043" y1="276.387" x2="240.031" y2="278.315" gradientUnits="userSpaceOnUse">
<stop stop-color="#EA3323"/>
<stop offset="1" stop-color="#275DF3"/>
</linearGradient>
<linearGradient id="paint22_linear_1742_14504" x1="124.043" y1="155.715" x2="240.031" y2="157.643" gradientUnits="userSpaceOnUse">
<stop stop-color="#EA3323"/>
<stop offset="1" stop-color="#275DF3"/>
</linearGradient>
<linearGradient id="paint23_linear_1742_14504" x1="124.043" y1="336.723" x2="240.031" y2="338.651" gradientUnits="userSpaceOnUse">
<stop stop-color="#EA3323"/>
<stop offset="1" stop-color="#275DF3"/>
</linearGradient>
<linearGradient id="paint24_linear_1742_14504" x1="368.698" y1="35.043" x2="484.686" y2="36.971" gradientUnits="userSpaceOnUse">
<stop stop-color="#EA3323"/>
<stop offset="1" stop-color="#275DF3"/>
</linearGradient>
<linearGradient id="paint25_linear_1742_14504" x1="368.698" y1="216.051" x2="484.686" y2="217.979" gradientUnits="userSpaceOnUse">
<stop stop-color="#EA3323"/>
<stop offset="1" stop-color="#275DF3"/>
</linearGradient>
<linearGradient id="paint26_linear_1742_14504" x1="368.698" y1="95.3788" x2="484.686" y2="97.3068" gradientUnits="userSpaceOnUse">
<stop stop-color="#EA3323"/>
<stop offset="1" stop-color="#275DF3"/>
</linearGradient>
<linearGradient id="paint27_linear_1742_14504" x1="368.698" y1="276.387" x2="484.686" y2="278.315" gradientUnits="userSpaceOnUse">
<stop stop-color="#EA3323"/>
<stop offset="1" stop-color="#275DF3"/>
</linearGradient>
<linearGradient id="paint28_linear_1742_14504" x1="368.698" y1="155.715" x2="484.686" y2="157.643" gradientUnits="userSpaceOnUse">
<stop stop-color="#EA3323"/>
<stop offset="1" stop-color="#275DF3"/>
</linearGradient>
<linearGradient id="paint29_linear_1742_14504" x1="368.698" y1="336.723" x2="484.686" y2="338.651" gradientUnits="userSpaceOnUse">
<stop stop-color="#EA3323"/>
<stop offset="1" stop-color="#275DF3"/>
</linearGradient>
<linearGradient id="paint30_linear_1742_14504" x1="368.698" y1="35.043" x2="484.686" y2="36.971" gradientUnits="userSpaceOnUse">
<stop stop-color="#EA3323"/>
<stop offset="1" stop-color="#275DF3"/>
</linearGradient>
<linearGradient id="paint31_linear_1742_14504" x1="368.698" y1="216.051" x2="484.686" y2="217.979" gradientUnits="userSpaceOnUse">
<stop stop-color="#EA3323"/>
<stop offset="1" stop-color="#275DF3"/>
</linearGradient>
<linearGradient id="paint32_linear_1742_14504" x1="368.698" y1="95.3788" x2="484.686" y2="97.3068" gradientUnits="userSpaceOnUse">
<stop stop-color="#EA3323"/>
<stop offset="1" stop-color="#275DF3"/>
</linearGradient>
<linearGradient id="paint33_linear_1742_14504" x1="368.698" y1="276.387" x2="484.686" y2="278.315" gradientUnits="userSpaceOnUse">
<stop stop-color="#EA3323"/>
<stop offset="1" stop-color="#275DF3"/>
</linearGradient>
<linearGradient id="paint34_linear_1742_14504" x1="368.698" y1="155.715" x2="484.686" y2="157.643" gradientUnits="userSpaceOnUse">
<stop stop-color="#EA3323"/>
<stop offset="1" stop-color="#275DF3"/>
</linearGradient>
<linearGradient id="paint35_linear_1742_14504" x1="368.698" y1="336.723" x2="484.686" y2="338.651" gradientUnits="userSpaceOnUse">
<stop stop-color="#EA3323"/>
<stop offset="1" stop-color="#275DF3"/>
</linearGradient>
<linearGradient id="paint36_linear_1742_14504" x1="612.205" y1="35.043" x2="728.193" y2="36.971" gradientUnits="userSpaceOnUse">
<stop stop-color="#EA3323"/>
<stop offset="1" stop-color="#275DF3"/>
</linearGradient>
<linearGradient id="paint37_linear_1742_14504" x1="612.205" y1="216.051" x2="728.193" y2="217.979" gradientUnits="userSpaceOnUse">
<stop stop-color="#EA3323"/>
<stop offset="1" stop-color="#275DF3"/>
</linearGradient>
<linearGradient id="paint38_linear_1742_14504" x1="612.205" y1="95.3788" x2="728.193" y2="97.3068" gradientUnits="userSpaceOnUse">
<stop stop-color="#EA3323"/>
<stop offset="1" stop-color="#275DF3"/>
</linearGradient>
<linearGradient id="paint39_linear_1742_14504" x1="612.205" y1="276.387" x2="728.193" y2="278.315" gradientUnits="userSpaceOnUse">
<stop stop-color="#EA3323"/>
<stop offset="1" stop-color="#275DF3"/>
</linearGradient>
<linearGradient id="paint40_linear_1742_14504" x1="612.205" y1="155.715" x2="728.193" y2="157.643" gradientUnits="userSpaceOnUse">
<stop stop-color="#EA3323"/>
<stop offset="1" stop-color="#275DF3"/>
</linearGradient>
<linearGradient id="paint41_linear_1742_14504" x1="612.205" y1="336.723" x2="728.193" y2="338.651" gradientUnits="userSpaceOnUse">
<stop stop-color="#EA3323"/>
<stop offset="1" stop-color="#275DF3"/>
</linearGradient>
</defs>
</svg>
