<svg width="32" height="32" viewBox="0 0 32 32" fill="none" xmlns="http://www.w3.org/2000/svg">
<circle cx="16" cy="16" r="16" fill="#EA3323"/>
<path d="M15.9998 24.3332C11.3975 24.3332 7.6665 20.6022 7.6665 15.9998C7.6665 11.3975 11.3975 7.6665 15.9998 7.6665C20.6022 7.6665 24.3332 11.3975 24.3332 15.9998C24.3332 20.6022 20.6022 24.3332 15.9998 24.3332ZM15.9998 22.6665C19.6818 22.6665 22.6665 19.6818 22.6665 15.9998C22.6665 12.3179 19.6818 9.33317 15.9998 9.33317C12.3179 9.33317 9.33317 12.3179 9.33317 15.9998C9.33317 19.6818 12.3179 22.6665 15.9998 22.6665ZM15.1665 18.4998H16.8332V20.1665H15.1665V18.4998ZM15.1665 11.8332H16.8332V16.8332H15.1665V11.8332Z" fill="white"/>
</svg>
