<svg width="12" height="13" viewBox="0 0 12 13" fill="none" xmlns="http://www.w3.org/2000/svg">
<path d="M6.00033 12.3327C2.77866 12.3327 0.166992 9.72098 0.166992 6.49935C0.166992 3.27769 2.77866 0.666016 6.00033 0.666016C9.22196 0.666016 11.8337 3.27769 11.8337 6.49935C11.8337 9.72098 9.22196 12.3327 6.00033 12.3327ZM6.00033 11.166C8.57767 11.166 10.667 9.07669 10.667 6.49935C10.667 3.92202 8.57767 1.83268 6.00033 1.83268C3.423 1.83268 1.33366 3.92202 1.33366 6.49935C1.33366 9.07669 3.423 11.166 6.00033 11.166ZM5.41699 3.58268H6.58366V4.74935H5.41699V3.58268ZM5.41699 5.91602H6.58366V9.41602H5.41699V5.91602Z" fill="black"/>
</svg>
