<svg width="460" height="327" viewBox="0 0 460 327" fill="none" xmlns="http://www.w3.org/2000/svg">
<g opacity="0.5">
<path d="M123.803 182.008C123.803 198.182 117.378 213.693 105.941 225.13C94.5042 236.567 78.9926 242.992 62.8186 242.992C46.6446 242.992 31.1331 236.567 19.6964 225.13C8.25962 213.693 1.83453 198.182 1.83452 182.008L123.803 182.008Z" stroke="url(#paint0_linear_1657_11470)" stroke-width="2" stroke-linecap="round" stroke-linejoin="round"/>
<path d="M123.803 302.68C123.803 318.854 117.378 334.365 105.941 345.802C94.5042 357.239 78.9926 363.664 62.8186 363.664C46.6446 363.664 31.1331 357.239 19.6964 345.802C8.25962 334.365 1.83453 318.854 1.83452 302.68L123.803 302.68Z" stroke="url(#paint1_linear_1657_11470)" stroke-width="2" stroke-linecap="round" stroke-linejoin="round"/>
<path d="M123.803 121.672C123.803 137.846 117.378 153.358 105.941 164.794C94.5042 176.231 78.9926 182.656 62.8186 182.656C46.6446 182.656 31.1331 176.231 19.6964 164.794C8.25962 153.358 1.83453 137.846 1.83452 121.672L123.803 121.672Z" stroke="url(#paint2_linear_1657_11470)" stroke-width="2" stroke-linecap="round" stroke-linejoin="round"/>
<path d="M123.803 242.344C123.803 258.518 117.378 274.029 105.941 285.466C94.5042 296.903 78.9926 303.328 62.8186 303.328C46.6446 303.328 31.1331 296.903 19.6964 285.466C8.25962 274.029 1.83453 258.518 1.83452 242.344L123.803 242.344Z" stroke="url(#paint3_linear_1657_11470)" stroke-width="2" stroke-linecap="round" stroke-linejoin="round"/>
<path d="M123.803 61.3361C123.803 77.5101 117.378 93.0217 105.941 104.458C94.5042 115.895 78.9926 122.32 62.8186 122.32C46.6446 122.32 31.1331 115.895 19.6964 104.458C8.25962 93.0217 1.83453 77.5101 1.83452 61.3361L123.803 61.3361Z" stroke="url(#paint4_linear_1657_11470)" stroke-width="2" stroke-linecap="round" stroke-linejoin="round"/>
<path d="M123.803 0.999998C123.803 17.174 117.378 32.6855 105.941 44.1223C94.5042 55.559 78.9926 61.9841 62.8186 61.9841C46.6446 61.9841 31.1331 55.559 19.6964 44.1223C8.25962 32.6855 1.83453 17.174 1.83452 1.00001L123.803 0.999998Z" stroke="url(#paint5_linear_1657_11470)" stroke-width="2" stroke-linecap="round" stroke-linejoin="round"/>
</g>
<g opacity="0.5">
<path d="M368.637 182.008C368.637 198.182 362.212 213.693 350.775 225.13C339.339 236.567 323.827 242.992 307.653 242.992C291.479 242.992 275.967 236.567 264.531 225.13C253.094 213.693 246.669 198.182 246.669 182.008L368.637 182.008Z" stroke="url(#paint6_linear_1657_11470)" stroke-width="2" stroke-linecap="round" stroke-linejoin="round"/>
<path d="M368.637 302.68C368.637 318.854 362.212 334.365 350.775 345.802C339.339 357.239 323.827 363.664 307.653 363.664C291.479 363.664 275.967 357.239 264.531 345.802C253.094 334.365 246.669 318.854 246.669 302.68L368.637 302.68Z" stroke="url(#paint7_linear_1657_11470)" stroke-width="2" stroke-linecap="round" stroke-linejoin="round"/>
<path d="M368.637 121.672C368.637 137.846 362.212 153.358 350.775 164.794C339.339 176.231 323.827 182.656 307.653 182.656C291.479 182.656 275.967 176.231 264.531 164.794C253.094 153.358 246.669 137.846 246.669 121.672L368.637 121.672Z" stroke="url(#paint8_linear_1657_11470)" stroke-width="2" stroke-linecap="round" stroke-linejoin="round"/>
<path d="M368.637 242.344C368.637 258.518 362.212 274.029 350.775 285.466C339.339 296.903 323.827 303.328 307.653 303.328C291.479 303.328 275.967 296.903 264.531 285.466C253.094 274.029 246.669 258.518 246.669 242.344L368.637 242.344Z" stroke="url(#paint9_linear_1657_11470)" stroke-width="2" stroke-linecap="round" stroke-linejoin="round"/>
<path d="M368.637 61.3361C368.637 77.5101 362.212 93.0217 350.775 104.458C339.339 115.895 323.827 122.32 307.653 122.32C291.479 122.32 275.967 115.895 264.531 104.458C253.094 93.0217 246.669 77.5101 246.669 61.3361L368.637 61.3361Z" stroke="url(#paint10_linear_1657_11470)" stroke-width="2" stroke-linecap="round" stroke-linejoin="round"/>
<path d="M368.637 0.999998C368.637 17.174 362.212 32.6855 350.775 44.1223C339.339 55.559 323.827 61.9841 307.653 61.9841C291.479 61.9841 275.967 55.559 264.531 44.1223C253.094 32.6855 246.669 17.174 246.669 1.00001L368.637 0.999998Z" stroke="url(#paint11_linear_1657_11470)" stroke-width="2" stroke-linecap="round" stroke-linejoin="round"/>
</g>
<g opacity="0.5">
<path d="M124.453 61.9841C124.453 45.8101 130.878 30.2986 142.314 18.8618C153.751 7.42509 169.263 1 185.437 1C201.611 1 217.122 7.42509 228.559 18.8618C239.996 30.2986 246.421 45.8101 246.421 61.9841L124.453 61.9841Z" stroke="url(#paint12_linear_1657_11470)" stroke-width="2" stroke-linecap="round" stroke-linejoin="round"/>
<path d="M124.453 242.992C124.453 226.818 130.878 211.307 142.314 199.87C153.751 188.433 169.263 182.008 185.437 182.008C201.611 182.008 217.122 188.433 228.559 199.87C239.996 211.307 246.421 226.818 246.421 242.992H124.453Z" stroke="url(#paint13_linear_1657_11470)" stroke-width="2" stroke-linecap="round" stroke-linejoin="round"/>
<path d="M124.453 122.32C124.453 106.146 130.878 90.6344 142.314 79.1977C153.751 67.7609 169.263 61.3358 185.437 61.3358C201.611 61.3358 217.122 67.7609 228.559 79.1977C239.996 90.6344 246.421 106.146 246.421 122.32L124.453 122.32Z" stroke="url(#paint14_linear_1657_11470)" stroke-width="2" stroke-linecap="round" stroke-linejoin="round"/>
<path d="M124.453 303.328C124.453 287.154 130.878 271.643 142.314 260.206C153.751 248.769 169.263 242.344 185.437 242.344C201.611 242.344 217.122 248.769 228.559 260.206C239.996 271.643 246.421 287.154 246.421 303.328H124.453Z" stroke="url(#paint15_linear_1657_11470)" stroke-width="2" stroke-linecap="round" stroke-linejoin="round"/>
<path d="M124.453 182.656C124.453 166.482 130.878 150.971 142.314 139.534C153.751 128.097 169.263 121.672 185.437 121.672C201.611 121.672 217.122 128.097 228.559 139.534C239.996 150.971 246.421 166.482 246.421 182.656H124.453Z" stroke="url(#paint16_linear_1657_11470)" stroke-width="2" stroke-linecap="round" stroke-linejoin="round"/>
<path d="M124.453 363.664C124.453 347.49 130.878 331.978 142.314 320.542C153.751 309.105 169.263 302.68 185.437 302.68C201.611 302.68 217.122 309.105 228.559 320.542C239.996 331.978 246.421 347.49 246.421 363.664H124.453Z" stroke="url(#paint17_linear_1657_11470)" stroke-width="2" stroke-linecap="round" stroke-linejoin="round"/>
</g>
<g opacity="0.5">
<path d="M124.453 61.9841C124.453 45.8101 130.878 30.2986 142.314 18.8618C153.751 7.42509 169.263 1 185.437 1C201.611 1 217.122 7.42509 228.559 18.8618C239.996 30.2986 246.421 45.8101 246.421 61.9841L124.453 61.9841Z" stroke="url(#paint18_linear_1657_11470)" stroke-width="2" stroke-linecap="round" stroke-linejoin="round"/>
<path d="M124.453 242.992C124.453 226.818 130.878 211.307 142.314 199.87C153.751 188.433 169.263 182.008 185.437 182.008C201.611 182.008 217.122 188.433 228.559 199.87C239.996 211.307 246.421 226.818 246.421 242.992H124.453Z" stroke="url(#paint19_linear_1657_11470)" stroke-width="2" stroke-linecap="round" stroke-linejoin="round"/>
<path d="M124.453 122.32C124.453 106.146 130.878 90.6344 142.314 79.1977C153.751 67.7609 169.263 61.3358 185.437 61.3358C201.611 61.3358 217.122 67.7609 228.559 79.1977C239.996 90.6344 246.421 106.146 246.421 122.32L124.453 122.32Z" stroke="url(#paint20_linear_1657_11470)" stroke-width="2" stroke-linecap="round" stroke-linejoin="round"/>
<path d="M124.453 303.328C124.453 287.154 130.878 271.643 142.314 260.206C153.751 248.769 169.263 242.344 185.437 242.344C201.611 242.344 217.122 248.769 228.559 260.206C239.996 271.643 246.421 287.154 246.421 303.328H124.453Z" stroke="url(#paint21_linear_1657_11470)" stroke-width="2" stroke-linecap="round" stroke-linejoin="round"/>
<path d="M124.453 182.656C124.453 166.482 130.878 150.971 142.314 139.534C153.751 128.097 169.263 121.672 185.437 121.672C201.611 121.672 217.122 128.097 228.559 139.534C239.996 150.971 246.421 166.482 246.421 182.656H124.453Z" stroke="url(#paint22_linear_1657_11470)" stroke-width="2" stroke-linecap="round" stroke-linejoin="round"/>
<path d="M124.453 363.664C124.453 347.49 130.878 331.978 142.314 320.542C153.751 309.105 169.263 302.68 185.437 302.68C201.611 302.68 217.122 309.105 228.559 320.542C239.996 331.978 246.421 347.49 246.421 363.664H124.453Z" stroke="url(#paint23_linear_1657_11470)" stroke-width="2" stroke-linecap="round" stroke-linejoin="round"/>
</g>
<g opacity="0.5">
<path d="M368.138 61.9841C368.138 45.8101 374.563 30.2986 386 18.8618C397.436 7.42509 412.948 1 429.122 1C445.296 1 460.807 7.42509 472.244 18.8618C483.681 30.2986 490.106 45.8101 490.106 61.9841L368.138 61.9841Z" stroke="url(#paint24_linear_1657_11470)" stroke-width="2" stroke-linecap="round" stroke-linejoin="round"/>
<path d="M368.138 242.992C368.138 226.818 374.563 211.307 386 199.87C397.436 188.433 412.948 182.008 429.122 182.008C445.296 182.008 460.807 188.433 472.244 199.87C483.681 211.307 490.106 226.818 490.106 242.992H368.138Z" stroke="url(#paint25_linear_1657_11470)" stroke-width="2" stroke-linecap="round" stroke-linejoin="round"/>
<path d="M368.138 122.32C368.138 106.146 374.563 90.6344 386 79.1977C397.436 67.7609 412.948 61.3358 429.122 61.3358C445.296 61.3358 460.807 67.7609 472.244 79.1977C483.681 90.6344 490.106 106.146 490.106 122.32L368.138 122.32Z" stroke="url(#paint26_linear_1657_11470)" stroke-width="2" stroke-linecap="round" stroke-linejoin="round"/>
<path d="M368.138 303.328C368.138 287.154 374.563 271.643 386 260.206C397.436 248.769 412.948 242.344 429.122 242.344C445.296 242.344 460.807 248.769 472.244 260.206C483.681 271.643 490.106 287.154 490.106 303.328H368.138Z" stroke="url(#paint27_linear_1657_11470)" stroke-width="2" stroke-linecap="round" stroke-linejoin="round"/>
<path d="M368.138 182.656C368.138 166.482 374.563 150.971 386 139.534C397.436 128.097 412.948 121.672 429.122 121.672C445.296 121.672 460.807 128.097 472.244 139.534C483.681 150.971 490.106 166.482 490.106 182.656H368.138Z" stroke="url(#paint28_linear_1657_11470)" stroke-width="2" stroke-linecap="round" stroke-linejoin="round"/>
<path d="M368.138 363.664C368.138 347.49 374.563 331.978 386 320.542C397.436 309.105 412.948 302.68 429.122 302.68C445.296 302.68 460.807 309.105 472.244 320.542C483.681 331.978 490.106 347.49 490.106 363.664H368.138Z" stroke="url(#paint29_linear_1657_11470)" stroke-width="2" stroke-linecap="round" stroke-linejoin="round"/>
</g>
<defs>
<linearGradient id="paint0_linear_1657_11470" x1="123.803" y1="208.949" x2="7.73038" y2="207.018" gradientUnits="userSpaceOnUse">
<stop stop-color="#EA3323"/>
<stop offset="1" stop-color="#275DF3"/>
</linearGradient>
<linearGradient id="paint1_linear_1657_11470" x1="123.803" y1="329.621" x2="7.73038" y2="327.69" gradientUnits="userSpaceOnUse">
<stop stop-color="#EA3323"/>
<stop offset="1" stop-color="#275DF3"/>
</linearGradient>
<linearGradient id="paint2_linear_1657_11470" x1="123.803" y1="148.613" x2="7.73038" y2="146.682" gradientUnits="userSpaceOnUse">
<stop stop-color="#EA3323"/>
<stop offset="1" stop-color="#275DF3"/>
</linearGradient>
<linearGradient id="paint3_linear_1657_11470" x1="123.803" y1="269.285" x2="7.73038" y2="267.354" gradientUnits="userSpaceOnUse">
<stop stop-color="#EA3323"/>
<stop offset="1" stop-color="#275DF3"/>
</linearGradient>
<linearGradient id="paint4_linear_1657_11470" x1="123.803" y1="88.2772" x2="7.73038" y2="86.3464" gradientUnits="userSpaceOnUse">
<stop stop-color="#EA3323"/>
<stop offset="1" stop-color="#275DF3"/>
</linearGradient>
<linearGradient id="paint5_linear_1657_11470" x1="123.803" y1="27.9411" x2="7.73038" y2="26.0103" gradientUnits="userSpaceOnUse">
<stop stop-color="#EA3323"/>
<stop offset="1" stop-color="#275DF3"/>
</linearGradient>
<linearGradient id="paint6_linear_1657_11470" x1="368.637" y1="208.949" x2="252.565" y2="207.018" gradientUnits="userSpaceOnUse">
<stop stop-color="#EA3323"/>
<stop offset="1" stop-color="#275DF3"/>
</linearGradient>
<linearGradient id="paint7_linear_1657_11470" x1="368.637" y1="329.621" x2="252.565" y2="327.69" gradientUnits="userSpaceOnUse">
<stop stop-color="#EA3323"/>
<stop offset="1" stop-color="#275DF3"/>
</linearGradient>
<linearGradient id="paint8_linear_1657_11470" x1="368.637" y1="148.613" x2="252.565" y2="146.682" gradientUnits="userSpaceOnUse">
<stop stop-color="#EA3323"/>
<stop offset="1" stop-color="#275DF3"/>
</linearGradient>
<linearGradient id="paint9_linear_1657_11470" x1="368.637" y1="269.285" x2="252.565" y2="267.354" gradientUnits="userSpaceOnUse">
<stop stop-color="#EA3323"/>
<stop offset="1" stop-color="#275DF3"/>
</linearGradient>
<linearGradient id="paint10_linear_1657_11470" x1="368.637" y1="88.2772" x2="252.565" y2="86.3464" gradientUnits="userSpaceOnUse">
<stop stop-color="#EA3323"/>
<stop offset="1" stop-color="#275DF3"/>
</linearGradient>
<linearGradient id="paint11_linear_1657_11470" x1="368.637" y1="27.9411" x2="252.565" y2="26.0103" gradientUnits="userSpaceOnUse">
<stop stop-color="#EA3323"/>
<stop offset="1" stop-color="#275DF3"/>
</linearGradient>
<linearGradient id="paint12_linear_1657_11470" x1="124.453" y1="35.043" x2="240.525" y2="36.9739" gradientUnits="userSpaceOnUse">
<stop stop-color="#EA3323"/>
<stop offset="1" stop-color="#275DF3"/>
</linearGradient>
<linearGradient id="paint13_linear_1657_11470" x1="124.453" y1="216.051" x2="240.525" y2="217.982" gradientUnits="userSpaceOnUse">
<stop stop-color="#EA3323"/>
<stop offset="1" stop-color="#275DF3"/>
</linearGradient>
<linearGradient id="paint14_linear_1657_11470" x1="124.453" y1="95.3789" x2="240.525" y2="97.3097" gradientUnits="userSpaceOnUse">
<stop stop-color="#EA3323"/>
<stop offset="1" stop-color="#275DF3"/>
</linearGradient>
<linearGradient id="paint15_linear_1657_11470" x1="124.453" y1="276.387" x2="240.525" y2="278.318" gradientUnits="userSpaceOnUse">
<stop stop-color="#EA3323"/>
<stop offset="1" stop-color="#275DF3"/>
</linearGradient>
<linearGradient id="paint16_linear_1657_11470" x1="124.453" y1="155.715" x2="240.525" y2="157.646" gradientUnits="userSpaceOnUse">
<stop stop-color="#EA3323"/>
<stop offset="1" stop-color="#275DF3"/>
</linearGradient>
<linearGradient id="paint17_linear_1657_11470" x1="124.453" y1="336.723" x2="240.525" y2="338.654" gradientUnits="userSpaceOnUse">
<stop stop-color="#EA3323"/>
<stop offset="1" stop-color="#275DF3"/>
</linearGradient>
<linearGradient id="paint18_linear_1657_11470" x1="124.453" y1="35.043" x2="240.525" y2="36.9739" gradientUnits="userSpaceOnUse">
<stop stop-color="#EA3323"/>
<stop offset="1" stop-color="#275DF3"/>
</linearGradient>
<linearGradient id="paint19_linear_1657_11470" x1="124.453" y1="216.051" x2="240.525" y2="217.982" gradientUnits="userSpaceOnUse">
<stop stop-color="#EA3323"/>
<stop offset="1" stop-color="#275DF3"/>
</linearGradient>
<linearGradient id="paint20_linear_1657_11470" x1="124.453" y1="95.3789" x2="240.525" y2="97.3097" gradientUnits="userSpaceOnUse">
<stop stop-color="#EA3323"/>
<stop offset="1" stop-color="#275DF3"/>
</linearGradient>
<linearGradient id="paint21_linear_1657_11470" x1="124.453" y1="276.387" x2="240.525" y2="278.318" gradientUnits="userSpaceOnUse">
<stop stop-color="#EA3323"/>
<stop offset="1" stop-color="#275DF3"/>
</linearGradient>
<linearGradient id="paint22_linear_1657_11470" x1="124.453" y1="155.715" x2="240.525" y2="157.646" gradientUnits="userSpaceOnUse">
<stop stop-color="#EA3323"/>
<stop offset="1" stop-color="#275DF3"/>
</linearGradient>
<linearGradient id="paint23_linear_1657_11470" x1="124.453" y1="336.723" x2="240.525" y2="338.654" gradientUnits="userSpaceOnUse">
<stop stop-color="#EA3323"/>
<stop offset="1" stop-color="#275DF3"/>
</linearGradient>
<linearGradient id="paint24_linear_1657_11470" x1="368.138" y1="35.043" x2="484.21" y2="36.9739" gradientUnits="userSpaceOnUse">
<stop stop-color="#EA3323"/>
<stop offset="1" stop-color="#275DF3"/>
</linearGradient>
<linearGradient id="paint25_linear_1657_11470" x1="368.138" y1="216.051" x2="484.21" y2="217.982" gradientUnits="userSpaceOnUse">
<stop stop-color="#EA3323"/>
<stop offset="1" stop-color="#275DF3"/>
</linearGradient>
<linearGradient id="paint26_linear_1657_11470" x1="368.138" y1="95.3789" x2="484.21" y2="97.3097" gradientUnits="userSpaceOnUse">
<stop stop-color="#EA3323"/>
<stop offset="1" stop-color="#275DF3"/>
</linearGradient>
<linearGradient id="paint27_linear_1657_11470" x1="368.138" y1="276.387" x2="484.21" y2="278.318" gradientUnits="userSpaceOnUse">
<stop stop-color="#EA3323"/>
<stop offset="1" stop-color="#275DF3"/>
</linearGradient>
<linearGradient id="paint28_linear_1657_11470" x1="368.138" y1="155.715" x2="484.21" y2="157.646" gradientUnits="userSpaceOnUse">
<stop stop-color="#EA3323"/>
<stop offset="1" stop-color="#275DF3"/>
</linearGradient>
<linearGradient id="paint29_linear_1657_11470" x1="368.138" y1="336.723" x2="484.21" y2="338.654" gradientUnits="userSpaceOnUse">
<stop stop-color="#EA3323"/>
<stop offset="1" stop-color="#275DF3"/>
</linearGradient>
</defs>
</svg>
