<svg width="917" height="761" viewBox="0 0 917 761" fill="none" xmlns="http://www.w3.org/2000/svg">
<rect x="1" width="916" height="761" fill="#E6ECFF"/>
<g opacity="0.5">
<path d="M594.473 94.9922C594.473 78.8182 600.898 63.3067 612.335 51.8699C623.772 40.4332 639.283 34.0081 655.457 34.0081C671.631 34.0081 687.143 40.4332 698.58 51.8699C710.016 63.3066 716.441 78.8182 716.441 94.9922L594.473 94.9922Z" stroke="white" stroke-width="2" stroke-linecap="round" stroke-linejoin="round"/>
<path d="M594.473 94.9922C594.473 78.8182 600.898 63.3067 612.335 51.8699C623.772 40.4332 639.283 34.0081 655.457 34.0081C671.631 34.0081 687.143 40.4332 698.58 51.8699C710.016 63.3066 716.441 78.8182 716.441 94.9922L594.473 94.9922Z" stroke="#96C9FF" stroke-width="2" stroke-linecap="round" stroke-linejoin="round"/>
<path d="M594.473 155.328C594.473 139.154 600.898 123.642 612.335 112.206C623.772 100.769 639.283 94.3439 655.457 94.3439C671.631 94.3439 687.143 100.769 698.58 112.206C710.016 123.642 716.441 139.154 716.441 155.328L594.473 155.328Z" stroke="white" stroke-width="2" stroke-linecap="round" stroke-linejoin="round"/>
<path d="M594.473 155.328C594.473 139.154 600.898 123.642 612.335 112.206C623.772 100.769 639.283 94.3439 655.457 94.3439C671.631 94.3439 687.143 100.769 698.58 112.206C710.016 123.642 716.441 139.154 716.441 155.328L594.473 155.328Z" stroke="#96C9FF" stroke-width="2" stroke-linecap="round" stroke-linejoin="round"/>
<path d="M594.473 34.6561C594.473 18.4821 600.898 2.97053 612.335 -8.46621C623.772 -19.9029 639.283 -26.328 655.457 -26.328C671.631 -26.328 687.143 -19.903 698.58 -8.46622C710.016 2.97051 716.441 18.4821 716.441 34.656L594.473 34.6561Z" stroke="white" stroke-width="2" stroke-linecap="round" stroke-linejoin="round"/>
<path d="M594.473 34.6561C594.473 18.4821 600.898 2.97053 612.335 -8.46621C623.772 -19.9029 639.283 -26.328 655.457 -26.328C671.631 -26.328 687.143 -19.903 698.58 -8.46622C710.016 2.97051 716.441 18.4821 716.441 34.656L594.473 34.6561Z" stroke="#96C9FF" stroke-width="2" stroke-linecap="round" stroke-linejoin="round"/>
<path d="M594.473 215.664C594.473 199.49 600.898 183.978 612.335 172.542C623.772 161.105 639.283 154.68 655.457 154.68C671.631 154.68 687.143 161.105 698.58 172.542C710.016 183.978 716.441 199.49 716.441 215.664L594.473 215.664Z" stroke="white" stroke-width="2" stroke-linecap="round" stroke-linejoin="round"/>
<path d="M594.473 215.664C594.473 199.49 600.898 183.978 612.335 172.542C623.772 161.105 639.283 154.68 655.457 154.68C671.631 154.68 687.143 161.105 698.58 172.542C710.016 183.978 716.441 199.49 716.441 215.664L594.473 215.664Z" stroke="#96C9FF" stroke-width="2" stroke-linecap="round" stroke-linejoin="round"/>
<path d="M594.473 276C594.473 259.826 600.898 244.314 612.335 232.878C623.772 221.441 639.283 215.016 655.457 215.016C671.631 215.016 687.143 221.441 698.58 232.878C710.016 244.314 716.441 259.826 716.441 276L594.473 276Z" stroke="white" stroke-width="2" stroke-linecap="round" stroke-linejoin="round"/>
<path d="M594.473 276C594.473 259.826 600.898 244.314 612.335 232.878C623.772 221.441 639.283 215.016 655.457 215.016C671.631 215.016 687.143 221.441 698.58 232.878C710.016 244.314 716.441 259.826 716.441 276L594.473 276Z" stroke="#96C9FF" stroke-width="2" stroke-linecap="round" stroke-linejoin="round"/>
</g>
<g opacity="0.5">
<path d="M593.473 215.016C593.473 231.19 587.048 246.701 575.611 258.138C564.175 269.575 548.663 276 532.489 276C516.315 276 500.804 269.575 489.367 258.138C477.93 246.701 471.505 231.19 471.505 215.016L593.473 215.016Z" stroke="white" stroke-width="2" stroke-linecap="round" stroke-linejoin="round"/>
<path d="M593.473 215.016C593.473 231.19 587.048 246.701 575.611 258.138C564.175 269.575 548.663 276 532.489 276C516.315 276 500.804 269.575 489.367 258.138C477.93 246.701 471.505 231.19 471.505 215.016L593.473 215.016Z" stroke="#96C9FF" stroke-width="2" stroke-linecap="round" stroke-linejoin="round"/>
<path d="M593.473 34.0078C593.473 50.1818 587.048 65.6933 575.611 77.1301C564.175 88.5668 548.663 94.9919 532.489 94.9919C516.315 94.9919 500.804 88.5668 489.367 77.1301C477.93 65.6934 471.505 50.1818 471.505 34.0078L593.473 34.0078Z" stroke="white" stroke-width="2" stroke-linecap="round" stroke-linejoin="round"/>
<path d="M593.473 34.0078C593.473 50.1818 587.048 65.6933 575.611 77.1301C564.175 88.5668 548.663 94.9919 532.489 94.9919C516.315 94.9919 500.804 88.5668 489.367 77.1301C477.93 65.6934 471.505 50.1818 471.505 34.0078L593.473 34.0078Z" stroke="#96C9FF" stroke-width="2" stroke-linecap="round" stroke-linejoin="round"/>
<path d="M593.473 154.68C593.473 170.854 587.048 186.366 575.611 197.802C564.175 209.239 548.663 215.664 532.489 215.664C516.315 215.664 500.804 209.239 489.367 197.802C477.93 186.366 471.505 170.854 471.505 154.68L593.473 154.68Z" stroke="white" stroke-width="2" stroke-linecap="round" stroke-linejoin="round"/>
<path d="M593.473 154.68C593.473 170.854 587.048 186.366 575.611 197.802C564.175 209.239 548.663 215.664 532.489 215.664C516.315 215.664 500.804 209.239 489.367 197.802C477.93 186.366 471.505 170.854 471.505 154.68L593.473 154.68Z" stroke="#96C9FF" stroke-width="2" stroke-linecap="round" stroke-linejoin="round"/>
<path d="M593.473 -26.328C593.473 -10.154 587.048 5.3575 575.611 16.7942C564.175 28.231 548.663 34.6561 532.489 34.6561C516.315 34.6561 500.804 28.231 489.367 16.7942C477.93 5.35751 471.505 -10.154 471.505 -26.328L593.473 -26.328Z" stroke="white" stroke-width="2" stroke-linecap="round" stroke-linejoin="round"/>
<path d="M593.473 -26.328C593.473 -10.154 587.048 5.3575 575.611 16.7942C564.175 28.231 548.663 34.6561 532.489 34.6561C516.315 34.6561 500.804 28.231 489.367 16.7942C477.93 5.35751 471.505 -10.154 471.505 -26.328L593.473 -26.328Z" stroke="#96C9FF" stroke-width="2" stroke-linecap="round" stroke-linejoin="round"/>
<path d="M593.473 94.3439C593.473 110.518 587.048 126.029 575.611 137.466C564.175 148.903 548.663 155.328 532.489 155.328C516.315 155.328 500.804 148.903 489.367 137.466C477.93 126.029 471.505 110.518 471.505 94.3439L593.473 94.3439Z" stroke="white" stroke-width="2" stroke-linecap="round" stroke-linejoin="round"/>
<path d="M593.473 94.3439C593.473 110.518 587.048 126.029 575.611 137.466C564.175 148.903 548.663 155.328 532.489 155.328C516.315 155.328 500.804 148.903 489.367 137.466C477.93 126.029 471.505 110.518 471.505 94.3439L593.473 94.3439Z" stroke="#96C9FF" stroke-width="2" stroke-linecap="round" stroke-linejoin="round"/>
</g>
<g opacity="0.5">
<path d="M348.537 94.9923C348.537 78.8183 354.962 63.3067 366.398 51.87C377.835 40.4332 393.347 34.0081 409.521 34.0081C425.695 34.0081 441.206 40.4332 452.643 51.87C464.08 63.3067 470.505 78.8182 470.505 94.9922L348.537 94.9923Z" stroke="white" stroke-width="2" stroke-linecap="round" stroke-linejoin="round"/>
<path d="M348.537 94.9923C348.537 78.8183 354.962 63.3067 366.398 51.87C377.835 40.4332 393.347 34.0081 409.521 34.0081C425.695 34.0081 441.206 40.4332 452.643 51.87C464.08 63.3067 470.505 78.8182 470.505 94.9922L348.537 94.9923Z" stroke="#96C9FF" stroke-width="2" stroke-linecap="round" stroke-linejoin="round"/>
<path d="M348.537 155.328C348.537 139.154 354.962 123.643 366.398 112.206C377.835 100.769 393.347 94.344 409.521 94.344C425.695 94.344 441.206 100.769 452.643 112.206C464.08 123.643 470.505 139.154 470.505 155.328L348.537 155.328Z" stroke="white" stroke-width="2" stroke-linecap="round" stroke-linejoin="round"/>
<path d="M348.537 155.328C348.537 139.154 354.962 123.643 366.398 112.206C377.835 100.769 393.347 94.344 409.521 94.344C425.695 94.344 441.206 100.769 452.643 112.206C464.08 123.643 470.505 139.154 470.505 155.328L348.537 155.328Z" stroke="#96C9FF" stroke-width="2" stroke-linecap="round" stroke-linejoin="round"/>
<path d="M348.537 34.6561C348.537 18.4821 354.962 2.97059 366.398 -8.46615C377.835 -19.9029 393.347 -26.328 409.521 -26.328C425.695 -26.328 441.206 -19.9029 452.643 -8.46616C464.08 2.97057 470.505 18.4821 470.505 34.6561L348.537 34.6561Z" stroke="white" stroke-width="2" stroke-linecap="round" stroke-linejoin="round"/>
<path d="M348.537 34.6561C348.537 18.4821 354.962 2.97059 366.398 -8.46615C377.835 -19.9029 393.347 -26.328 409.521 -26.328C425.695 -26.328 441.206 -19.9029 452.643 -8.46616C464.08 2.97057 470.505 18.4821 470.505 34.6561L348.537 34.6561Z" stroke="#96C9FF" stroke-width="2" stroke-linecap="round" stroke-linejoin="round"/>
<path d="M348.537 215.664C348.537 199.49 354.962 183.978 366.398 172.542C377.835 161.105 393.347 154.68 409.521 154.68C425.695 154.68 441.206 161.105 452.643 172.542C464.08 183.978 470.505 199.49 470.505 215.664L348.537 215.664Z" stroke="white" stroke-width="2" stroke-linecap="round" stroke-linejoin="round"/>
<path d="M348.537 215.664C348.537 199.49 354.962 183.978 366.398 172.542C377.835 161.105 393.347 154.68 409.521 154.68C425.695 154.68 441.206 161.105 452.643 172.542C464.08 183.978 470.505 199.49 470.505 215.664L348.537 215.664Z" stroke="#96C9FF" stroke-width="2" stroke-linecap="round" stroke-linejoin="round"/>
<path d="M348.537 276C348.537 259.826 354.962 244.315 366.398 232.878C377.835 221.441 393.347 215.016 409.521 215.016C425.695 215.016 441.206 221.441 452.643 232.878C464.08 244.315 470.505 259.826 470.505 276L348.537 276Z" stroke="white" stroke-width="2" stroke-linecap="round" stroke-linejoin="round"/>
<path d="M348.537 276C348.537 259.826 354.962 244.315 366.398 232.878C377.835 221.441 393.347 215.016 409.521 215.016C425.695 215.016 441.206 221.441 452.643 232.878C464.08 244.315 470.505 259.826 470.505 276L348.537 276Z" stroke="#96C9FF" stroke-width="2" stroke-linecap="round" stroke-linejoin="round"/>
</g>
<g opacity="0.5">
<path d="M347.537 215.016C347.537 231.19 341.112 246.701 329.675 258.138C318.238 269.575 302.727 276 286.553 276C270.379 276 254.867 269.575 243.43 258.138C231.994 246.701 225.568 231.19 225.568 215.016L347.537 215.016Z" stroke="white" stroke-width="2" stroke-linecap="round" stroke-linejoin="round"/>
<path d="M347.537 215.016C347.537 231.19 341.112 246.701 329.675 258.138C318.238 269.575 302.727 276 286.553 276C270.379 276 254.867 269.575 243.43 258.138C231.994 246.701 225.568 231.19 225.568 215.016L347.537 215.016Z" stroke="#96C9FF" stroke-width="2" stroke-linecap="round" stroke-linejoin="round"/>
<path d="M347.537 34.0078C347.537 50.1818 341.112 65.6934 329.675 77.1301C318.238 88.5669 302.727 94.9919 286.553 94.9919C270.379 94.992 254.867 88.5669 243.43 77.1301C231.994 65.6934 225.568 50.1818 225.568 34.0079L347.537 34.0078Z" stroke="white" stroke-width="2" stroke-linecap="round" stroke-linejoin="round"/>
<path d="M347.537 34.0078C347.537 50.1818 341.112 65.6934 329.675 77.1301C318.238 88.5669 302.727 94.9919 286.553 94.9919C270.379 94.992 254.867 88.5669 243.43 77.1301C231.994 65.6934 225.568 50.1818 225.568 34.0079L347.537 34.0078Z" stroke="#96C9FF" stroke-width="2" stroke-linecap="round" stroke-linejoin="round"/>
<path d="M347.537 154.68C347.537 170.854 341.112 186.366 329.675 197.802C318.238 209.239 302.727 215.664 286.553 215.664C270.379 215.664 254.867 209.239 243.43 197.802C231.994 186.366 225.568 170.854 225.568 154.68L347.537 154.68Z" stroke="white" stroke-width="2" stroke-linecap="round" stroke-linejoin="round"/>
<path d="M347.537 154.68C347.537 170.854 341.112 186.366 329.675 197.802C318.238 209.239 302.727 215.664 286.553 215.664C270.379 215.664 254.867 209.239 243.43 197.802C231.994 186.366 225.568 170.854 225.568 154.68L347.537 154.68Z" stroke="#96C9FF" stroke-width="2" stroke-linecap="round" stroke-linejoin="round"/>
<path d="M347.537 -26.328C347.537 -10.154 341.112 5.35753 329.675 16.7943C318.238 28.231 302.727 34.6561 286.553 34.6561C270.379 34.6561 254.867 28.231 243.43 16.7943C231.994 5.35754 225.568 -10.154 225.568 -26.328L347.537 -26.328Z" stroke="white" stroke-width="2" stroke-linecap="round" stroke-linejoin="round"/>
<path d="M347.537 -26.328C347.537 -10.154 341.112 5.35753 329.675 16.7943C318.238 28.231 302.727 34.6561 286.553 34.6561C270.379 34.6561 254.867 28.231 243.43 16.7943C231.994 5.35754 225.568 -10.154 225.568 -26.328L347.537 -26.328Z" stroke="#96C9FF" stroke-width="2" stroke-linecap="round" stroke-linejoin="round"/>
<path d="M347.537 94.344C347.537 110.518 341.112 126.029 329.675 137.466C318.238 148.903 302.727 155.328 286.553 155.328C270.379 155.328 254.867 148.903 243.43 137.466C231.994 126.03 225.568 110.518 225.568 94.344L347.537 94.344Z" stroke="white" stroke-width="2" stroke-linecap="round" stroke-linejoin="round"/>
<path d="M347.537 94.344C347.537 110.518 341.112 126.029 329.675 137.466C318.238 148.903 302.727 155.328 286.553 155.328C270.379 155.328 254.867 148.903 243.43 137.466C231.994 126.03 225.568 110.518 225.568 94.344L347.537 94.344Z" stroke="#96C9FF" stroke-width="2" stroke-linecap="round" stroke-linejoin="round"/>
</g>
<g opacity="0.5">
<path d="M102.601 94.9923C102.601 78.8183 109.026 63.3067 120.462 51.87C131.899 40.4332 147.411 34.0081 163.585 34.0081C179.759 34.0081 195.27 40.4332 206.707 51.87C218.144 63.3067 224.569 78.8182 224.569 94.9922L102.601 94.9923Z" stroke="white" stroke-width="2" stroke-linecap="round" stroke-linejoin="round"/>
<path d="M102.601 94.9923C102.601 78.8183 109.026 63.3067 120.462 51.87C131.899 40.4332 147.411 34.0081 163.585 34.0081C179.759 34.0081 195.27 40.4332 206.707 51.87C218.144 63.3067 224.569 78.8182 224.569 94.9922L102.601 94.9923Z" stroke="#96C9FF" stroke-width="2" stroke-linecap="round" stroke-linejoin="round"/>
<path d="M102.601 155.328C102.601 139.154 109.026 123.643 120.462 112.206C131.899 100.769 147.411 94.344 163.585 94.344C179.759 94.344 195.27 100.769 206.707 112.206C218.144 123.643 224.569 139.154 224.569 155.328L102.601 155.328Z" stroke="white" stroke-width="2" stroke-linecap="round" stroke-linejoin="round"/>
<path d="M102.601 155.328C102.601 139.154 109.026 123.643 120.462 112.206C131.899 100.769 147.411 94.344 163.585 94.344C179.759 94.344 195.27 100.769 206.707 112.206C218.144 123.643 224.569 139.154 224.569 155.328L102.601 155.328Z" stroke="#96C9FF" stroke-width="2" stroke-linecap="round" stroke-linejoin="round"/>
<path d="M102.601 34.6561C102.601 18.4821 109.026 2.97059 120.462 -8.46615C131.899 -19.9029 147.411 -26.328 163.585 -26.328C179.759 -26.328 195.27 -19.9029 206.707 -8.46616C218.144 2.97057 224.569 18.4821 224.569 34.6561L102.601 34.6561Z" stroke="white" stroke-width="2" stroke-linecap="round" stroke-linejoin="round"/>
<path d="M102.601 34.6561C102.601 18.4821 109.026 2.97059 120.462 -8.46615C131.899 -19.9029 147.411 -26.328 163.585 -26.328C179.759 -26.328 195.27 -19.9029 206.707 -8.46616C218.144 2.97057 224.569 18.4821 224.569 34.6561L102.601 34.6561Z" stroke="#96C9FF" stroke-width="2" stroke-linecap="round" stroke-linejoin="round"/>
<path d="M102.601 215.664C102.601 199.49 109.026 183.978 120.462 172.542C131.899 161.105 147.411 154.68 163.585 154.68C179.759 154.68 195.27 161.105 206.707 172.542C218.144 183.978 224.569 199.49 224.569 215.664L102.601 215.664Z" stroke="white" stroke-width="2" stroke-linecap="round" stroke-linejoin="round"/>
<path d="M102.601 215.664C102.601 199.49 109.026 183.978 120.462 172.542C131.899 161.105 147.411 154.68 163.585 154.68C179.759 154.68 195.27 161.105 206.707 172.542C218.144 183.978 224.569 199.49 224.569 215.664L102.601 215.664Z" stroke="#96C9FF" stroke-width="2" stroke-linecap="round" stroke-linejoin="round"/>
<path d="M102.601 276C102.601 259.826 109.026 244.315 120.462 232.878C131.899 221.441 147.411 215.016 163.585 215.016C179.759 215.016 195.27 221.441 206.707 232.878C218.144 244.315 224.569 259.826 224.569 276L102.601 276Z" stroke="white" stroke-width="2" stroke-linecap="round" stroke-linejoin="round"/>
<path d="M102.601 276C102.601 259.826 109.026 244.315 120.462 232.878C131.899 221.441 147.411 215.016 163.585 215.016C179.759 215.016 195.27 221.441 206.707 232.878C218.144 244.315 224.569 259.826 224.569 276L102.601 276Z" stroke="#96C9FF" stroke-width="2" stroke-linecap="round" stroke-linejoin="round"/>
</g>
<g opacity="0.5">
<path d="M101.6 215.016C101.6 231.19 95.1752 246.701 83.7385 258.138C72.3018 269.575 56.7902 276 40.6162 276C24.4422 276 8.9307 269.575 -2.50604 258.138C-13.9428 246.702 -20.3679 231.19 -20.3679 215.016L101.6 215.016Z" stroke="white" stroke-width="2" stroke-linecap="round" stroke-linejoin="round"/>
<path d="M101.6 215.016C101.6 231.19 95.1752 246.701 83.7385 258.138C72.3018 269.575 56.7902 276 40.6162 276C24.4422 276 8.9307 269.575 -2.50604 258.138C-13.9428 246.702 -20.3679 231.19 -20.3679 215.016L101.6 215.016Z" stroke="#96C9FF" stroke-width="2" stroke-linecap="round" stroke-linejoin="round"/>
<path d="M101.6 34.0079C101.6 50.1819 95.1752 65.6934 83.7385 77.1301C72.3018 88.5669 56.7902 94.992 40.6162 94.992C24.4422 94.992 8.9307 88.5669 -2.50604 77.1302C-13.9428 65.6934 -20.3679 50.1819 -20.3679 34.0079L101.6 34.0079Z" stroke="white" stroke-width="2" stroke-linecap="round" stroke-linejoin="round"/>
<path d="M101.6 34.0079C101.6 50.1819 95.1752 65.6934 83.7385 77.1301C72.3018 88.5669 56.7902 94.992 40.6162 94.992C24.4422 94.992 8.9307 88.5669 -2.50604 77.1302C-13.9428 65.6934 -20.3679 50.1819 -20.3679 34.0079L101.6 34.0079Z" stroke="#96C9FF" stroke-width="2" stroke-linecap="round" stroke-linejoin="round"/>
<path d="M101.6 154.68C101.6 170.854 95.1752 186.366 83.7385 197.802C72.3018 209.239 56.7902 215.664 40.6162 215.664C24.4422 215.664 8.9307 209.239 -2.50604 197.802C-13.9428 186.366 -20.3679 170.854 -20.3679 154.68L101.6 154.68Z" stroke="white" stroke-width="2" stroke-linecap="round" stroke-linejoin="round"/>
<path d="M101.6 154.68C101.6 170.854 95.1752 186.366 83.7385 197.802C72.3018 209.239 56.7902 215.664 40.6162 215.664C24.4422 215.664 8.9307 209.239 -2.50604 197.802C-13.9428 186.366 -20.3679 170.854 -20.3679 154.68L101.6 154.68Z" stroke="#96C9FF" stroke-width="2" stroke-linecap="round" stroke-linejoin="round"/>
<path d="M101.6 -26.328C101.6 -10.154 95.1752 5.35756 83.7385 16.7943C72.3018 28.231 56.7902 34.6561 40.6162 34.6561C24.4422 34.6561 8.9307 28.231 -2.50604 16.7943C-13.9428 5.35757 -20.3679 -10.154 -20.3679 -26.328L101.6 -26.328Z" stroke="white" stroke-width="2" stroke-linecap="round" stroke-linejoin="round"/>
<path d="M101.6 -26.328C101.6 -10.154 95.1752 5.35756 83.7385 16.7943C72.3018 28.231 56.7902 34.6561 40.6162 34.6561C24.4422 34.6561 8.9307 28.231 -2.50604 16.7943C-13.9428 5.35757 -20.3679 -10.154 -20.3679 -26.328L101.6 -26.328Z" stroke="#96C9FF" stroke-width="2" stroke-linecap="round" stroke-linejoin="round"/>
<path d="M101.6 94.344C101.6 110.518 95.1752 126.03 83.7385 137.466C72.3018 148.903 56.7902 155.328 40.6162 155.328C24.4422 155.328 8.9307 148.903 -2.50604 137.466C-13.9428 126.03 -20.3679 110.518 -20.3679 94.344L101.6 94.344Z" stroke="white" stroke-width="2" stroke-linecap="round" stroke-linejoin="round"/>
<path d="M101.6 94.344C101.6 110.518 95.1752 126.03 83.7385 137.466C72.3018 148.903 56.7902 155.328 40.6162 155.328C24.4422 155.328 8.9307 148.903 -2.50604 137.466C-13.9428 126.03 -20.3679 110.518 -20.3679 94.344L101.6 94.344Z" stroke="#96C9FF" stroke-width="2" stroke-linecap="round" stroke-linejoin="round"/>
</g>
<g opacity="0.4">
<path d="M594.666 535.667C594.666 543.977 591.365 551.947 585.489 557.823C579.613 563.699 571.643 567 563.333 567C555.023 567 547.053 563.699 541.177 557.823C535.301 551.947 532 543.977 532 535.667L594.666 535.667Z" stroke="#005EF6" stroke-width="2" stroke-linecap="round" stroke-linejoin="round"/>
<path d="M594.666 504.333C594.666 512.643 591.365 520.613 585.489 526.489C579.613 532.365 571.643 535.666 563.333 535.666C555.023 535.666 547.053 532.365 541.177 526.489C535.301 520.613 532 512.643 532 504.333L594.666 504.333Z" stroke="#005EF6" stroke-width="2" stroke-linecap="round" stroke-linejoin="round"/>
<path d="M594.666 473C594.666 481.31 591.365 489.28 585.489 495.156C579.613 501.032 571.643 504.333 563.333 504.333C555.023 504.333 547.053 501.032 541.177 495.156C535.301 489.28 532 481.31 532 473L594.666 473Z" stroke="#005EF6" stroke-width="2" stroke-linecap="round" stroke-linejoin="round"/>
</g>
</svg>
