<svg width="97" height="24" viewBox="0 0 97 24" fill="none" xmlns="http://www.w3.org/2000/svg">
<path d="M38.2 6.768C39.384 6.768 40.4187 7.00267 41.304 7.472C42.1893 7.94133 42.872 8.60267 43.352 9.456C43.8427 10.2987 44.088 11.2747 44.088 12.384C44.088 13.4827 43.8427 14.4587 43.352 15.312C42.872 16.1653 42.184 16.8267 41.288 17.296C40.4027 17.7653 39.3733 18 38.2 18H33.992V6.768H38.2ZM38.024 15.632C39.0587 15.632 39.864 15.3493 40.44 14.784C41.016 14.2187 41.304 13.4187 41.304 12.384C41.304 11.3493 41.016 10.544 40.44 9.968C39.864 9.392 39.0587 9.104 38.024 9.104H36.728V15.632H38.024ZM54.033 13.392C54.033 13.648 54.017 13.9147 53.985 14.192H47.793C47.8357 14.7467 48.0117 15.1733 48.321 15.472C48.641 15.76 49.0303 15.904 49.489 15.904C50.1717 15.904 50.6463 15.616 50.913 15.04H53.825C53.6757 15.6267 53.4037 16.1547 53.009 16.624C52.625 17.0933 52.1397 17.4613 51.553 17.728C50.9663 17.9947 50.3103 18.128 49.585 18.128C48.7103 18.128 47.9317 17.9413 47.249 17.568C46.5663 17.1947 46.033 16.6613 45.649 15.968C45.265 15.2747 45.073 14.464 45.073 13.536C45.073 12.608 45.2597 11.7973 45.633 11.104C46.017 10.4107 46.5503 9.87733 47.233 9.504C47.9157 9.13067 48.6997 8.944 49.585 8.944C50.449 8.944 51.217 9.12533 51.889 9.488C52.561 9.85067 53.0837 10.368 53.457 11.04C53.841 11.712 54.033 12.496 54.033 13.392ZM51.233 12.672C51.233 12.2027 51.073 11.8293 50.753 11.552C50.433 11.2747 50.033 11.136 49.553 11.136C49.0943 11.136 48.705 11.2693 48.385 11.536C48.0757 11.8027 47.8837 12.1813 47.809 12.672H51.233ZM60.9164 8.976C61.9617 8.976 62.7937 9.31733 63.4124 10C64.0417 10.672 64.3564 11.6 64.3564 12.784V18H61.6364V13.152C61.6364 12.5547 61.4817 12.0907 61.1724 11.76C60.863 11.4293 60.447 11.264 59.9244 11.264C59.4017 11.264 58.9857 11.4293 58.6764 11.76C58.367 12.0907 58.2124 12.5547 58.2124 13.152V18H55.4764V9.072H58.2124V10.256C58.4897 9.86133 58.863 9.552 59.3324 9.328C59.8017 9.09333 60.3297 8.976 60.9164 8.976ZM71.2336 15.68V18H69.8416C68.8496 18 68.0763 17.76 67.5216 17.28C66.967 16.7893 66.6896 15.9947 66.6896 14.896V11.344H65.6016V9.072H66.6896V6.896H69.4256V9.072H71.2176V11.344H69.4256V14.928C69.4256 15.1947 69.4896 15.3867 69.6176 15.504C69.7456 15.6213 69.959 15.68 70.2576 15.68H71.2336Z" fill="#24272E"/>
<path d="M76.3896 18.128C75.611 18.128 74.9176 17.9947 74.3096 17.728C73.7016 17.4613 73.2216 17.0987 72.8696 16.64C72.5176 16.1707 72.3203 15.648 72.2776 15.072H74.9816C75.0136 15.3813 75.1576 15.632 75.4136 15.824C75.6696 16.016 75.9843 16.112 76.3576 16.112C76.699 16.112 76.9603 16.048 77.1416 15.92C77.3336 15.7813 77.4296 15.6053 77.4296 15.392C77.4296 15.136 77.2963 14.9493 77.0296 14.832C76.763 14.704 76.331 14.5653 75.7336 14.416C75.0936 14.2667 74.5603 14.112 74.1336 13.952C73.707 13.7813 73.339 13.52 73.0296 13.168C72.7203 12.8053 72.5656 12.32 72.5656 11.712C72.5656 11.2 72.7043 10.736 72.9816 10.32C73.2696 9.89333 73.6856 9.55733 74.2296 9.312C74.7843 9.06667 75.4403 8.944 76.1976 8.944C77.3176 8.944 78.1976 9.22133 78.8376 9.776C79.4883 10.3307 79.8616 11.0667 79.9576 11.984H77.4296C77.387 11.6747 77.2483 11.4293 77.0136 11.248C76.7896 11.0667 76.491 10.976 76.1176 10.976C75.7976 10.976 75.5523 11.04 75.3816 11.168C75.211 11.2853 75.1256 11.4507 75.1256 11.664C75.1256 11.92 75.259 12.112 75.5256 12.24C75.803 12.368 76.2296 12.496 76.8056 12.624C77.467 12.7947 78.0056 12.9653 78.4216 13.136C78.8376 13.296 79.2003 13.5627 79.5096 13.936C79.8296 14.2987 79.995 14.7893 80.0056 15.408C80.0056 15.9307 79.8563 16.4 79.5576 16.816C79.2696 17.2213 78.8483 17.5413 78.2936 17.776C77.7496 18.0107 77.115 18.128 76.3896 18.128ZM84.4155 6.16V18H81.6795V6.16H84.4155ZM85.8543 13.52C85.8543 12.6027 86.0249 11.7973 86.3663 11.104C86.7183 10.4107 87.1929 9.87733 87.7903 9.504C88.3876 9.13067 89.0543 8.944 89.7903 8.944C90.4196 8.944 90.9689 9.072 91.4383 9.328C91.9183 9.584 92.2863 9.92 92.5423 10.336V9.072H95.2783V18H92.5423V16.736C92.2756 17.152 91.9023 17.488 91.4223 17.744C90.9529 18 90.4036 18.128 89.7743 18.128C89.0489 18.128 88.3876 17.9413 87.7903 17.568C87.1929 17.184 86.7183 16.6453 86.3663 15.952C86.0249 15.248 85.8543 14.4373 85.8543 13.52ZM92.5423 13.536C92.5423 12.8533 92.3503 12.3147 91.9663 11.92C91.5929 11.5253 91.1343 11.328 90.5903 11.328C90.0463 11.328 89.5823 11.5253 89.1983 11.92C88.8249 12.304 88.6383 12.8373 88.6383 13.52C88.6383 14.2027 88.8249 14.7467 89.1983 15.152C89.5823 15.5467 90.0463 15.744 90.5903 15.744C91.1343 15.744 91.5929 15.5467 91.9663 15.152C92.3503 14.7573 92.5423 14.2187 92.5423 13.536Z" fill="#EA3323"/>
<path d="M28.5195 7C28.5195 10.4478 27.0698 13.7544 24.4894 16.1924C21.9089 18.6304 18.409 20 14.7597 20C11.1103 20 7.61044 18.6304 5.02996 16.1924C2.44948 13.7544 0.999785 10.4478 0.999785 7L28.5195 7Z" stroke="#EA3323" stroke-width="2" stroke-linecap="round" stroke-linejoin="round"/>
</svg>
