<svg width="43" height="37" viewBox="0 0 43 37" fill="none" xmlns="http://www.w3.org/2000/svg">
<path d="M21.2859 36.1927C15.0871 36.1927 8.88834 36.1927 2.68956 36.1927C2.38675 36.1927 2.08003 36.1927 1.77593 36.1623C0.224054 36.0216 -0.399827 35.0068 0.261904 33.6346C0.836188 32.4499 1.46268 31.2956 2.0709 30.1236C4.94232 24.6053 7.81374 19.0879 10.6852 13.5712C10.7739 13.4027 10.8666 13.2342 10.9697 13.0733C11.6928 11.9482 12.8674 11.7898 13.7928 12.7604C14.4454 13.4395 14.9975 14.2022 15.5796 14.9384C18.5381 18.6913 21.4965 22.4459 24.4549 26.2022C25.7471 27.8367 27.3746 27.9254 28.8926 26.4556C29.6457 25.7258 30.3818 24.977 31.144 24.2535C32.5184 22.9485 34.0781 23.027 35.2005 24.5487C37.4533 27.6023 39.6499 30.6963 41.857 33.7803C42.0295 34.0222 42.1616 34.289 42.2486 34.5709C42.4626 35.2792 42.1598 35.8493 41.4198 36.0381C40.9557 36.146 40.4794 36.1958 40.0023 36.1864C33.767 36.1965 27.5282 36.1986 21.2859 36.1927Z" fill="white"/>
<path d="M35.1875 5.95518C35.1859 7.13302 34.8241 8.28389 34.1479 9.26187C33.4717 10.2399 32.5116 11.0009 31.3894 11.4486C30.2671 11.8962 29.0331 12.0103 27.844 11.7763C26.6548 11.5424 25.564 10.9709 24.7099 10.1344C23.8557 9.2979 23.2766 8.23402 23.046 7.07764C22.8154 5.92126 22.9437 4.72446 23.4147 3.63896C23.8856 2.55346 24.678 1.62815 25.6913 0.980336C26.7046 0.332524 27.8933 -0.00861602 29.1066 0.000165364C30.7222 0.020096 32.2651 0.655528 33.4026 1.76948C34.5401 2.88343 35.1811 4.38668 35.1875 5.95518Z" fill="white"/>
</svg>
