<svg width="12" height="12" viewBox="0 0 12 12" fill="none" xmlns="http://www.w3.org/2000/svg">
<path d="M10.6667 5.33268H6.66675V1.33268C6.66675 1.15587 6.59651 0.986302 6.47149 0.861278C6.34646 0.736254 6.17689 0.666016 6.00008 0.666016C5.82327 0.666016 5.6537 0.736254 5.52868 0.861278C5.40365 0.986302 5.33341 1.15587 5.33341 1.33268V5.33268H1.33341C1.1566 5.33268 0.987035 5.40292 0.86201 5.52794C0.736986 5.65297 0.666748 5.82254 0.666748 5.99935C0.666748 6.17616 0.736986 6.34573 0.86201 6.47075C0.987035 6.59578 1.1566 6.66602 1.33341 6.66602H5.33341V10.666C5.33341 10.8428 5.40365 11.0124 5.52868 11.1374C5.6537 11.2624 5.82327 11.3327 6.00008 11.3327C6.17689 11.3327 6.34646 11.2624 6.47149 11.1374C6.59651 11.0124 6.66675 10.8428 6.66675 10.666V6.66602H10.6667C10.8436 6.66602 11.0131 6.59578 11.1382 6.47075C11.2632 6.34573 11.3334 6.17616 11.3334 5.99935C11.3334 5.82254 11.2632 5.65297 11.1382 5.52794C11.0131 5.40292 10.8436 5.33268 10.6667 5.33268Z" fill="#275DF3"/>
</svg>
