<svg width="14" height="14" viewBox="0 0 14 14" fill="none" xmlns="http://www.w3.org/2000/svg">
<g clip-path="url(#clip0_2730_32717)">
<path d="M12.2073 0.948365C12.1639 0.840137 12.0891 0.747391 11.9925 0.682093C11.8959 0.616795 11.782 0.581942 11.6654 0.582031H2.33203C2.21544 0.581942 2.10149 0.616795 2.00489 0.682093C1.9083 0.747391 1.83349 0.840137 1.79011 0.948365L0.623448 3.86503C0.59611 3.93411 0.582059 4.00774 0.582031 4.08203V12.832C0.582031 12.9867 0.643489 13.1351 0.752886 13.2445C0.862282 13.3539 1.01065 13.4154 1.16536 13.4154H12.832C12.9867 13.4154 13.1351 13.3539 13.2445 13.2445C13.3539 13.1351 13.4154 12.9867 13.4154 12.832V4.08203C13.4153 4.00774 13.4013 3.93411 13.3739 3.86503L12.2073 0.948365ZM2.72695 1.7487H11.2704L11.9704 3.4987H2.02695L2.72695 1.7487ZM1.7487 12.2487V4.66536H12.2487V12.2487H1.7487Z" fill="#275DF3"/>
<path d="M5.83464 9.91797H3.5013C3.34659 9.91797 3.19822 9.97943 3.08882 10.0888C2.97943 10.1982 2.91797 10.3466 2.91797 10.5013C2.91797 10.656 2.97943 10.8044 3.08882 10.9138C3.19822 11.0232 3.34659 11.0846 3.5013 11.0846H5.83464C5.98934 11.0846 6.13772 11.0232 6.24711 10.9138C6.35651 10.8044 6.41797 10.656 6.41797 10.5013C6.41797 10.3466 6.35651 10.1982 6.24711 10.0888C6.13772 9.97943 5.98934 9.91797 5.83464 9.91797Z" fill="#275DF3"/>
</g>
<defs>
<clipPath id="clip0_2730_32717">
<rect width="14" height="14" fill="white"/>
</clipPath>
</defs>
</svg>
