<svg width="725" height="722" viewBox="0 0 725 722" fill="none" xmlns="http://www.w3.org/2000/svg">
<g opacity="0.5">
<path d="M594.473 94.9922C594.473 78.8182 600.898 63.3067 612.335 51.8699C623.772 40.4332 639.283 34.0081 655.457 34.0081C671.631 34.0081 687.143 40.4332 698.58 51.8699C710.016 63.3066 716.441 78.8182 716.441 94.9922L594.473 94.9922Z" stroke="white" stroke-width="2" stroke-linecap="round" stroke-linejoin="round"/>
<path d="M594.473 94.9922C594.473 78.8182 600.898 63.3067 612.335 51.8699C623.772 40.4332 639.283 34.0081 655.457 34.0081C671.631 34.0081 687.143 40.4332 698.58 51.8699C710.016 63.3066 716.441 78.8182 716.441 94.9922L594.473 94.9922Z" stroke="#96C9FF" stroke-width="2" stroke-linecap="round" stroke-linejoin="round"/>
<path d="M594.473 155.328C594.473 139.154 600.898 123.642 612.335 112.206C623.772 100.769 639.283 94.3439 655.457 94.3439C671.631 94.3439 687.143 100.769 698.58 112.206C710.016 123.642 716.441 139.154 716.441 155.328L594.473 155.328Z" stroke="white" stroke-width="2" stroke-linecap="round" stroke-linejoin="round"/>
<path d="M594.473 155.328C594.473 139.154 600.898 123.642 612.335 112.206C623.772 100.769 639.283 94.3439 655.457 94.3439C671.631 94.3439 687.143 100.769 698.58 112.206C710.016 123.642 716.441 139.154 716.441 155.328L594.473 155.328Z" stroke="#96C9FF" stroke-width="2" stroke-linecap="round" stroke-linejoin="round"/>
<path d="M594.473 34.6561C594.473 18.4821 600.898 2.97053 612.335 -8.46621C623.772 -19.9029 639.283 -26.328 655.457 -26.328C671.631 -26.328 687.143 -19.903 698.58 -8.46622C710.016 2.97051 716.441 18.4821 716.441 34.656L594.473 34.6561Z" stroke="white" stroke-width="2" stroke-linecap="round" stroke-linejoin="round"/>
<path d="M594.473 34.6561C594.473 18.4821 600.898 2.97053 612.335 -8.46621C623.772 -19.9029 639.283 -26.328 655.457 -26.328C671.631 -26.328 687.143 -19.903 698.58 -8.46622C710.016 2.97051 716.441 18.4821 716.441 34.656L594.473 34.6561Z" stroke="#96C9FF" stroke-width="2" stroke-linecap="round" stroke-linejoin="round"/>
<path d="M594.473 215.664C594.473 199.49 600.898 183.978 612.335 172.542C623.772 161.105 639.283 154.68 655.457 154.68C671.631 154.68 687.143 161.105 698.58 172.542C710.016 183.978 716.441 199.49 716.441 215.664L594.473 215.664Z" stroke="white" stroke-width="2" stroke-linecap="round" stroke-linejoin="round"/>
<path d="M594.473 215.664C594.473 199.49 600.898 183.978 612.335 172.542C623.772 161.105 639.283 154.68 655.457 154.68C671.631 154.68 687.143 161.105 698.58 172.542C710.016 183.978 716.441 199.49 716.441 215.664L594.473 215.664Z" stroke="#96C9FF" stroke-width="2" stroke-linecap="round" stroke-linejoin="round"/>
<path d="M594.473 276C594.473 259.826 600.898 244.314 612.335 232.878C623.772 221.441 639.283 215.016 655.457 215.016C671.631 215.016 687.143 221.441 698.58 232.878C710.016 244.314 716.441 259.826 716.441 276L594.473 276Z" stroke="white" stroke-width="2" stroke-linecap="round" stroke-linejoin="round"/>
<path d="M594.473 276C594.473 259.826 600.898 244.314 612.335 232.878C623.772 221.441 639.283 215.016 655.457 215.016C671.631 215.016 687.143 221.441 698.58 232.878C710.016 244.314 716.441 259.826 716.441 276L594.473 276Z" stroke="#96C9FF" stroke-width="2" stroke-linecap="round" stroke-linejoin="round"/>
</g>
<g opacity="0.5">
<path d="M593.473 215.016C593.473 231.19 587.048 246.701 575.611 258.138C564.175 269.575 548.663 276 532.489 276C516.315 276 500.804 269.575 489.367 258.138C477.93 246.701 471.505 231.19 471.505 215.016L593.473 215.016Z" stroke="white" stroke-width="2" stroke-linecap="round" stroke-linejoin="round"/>
<path d="M593.473 215.016C593.473 231.19 587.048 246.701 575.611 258.138C564.175 269.575 548.663 276 532.489 276C516.315 276 500.804 269.575 489.367 258.138C477.93 246.701 471.505 231.19 471.505 215.016L593.473 215.016Z" stroke="#96C9FF" stroke-width="2" stroke-linecap="round" stroke-linejoin="round"/>
<path d="M593.473 34.0078C593.473 50.1818 587.048 65.6933 575.611 77.1301C564.175 88.5668 548.663 94.9919 532.489 94.9919C516.315 94.9919 500.804 88.5668 489.367 77.1301C477.93 65.6934 471.505 50.1818 471.505 34.0078L593.473 34.0078Z" stroke="white" stroke-width="2" stroke-linecap="round" stroke-linejoin="round"/>
<path d="M593.473 34.0078C593.473 50.1818 587.048 65.6933 575.611 77.1301C564.175 88.5668 548.663 94.9919 532.489 94.9919C516.315 94.9919 500.804 88.5668 489.367 77.1301C477.93 65.6934 471.505 50.1818 471.505 34.0078L593.473 34.0078Z" stroke="#96C9FF" stroke-width="2" stroke-linecap="round" stroke-linejoin="round"/>
<path d="M593.473 154.68C593.473 170.854 587.048 186.366 575.611 197.802C564.175 209.239 548.663 215.664 532.489 215.664C516.315 215.664 500.804 209.239 489.367 197.802C477.93 186.366 471.505 170.854 471.505 154.68L593.473 154.68Z" stroke="white" stroke-width="2" stroke-linecap="round" stroke-linejoin="round"/>
<path d="M593.473 154.68C593.473 170.854 587.048 186.366 575.611 197.802C564.175 209.239 548.663 215.664 532.489 215.664C516.315 215.664 500.804 209.239 489.367 197.802C477.93 186.366 471.505 170.854 471.505 154.68L593.473 154.68Z" stroke="#96C9FF" stroke-width="2" stroke-linecap="round" stroke-linejoin="round"/>
<path d="M593.473 -26.328C593.473 -10.154 587.048 5.3575 575.611 16.7942C564.175 28.231 548.663 34.6561 532.489 34.6561C516.315 34.6561 500.804 28.231 489.367 16.7942C477.93 5.35751 471.505 -10.154 471.505 -26.328L593.473 -26.328Z" stroke="white" stroke-width="2" stroke-linecap="round" stroke-linejoin="round"/>
<path d="M593.473 -26.328C593.473 -10.154 587.048 5.3575 575.611 16.7942C564.175 28.231 548.663 34.6561 532.489 34.6561C516.315 34.6561 500.804 28.231 489.367 16.7942C477.93 5.35751 471.505 -10.154 471.505 -26.328L593.473 -26.328Z" stroke="#96C9FF" stroke-width="2" stroke-linecap="round" stroke-linejoin="round"/>
<path d="M593.473 94.3439C593.473 110.518 587.048 126.029 575.611 137.466C564.175 148.903 548.663 155.328 532.489 155.328C516.315 155.328 500.804 148.903 489.367 137.466C477.93 126.029 471.505 110.518 471.505 94.3439L593.473 94.3439Z" stroke="white" stroke-width="2" stroke-linecap="round" stroke-linejoin="round"/>
<path d="M593.473 94.3439C593.473 110.518 587.048 126.029 575.611 137.466C564.175 148.903 548.663 155.328 532.489 155.328C516.315 155.328 500.804 148.903 489.367 137.466C477.93 126.029 471.505 110.518 471.505 94.3439L593.473 94.3439Z" stroke="#96C9FF" stroke-width="2" stroke-linecap="round" stroke-linejoin="round"/>
</g>
<g opacity="0.5">
<path d="M348.537 94.9923C348.537 78.8183 354.962 63.3067 366.399 51.87C377.835 40.4332 393.347 34.0081 409.521 34.0081C425.695 34.0081 441.206 40.4332 452.643 51.87C464.08 63.3067 470.505 78.8182 470.505 94.9922L348.537 94.9923Z" stroke="white" stroke-width="2" stroke-linecap="round" stroke-linejoin="round"/>
<path d="M348.537 94.9923C348.537 78.8183 354.962 63.3067 366.399 51.87C377.835 40.4332 393.347 34.0081 409.521 34.0081C425.695 34.0081 441.206 40.4332 452.643 51.87C464.08 63.3067 470.505 78.8182 470.505 94.9922L348.537 94.9923Z" stroke="#96C9FF" stroke-width="2" stroke-linecap="round" stroke-linejoin="round"/>
<path d="M348.537 155.328C348.537 139.154 354.962 123.643 366.399 112.206C377.835 100.769 393.347 94.344 409.521 94.344C425.695 94.344 441.206 100.769 452.643 112.206C464.08 123.643 470.505 139.154 470.505 155.328L348.537 155.328Z" stroke="white" stroke-width="2" stroke-linecap="round" stroke-linejoin="round"/>
<path d="M348.537 155.328C348.537 139.154 354.962 123.643 366.399 112.206C377.835 100.769 393.347 94.344 409.521 94.344C425.695 94.344 441.206 100.769 452.643 112.206C464.08 123.643 470.505 139.154 470.505 155.328L348.537 155.328Z" stroke="#96C9FF" stroke-width="2" stroke-linecap="round" stroke-linejoin="round"/>
<path d="M348.537 34.6561C348.537 18.4821 354.962 2.97059 366.399 -8.46615C377.835 -19.9029 393.347 -26.328 409.521 -26.328C425.695 -26.328 441.206 -19.9029 452.643 -8.46616C464.08 2.97057 470.505 18.4821 470.505 34.6561L348.537 34.6561Z" stroke="white" stroke-width="2" stroke-linecap="round" stroke-linejoin="round"/>
<path d="M348.537 34.6561C348.537 18.4821 354.962 2.97059 366.399 -8.46615C377.835 -19.9029 393.347 -26.328 409.521 -26.328C425.695 -26.328 441.206 -19.9029 452.643 -8.46616C464.08 2.97057 470.505 18.4821 470.505 34.6561L348.537 34.6561Z" stroke="#96C9FF" stroke-width="2" stroke-linecap="round" stroke-linejoin="round"/>
<path d="M348.537 215.664C348.537 199.49 354.962 183.978 366.399 172.542C377.835 161.105 393.347 154.68 409.521 154.68C425.695 154.68 441.206 161.105 452.643 172.542C464.08 183.978 470.505 199.49 470.505 215.664L348.537 215.664Z" stroke="white" stroke-width="2" stroke-linecap="round" stroke-linejoin="round"/>
<path d="M348.537 215.664C348.537 199.49 354.962 183.978 366.399 172.542C377.835 161.105 393.347 154.68 409.521 154.68C425.695 154.68 441.206 161.105 452.643 172.542C464.08 183.978 470.505 199.49 470.505 215.664L348.537 215.664Z" stroke="#96C9FF" stroke-width="2" stroke-linecap="round" stroke-linejoin="round"/>
<path d="M348.537 276C348.537 259.826 354.962 244.315 366.399 232.878C377.835 221.441 393.347 215.016 409.521 215.016C425.695 215.016 441.206 221.441 452.643 232.878C464.08 244.315 470.505 259.826 470.505 276L348.537 276Z" stroke="white" stroke-width="2" stroke-linecap="round" stroke-linejoin="round"/>
<path d="M348.537 276C348.537 259.826 354.962 244.315 366.399 232.878C377.835 221.441 393.347 215.016 409.521 215.016C425.695 215.016 441.206 221.441 452.643 232.878C464.08 244.315 470.505 259.826 470.505 276L348.537 276Z" stroke="#96C9FF" stroke-width="2" stroke-linecap="round" stroke-linejoin="round"/>
</g>
<g opacity="0.5">
<path d="M347.537 215.016C347.537 231.19 341.112 246.701 329.675 258.138C318.238 269.575 302.727 276 286.553 276C270.379 276 254.867 269.575 243.43 258.138C231.994 246.701 225.569 231.19 225.569 215.016L347.537 215.016Z" stroke="white" stroke-width="2" stroke-linecap="round" stroke-linejoin="round"/>
<path d="M347.537 215.016C347.537 231.19 341.112 246.701 329.675 258.138C318.238 269.575 302.727 276 286.553 276C270.379 276 254.867 269.575 243.43 258.138C231.994 246.701 225.569 231.19 225.569 215.016L347.537 215.016Z" stroke="#96C9FF" stroke-width="2" stroke-linecap="round" stroke-linejoin="round"/>
<path d="M347.537 34.0078C347.537 50.1818 341.112 65.6934 329.675 77.1301C318.238 88.5669 302.727 94.9919 286.553 94.9919C270.379 94.992 254.867 88.5669 243.43 77.1301C231.994 65.6934 225.569 50.1818 225.569 34.0079L347.537 34.0078Z" stroke="white" stroke-width="2" stroke-linecap="round" stroke-linejoin="round"/>
<path d="M347.537 34.0078C347.537 50.1818 341.112 65.6934 329.675 77.1301C318.238 88.5669 302.727 94.9919 286.553 94.9919C270.379 94.992 254.867 88.5669 243.43 77.1301C231.994 65.6934 225.569 50.1818 225.569 34.0079L347.537 34.0078Z" stroke="#96C9FF" stroke-width="2" stroke-linecap="round" stroke-linejoin="round"/>
<path d="M347.537 154.68C347.537 170.854 341.112 186.366 329.675 197.802C318.238 209.239 302.727 215.664 286.553 215.664C270.379 215.664 254.867 209.239 243.43 197.802C231.994 186.366 225.569 170.854 225.569 154.68L347.537 154.68Z" stroke="white" stroke-width="2" stroke-linecap="round" stroke-linejoin="round"/>
<path d="M347.537 154.68C347.537 170.854 341.112 186.366 329.675 197.802C318.238 209.239 302.727 215.664 286.553 215.664C270.379 215.664 254.867 209.239 243.43 197.802C231.994 186.366 225.569 170.854 225.569 154.68L347.537 154.68Z" stroke="#96C9FF" stroke-width="2" stroke-linecap="round" stroke-linejoin="round"/>
<path d="M347.537 -26.328C347.537 -10.154 341.112 5.35753 329.675 16.7943C318.238 28.231 302.727 34.6561 286.553 34.6561C270.379 34.6561 254.867 28.231 243.43 16.7943C231.994 5.35754 225.569 -10.154 225.569 -26.328L347.537 -26.328Z" stroke="white" stroke-width="2" stroke-linecap="round" stroke-linejoin="round"/>
<path d="M347.537 -26.328C347.537 -10.154 341.112 5.35753 329.675 16.7943C318.238 28.231 302.727 34.6561 286.553 34.6561C270.379 34.6561 254.867 28.231 243.43 16.7943C231.994 5.35754 225.569 -10.154 225.569 -26.328L347.537 -26.328Z" stroke="#96C9FF" stroke-width="2" stroke-linecap="round" stroke-linejoin="round"/>
<path d="M347.537 94.344C347.537 110.518 341.112 126.029 329.675 137.466C318.238 148.903 302.727 155.328 286.553 155.328C270.379 155.328 254.867 148.903 243.43 137.466C231.994 126.03 225.569 110.518 225.569 94.344L347.537 94.344Z" stroke="white" stroke-width="2" stroke-linecap="round" stroke-linejoin="round"/>
<path d="M347.537 94.344C347.537 110.518 341.112 126.029 329.675 137.466C318.238 148.903 302.727 155.328 286.553 155.328C270.379 155.328 254.867 148.903 243.43 137.466C231.994 126.03 225.569 110.518 225.569 94.344L347.537 94.344Z" stroke="#96C9FF" stroke-width="2" stroke-linecap="round" stroke-linejoin="round"/>
</g>
<g opacity="0.5">
<path d="M102.6 94.9923C102.6 78.8183 109.026 63.3067 120.462 51.87C131.899 40.4332 147.411 34.0081 163.585 34.0081C179.759 34.0081 195.27 40.4332 206.707 51.87C218.144 63.3067 224.569 78.8182 224.569 94.9922L102.6 94.9923Z" stroke="white" stroke-width="2" stroke-linecap="round" stroke-linejoin="round"/>
<path d="M102.6 94.9923C102.6 78.8183 109.026 63.3067 120.462 51.87C131.899 40.4332 147.411 34.0081 163.585 34.0081C179.759 34.0081 195.27 40.4332 206.707 51.87C218.144 63.3067 224.569 78.8182 224.569 94.9922L102.6 94.9923Z" stroke="#96C9FF" stroke-width="2" stroke-linecap="round" stroke-linejoin="round"/>
<path d="M102.6 155.328C102.6 139.154 109.026 123.643 120.462 112.206C131.899 100.769 147.411 94.344 163.585 94.344C179.759 94.344 195.27 100.769 206.707 112.206C218.144 123.643 224.569 139.154 224.569 155.328L102.6 155.328Z" stroke="white" stroke-width="2" stroke-linecap="round" stroke-linejoin="round"/>
<path d="M102.6 155.328C102.6 139.154 109.026 123.643 120.462 112.206C131.899 100.769 147.411 94.344 163.585 94.344C179.759 94.344 195.27 100.769 206.707 112.206C218.144 123.643 224.569 139.154 224.569 155.328L102.6 155.328Z" stroke="#96C9FF" stroke-width="2" stroke-linecap="round" stroke-linejoin="round"/>
<path d="M102.6 34.6561C102.6 18.4821 109.026 2.97059 120.462 -8.46615C131.899 -19.9029 147.411 -26.328 163.585 -26.328C179.758 -26.328 195.27 -19.9029 206.707 -8.46616C218.144 2.97057 224.569 18.4821 224.569 34.6561L102.6 34.6561Z" stroke="white" stroke-width="2" stroke-linecap="round" stroke-linejoin="round"/>
<path d="M102.6 34.6561C102.6 18.4821 109.026 2.97059 120.462 -8.46615C131.899 -19.9029 147.411 -26.328 163.585 -26.328C179.758 -26.328 195.27 -19.9029 206.707 -8.46616C218.144 2.97057 224.569 18.4821 224.569 34.6561L102.6 34.6561Z" stroke="#96C9FF" stroke-width="2" stroke-linecap="round" stroke-linejoin="round"/>
<path d="M102.6 215.664C102.6 199.49 109.026 183.978 120.462 172.542C131.899 161.105 147.411 154.68 163.585 154.68C179.759 154.68 195.27 161.105 206.707 172.542C218.144 183.978 224.569 199.49 224.569 215.664L102.6 215.664Z" stroke="white" stroke-width="2" stroke-linecap="round" stroke-linejoin="round"/>
<path d="M102.6 215.664C102.6 199.49 109.026 183.978 120.462 172.542C131.899 161.105 147.411 154.68 163.585 154.68C179.759 154.68 195.27 161.105 206.707 172.542C218.144 183.978 224.569 199.49 224.569 215.664L102.6 215.664Z" stroke="#96C9FF" stroke-width="2" stroke-linecap="round" stroke-linejoin="round"/>
<path d="M102.6 276C102.6 259.826 109.026 244.315 120.462 232.878C131.899 221.441 147.411 215.016 163.585 215.016C179.759 215.016 195.27 221.441 206.707 232.878C218.144 244.315 224.569 259.826 224.569 276L102.6 276Z" stroke="white" stroke-width="2" stroke-linecap="round" stroke-linejoin="round"/>
<path d="M102.6 276C102.6 259.826 109.026 244.315 120.462 232.878C131.899 221.441 147.411 215.016 163.585 215.016C179.759 215.016 195.27 221.441 206.707 232.878C218.144 244.315 224.569 259.826 224.569 276L102.6 276Z" stroke="#96C9FF" stroke-width="2" stroke-linecap="round" stroke-linejoin="round"/>
</g>
<g opacity="0.5">
<path d="M101.6 215.016C101.6 231.19 95.1752 246.701 83.7384 258.138C72.3017 269.575 56.7902 276 40.6162 276C24.4422 276 8.93064 269.575 -2.5061 258.138C-13.9428 246.702 -20.3679 231.19 -20.3679 215.016L101.6 215.016Z" stroke="white" stroke-width="2" stroke-linecap="round" stroke-linejoin="round"/>
<path d="M101.6 215.016C101.6 231.19 95.1752 246.701 83.7384 258.138C72.3017 269.575 56.7902 276 40.6162 276C24.4422 276 8.93064 269.575 -2.5061 258.138C-13.9428 246.702 -20.3679 231.19 -20.3679 215.016L101.6 215.016Z" stroke="#96C9FF" stroke-width="2" stroke-linecap="round" stroke-linejoin="round"/>
<path d="M101.6 34.0079C101.6 50.1819 95.1752 65.6934 83.7384 77.1301C72.3017 88.5669 56.7902 94.992 40.6162 94.992C24.4422 94.992 8.93064 88.5669 -2.5061 77.1302C-13.9428 65.6934 -20.3679 50.1819 -20.3679 34.0079L101.6 34.0079Z" stroke="white" stroke-width="2" stroke-linecap="round" stroke-linejoin="round"/>
<path d="M101.6 34.0079C101.6 50.1819 95.1752 65.6934 83.7384 77.1301C72.3017 88.5669 56.7902 94.992 40.6162 94.992C24.4422 94.992 8.93064 88.5669 -2.5061 77.1302C-13.9428 65.6934 -20.3679 50.1819 -20.3679 34.0079L101.6 34.0079Z" stroke="#96C9FF" stroke-width="2" stroke-linecap="round" stroke-linejoin="round"/>
<path d="M101.6 154.68C101.6 170.854 95.1752 186.366 83.7384 197.802C72.3017 209.239 56.7902 215.664 40.6162 215.664C24.4422 215.664 8.93064 209.239 -2.5061 197.802C-13.9428 186.366 -20.3679 170.854 -20.3679 154.68L101.6 154.68Z" stroke="white" stroke-width="2" stroke-linecap="round" stroke-linejoin="round"/>
<path d="M101.6 154.68C101.6 170.854 95.1752 186.366 83.7384 197.802C72.3017 209.239 56.7902 215.664 40.6162 215.664C24.4422 215.664 8.93064 209.239 -2.5061 197.802C-13.9428 186.366 -20.3679 170.854 -20.3679 154.68L101.6 154.68Z" stroke="#96C9FF" stroke-width="2" stroke-linecap="round" stroke-linejoin="round"/>
<path d="M101.6 -26.328C101.6 -10.154 95.1752 5.35756 83.7384 16.7943C72.3017 28.231 56.7901 34.6561 40.6161 34.6561C24.4422 34.6561 8.93061 28.231 -2.50613 16.7943C-13.9429 5.35757 -20.368 -10.154 -20.368 -26.328L101.6 -26.328Z" stroke="white" stroke-width="2" stroke-linecap="round" stroke-linejoin="round"/>
<path d="M101.6 -26.328C101.6 -10.154 95.1752 5.35756 83.7384 16.7943C72.3017 28.231 56.7901 34.6561 40.6161 34.6561C24.4422 34.6561 8.93061 28.231 -2.50613 16.7943C-13.9429 5.35757 -20.368 -10.154 -20.368 -26.328L101.6 -26.328Z" stroke="#96C9FF" stroke-width="2" stroke-linecap="round" stroke-linejoin="round"/>
<path d="M101.6 94.344C101.6 110.518 95.1752 126.03 83.7384 137.466C72.3017 148.903 56.7902 155.328 40.6162 155.328C24.4422 155.328 8.93064 148.903 -2.5061 137.466C-13.9428 126.03 -20.3679 110.518 -20.3679 94.344L101.6 94.344Z" stroke="white" stroke-width="2" stroke-linecap="round" stroke-linejoin="round"/>
<path d="M101.6 94.344C101.6 110.518 95.1752 126.03 83.7384 137.466C72.3017 148.903 56.7902 155.328 40.6162 155.328C24.4422 155.328 8.93064 148.903 -2.5061 137.466C-13.9428 126.03 -20.3679 110.518 -20.3679 94.344L101.6 94.344Z" stroke="#96C9FF" stroke-width="2" stroke-linecap="round" stroke-linejoin="round"/>
</g>
<g opacity="0.5">
<path d="M601.809 358.984C601.809 342.81 608.234 327.299 619.671 315.862C631.108 304.425 646.619 298 662.793 298C678.967 298 694.479 304.425 705.916 315.862C717.352 327.299 723.778 342.81 723.778 358.984L601.809 358.984Z" stroke="white" stroke-width="2" stroke-linecap="round" stroke-linejoin="round"/>
<path d="M601.809 358.984C601.809 342.81 608.234 327.299 619.671 315.862C631.108 304.425 646.619 298 662.793 298C678.967 298 694.479 304.425 705.916 315.862C717.352 327.299 723.778 342.81 723.778 358.984L601.809 358.984Z" stroke="#96C9FF" stroke-width="2" stroke-linecap="round" stroke-linejoin="round"/>
<path d="M601.809 539.992C601.809 523.818 608.234 508.307 619.671 496.87C631.108 485.433 646.62 479.008 662.793 479.008C678.967 479.008 694.479 485.433 705.916 496.87C717.353 508.307 723.778 523.818 723.778 539.992L601.809 539.992Z" stroke="white" stroke-width="2" stroke-linecap="round" stroke-linejoin="round"/>
<path d="M601.809 539.992C601.809 523.818 608.234 508.307 619.671 496.87C631.108 485.433 646.62 479.008 662.793 479.008C678.967 479.008 694.479 485.433 705.916 496.87C717.353 508.307 723.778 523.818 723.778 539.992L601.809 539.992Z" stroke="#96C9FF" stroke-width="2" stroke-linecap="round" stroke-linejoin="round"/>
<path d="M601.809 419.32C601.809 403.146 608.234 387.635 619.671 376.198C631.108 364.761 646.62 358.336 662.793 358.336C678.967 358.336 694.479 364.761 705.916 376.198C717.353 387.635 723.778 403.146 723.778 419.32L601.809 419.32Z" stroke="white" stroke-width="2" stroke-linecap="round" stroke-linejoin="round"/>
<path d="M601.809 419.32C601.809 403.146 608.234 387.635 619.671 376.198C631.108 364.761 646.62 358.336 662.793 358.336C678.967 358.336 694.479 364.761 705.916 376.198C717.353 387.635 723.778 403.146 723.778 419.32L601.809 419.32Z" stroke="#96C9FF" stroke-width="2" stroke-linecap="round" stroke-linejoin="round"/>
<path d="M601.809 600.328C601.809 584.154 608.234 568.643 619.671 557.206C631.108 545.769 646.62 539.344 662.793 539.344C678.967 539.344 694.479 545.769 705.916 557.206C717.353 568.642 723.778 584.154 723.778 600.328L601.809 600.328Z" stroke="white" stroke-width="2" stroke-linecap="round" stroke-linejoin="round"/>
<path d="M601.809 600.328C601.809 584.154 608.234 568.643 619.671 557.206C631.108 545.769 646.62 539.344 662.793 539.344C678.967 539.344 694.479 545.769 705.916 557.206C717.353 568.642 723.778 584.154 723.778 600.328L601.809 600.328Z" stroke="#96C9FF" stroke-width="2" stroke-linecap="round" stroke-linejoin="round"/>
<path d="M601.809 479.656C601.809 463.482 608.234 447.971 619.671 436.534C631.108 425.097 646.62 418.672 662.793 418.672C678.967 418.672 694.479 425.097 705.916 436.534C717.353 447.971 723.778 463.482 723.778 479.656L601.809 479.656Z" stroke="white" stroke-width="2" stroke-linecap="round" stroke-linejoin="round"/>
<path d="M601.809 479.656C601.809 463.482 608.234 447.971 619.671 436.534C631.108 425.097 646.62 418.672 662.793 418.672C678.967 418.672 694.479 425.097 705.916 436.534C717.353 447.971 723.778 463.482 723.778 479.656L601.809 479.656Z" stroke="#96C9FF" stroke-width="2" stroke-linecap="round" stroke-linejoin="round"/>
<path d="M601.809 660.664C601.809 644.49 608.235 628.978 619.671 617.542C631.108 606.105 646.62 599.68 662.794 599.68C678.968 599.68 694.479 606.105 705.916 617.542C717.353 628.978 723.778 644.49 723.778 660.664L601.809 660.664Z" stroke="white" stroke-width="2" stroke-linecap="round" stroke-linejoin="round"/>
<path d="M601.809 660.664C601.809 644.49 608.235 628.978 619.671 617.542C631.108 606.105 646.62 599.68 662.794 599.68C678.968 599.68 694.479 606.105 705.916 617.542C717.353 628.978 723.778 644.49 723.778 660.664L601.809 660.664Z" stroke="#96C9FF" stroke-width="2" stroke-linecap="round" stroke-linejoin="round"/>
<path d="M601.809 721C601.809 704.826 608.235 689.314 619.671 677.878C631.108 666.441 646.62 660.016 662.794 660.016C678.968 660.016 694.479 666.441 705.916 677.878C717.353 689.314 723.778 704.826 723.778 721L601.809 721Z" stroke="white" stroke-width="2" stroke-linecap="round" stroke-linejoin="round"/>
<path d="M601.809 721C601.809 704.826 608.235 689.314 619.671 677.878C631.108 666.441 646.62 660.016 662.794 660.016C678.968 660.016 694.479 666.441 705.916 677.878C717.353 689.314 723.778 704.826 723.778 721L601.809 721Z" stroke="#96C9FF" stroke-width="2" stroke-linecap="round" stroke-linejoin="round"/>
</g>
<g opacity="0.5">
<path d="M600.809 660.016C600.809 676.19 594.384 691.701 582.947 703.138C571.511 714.575 555.999 721 539.825 721C523.651 721 508.14 714.575 496.703 703.138C485.266 691.701 478.841 676.19 478.841 660.016L600.809 660.016Z" stroke="white" stroke-width="2" stroke-linecap="round" stroke-linejoin="round"/>
<path d="M600.809 660.016C600.809 676.19 594.384 691.701 582.947 703.138C571.511 714.575 555.999 721 539.825 721C523.651 721 508.14 714.575 496.703 703.138C485.266 691.701 478.841 676.19 478.841 660.016L600.809 660.016Z" stroke="#96C9FF" stroke-width="2" stroke-linecap="round" stroke-linejoin="round"/>
<path d="M600.809 479.008C600.809 495.182 594.384 510.693 582.948 522.13C571.511 533.567 555.999 539.992 539.825 539.992C523.651 539.992 508.14 533.567 496.703 522.13C485.266 510.693 478.841 495.182 478.841 479.008L600.809 479.008Z" stroke="white" stroke-width="2" stroke-linecap="round" stroke-linejoin="round"/>
<path d="M600.809 479.008C600.809 495.182 594.384 510.693 582.948 522.13C571.511 533.567 555.999 539.992 539.825 539.992C523.651 539.992 508.14 533.567 496.703 522.13C485.266 510.693 478.841 495.182 478.841 479.008L600.809 479.008Z" stroke="#96C9FF" stroke-width="2" stroke-linecap="round" stroke-linejoin="round"/>
<path d="M600.809 599.68C600.809 615.854 594.384 631.366 582.948 642.802C571.511 654.239 555.999 660.664 539.825 660.664C523.651 660.664 508.14 654.239 496.703 642.802C485.266 631.366 478.841 615.854 478.841 599.68L600.809 599.68Z" stroke="white" stroke-width="2" stroke-linecap="round" stroke-linejoin="round"/>
<path d="M600.809 599.68C600.809 615.854 594.384 631.366 582.948 642.802C571.511 654.239 555.999 660.664 539.825 660.664C523.651 660.664 508.14 654.239 496.703 642.802C485.266 631.366 478.841 615.854 478.841 599.68L600.809 599.68Z" stroke="#96C9FF" stroke-width="2" stroke-linecap="round" stroke-linejoin="round"/>
<path d="M600.809 418.672C600.809 434.846 594.384 450.358 582.948 461.794C571.511 473.231 555.999 479.656 539.825 479.656C523.651 479.656 508.14 473.231 496.703 461.794C485.266 450.358 478.841 434.846 478.841 418.672L600.809 418.672Z" stroke="white" stroke-width="2" stroke-linecap="round" stroke-linejoin="round"/>
<path d="M600.809 418.672C600.809 434.846 594.384 450.358 582.948 461.794C571.511 473.231 555.999 479.656 539.825 479.656C523.651 479.656 508.14 473.231 496.703 461.794C485.266 450.358 478.841 434.846 478.841 418.672L600.809 418.672Z" stroke="#96C9FF" stroke-width="2" stroke-linecap="round" stroke-linejoin="round"/>
<path d="M600.809 539.344C600.809 555.518 594.384 571.029 582.948 582.466C571.511 593.903 555.999 600.328 539.825 600.328C523.651 600.328 508.14 593.903 496.703 582.466C485.266 571.029 478.841 555.518 478.841 539.344L600.809 539.344Z" stroke="white" stroke-width="2" stroke-linecap="round" stroke-linejoin="round"/>
<path d="M600.809 539.344C600.809 555.518 594.384 571.029 582.948 582.466C571.511 593.903 555.999 600.328 539.825 600.328C523.651 600.328 508.14 593.903 496.703 582.466C485.266 571.029 478.841 555.518 478.841 539.344L600.809 539.344Z" stroke="#96C9FF" stroke-width="2" stroke-linecap="round" stroke-linejoin="round"/>
<path d="M600.809 358.336C600.809 374.51 594.384 390.022 582.948 401.458C571.511 412.895 555.999 419.32 539.825 419.32C523.651 419.32 508.14 412.895 496.703 401.458C485.266 390.022 478.841 374.51 478.841 358.336L600.809 358.336Z" stroke="white" stroke-width="2" stroke-linecap="round" stroke-linejoin="round"/>
<path d="M600.809 358.336C600.809 374.51 594.384 390.022 582.948 401.458C571.511 412.895 555.999 419.32 539.825 419.32C523.651 419.32 508.14 412.895 496.703 401.458C485.266 390.022 478.841 374.51 478.841 358.336L600.809 358.336Z" stroke="#96C9FF" stroke-width="2" stroke-linecap="round" stroke-linejoin="round"/>
<path d="M600.809 298C600.809 314.174 594.384 329.686 582.948 341.122C571.511 352.559 555.999 358.984 539.825 358.984C523.651 358.984 508.14 352.559 496.703 341.122C485.266 329.686 478.841 314.174 478.841 298L600.809 298Z" stroke="white" stroke-width="2" stroke-linecap="round" stroke-linejoin="round"/>
<path d="M600.809 298C600.809 314.174 594.384 329.686 582.948 341.122C571.511 352.559 555.999 358.984 539.825 358.984C523.651 358.984 508.14 352.559 496.703 341.122C485.266 329.686 478.841 314.174 478.841 298L600.809 298Z" stroke="#96C9FF" stroke-width="2" stroke-linecap="round" stroke-linejoin="round"/>
</g>
<g opacity="0.5">
<path d="M355.873 358.984C355.873 342.81 362.298 327.299 373.735 315.862C385.171 304.425 400.683 298 416.857 298C433.031 298 448.542 304.425 459.979 315.862C471.416 327.299 477.841 342.81 477.841 358.984L355.873 358.984Z" stroke="white" stroke-width="2" stroke-linecap="round" stroke-linejoin="round"/>
<path d="M355.873 358.984C355.873 342.81 362.298 327.299 373.735 315.862C385.171 304.425 400.683 298 416.857 298C433.031 298 448.542 304.425 459.979 315.862C471.416 327.299 477.841 342.81 477.841 358.984L355.873 358.984Z" stroke="#96C9FF" stroke-width="2" stroke-linecap="round" stroke-linejoin="round"/>
<path d="M355.873 539.992C355.873 523.818 362.298 508.307 373.735 496.87C385.171 485.433 400.683 479.008 416.857 479.008C433.031 479.008 448.543 485.433 459.979 496.87C471.416 508.307 477.841 523.818 477.841 539.992L355.873 539.992Z" stroke="white" stroke-width="2" stroke-linecap="round" stroke-linejoin="round"/>
<path d="M355.873 539.992C355.873 523.818 362.298 508.307 373.735 496.87C385.171 485.433 400.683 479.008 416.857 479.008C433.031 479.008 448.543 485.433 459.979 496.87C471.416 508.307 477.841 523.818 477.841 539.992L355.873 539.992Z" stroke="#96C9FF" stroke-width="2" stroke-linecap="round" stroke-linejoin="round"/>
<path d="M355.873 419.32C355.873 403.146 362.298 387.635 373.735 376.198C385.171 364.761 400.683 358.336 416.857 358.336C433.031 358.336 448.543 364.761 459.979 376.198C471.416 387.635 477.841 403.146 477.841 419.32L355.873 419.32Z" stroke="white" stroke-width="2" stroke-linecap="round" stroke-linejoin="round"/>
<path d="M355.873 419.32C355.873 403.146 362.298 387.635 373.735 376.198C385.171 364.761 400.683 358.336 416.857 358.336C433.031 358.336 448.543 364.761 459.979 376.198C471.416 387.635 477.841 403.146 477.841 419.32L355.873 419.32Z" stroke="#96C9FF" stroke-width="2" stroke-linecap="round" stroke-linejoin="round"/>
<path d="M355.873 600.328C355.873 584.154 362.298 568.643 373.735 557.206C385.171 545.769 400.683 539.344 416.857 539.344C433.031 539.344 448.543 545.769 459.979 557.206C471.416 568.643 477.841 584.154 477.841 600.328L355.873 600.328Z" stroke="white" stroke-width="2" stroke-linecap="round" stroke-linejoin="round"/>
<path d="M355.873 600.328C355.873 584.154 362.298 568.643 373.735 557.206C385.171 545.769 400.683 539.344 416.857 539.344C433.031 539.344 448.543 545.769 459.979 557.206C471.416 568.643 477.841 584.154 477.841 600.328L355.873 600.328Z" stroke="#96C9FF" stroke-width="2" stroke-linecap="round" stroke-linejoin="round"/>
<path d="M355.873 479.656C355.873 463.482 362.298 447.971 373.735 436.534C385.171 425.097 400.683 418.672 416.857 418.672C433.031 418.672 448.543 425.097 459.979 436.534C471.416 447.971 477.841 463.482 477.841 479.656L355.873 479.656Z" stroke="white" stroke-width="2" stroke-linecap="round" stroke-linejoin="round"/>
<path d="M355.873 479.656C355.873 463.482 362.298 447.971 373.735 436.534C385.171 425.097 400.683 418.672 416.857 418.672C433.031 418.672 448.543 425.097 459.979 436.534C471.416 447.971 477.841 463.482 477.841 479.656L355.873 479.656Z" stroke="#96C9FF" stroke-width="2" stroke-linecap="round" stroke-linejoin="round"/>
<path d="M355.873 660.664C355.873 644.49 362.298 628.978 373.735 617.542C385.171 606.105 400.683 599.68 416.857 599.68C433.031 599.68 448.543 606.105 459.979 617.542C471.416 628.978 477.841 644.49 477.841 660.664L355.873 660.664Z" stroke="white" stroke-width="2" stroke-linecap="round" stroke-linejoin="round"/>
<path d="M355.873 660.664C355.873 644.49 362.298 628.978 373.735 617.542C385.171 606.105 400.683 599.68 416.857 599.68C433.031 599.68 448.543 606.105 459.979 617.542C471.416 628.978 477.841 644.49 477.841 660.664L355.873 660.664Z" stroke="#96C9FF" stroke-width="2" stroke-linecap="round" stroke-linejoin="round"/>
<path d="M355.873 721C355.873 704.826 362.298 689.314 373.735 677.878C385.171 666.441 400.683 660.016 416.857 660.016C433.031 660.016 448.543 666.441 459.979 677.878C471.416 689.314 477.841 704.826 477.841 721L355.873 721Z" stroke="white" stroke-width="2" stroke-linecap="round" stroke-linejoin="round"/>
<path d="M355.873 721C355.873 704.826 362.298 689.314 373.735 677.878C385.171 666.441 400.683 660.016 416.857 660.016C433.031 660.016 448.543 666.441 459.979 677.878C471.416 689.314 477.841 704.826 477.841 721L355.873 721Z" stroke="#96C9FF" stroke-width="2" stroke-linecap="round" stroke-linejoin="round"/>
</g>
<g opacity="0.5">
<path d="M354.873 660.016C354.873 676.19 348.448 691.701 337.011 703.138C325.574 714.575 310.063 721 293.889 721C277.715 721 262.203 714.575 250.767 703.138C239.33 691.701 232.905 676.19 232.905 660.016L354.873 660.016Z" stroke="white" stroke-width="2" stroke-linecap="round" stroke-linejoin="round"/>
<path d="M354.873 660.016C354.873 676.19 348.448 691.701 337.011 703.138C325.574 714.575 310.063 721 293.889 721C277.715 721 262.203 714.575 250.767 703.138C239.33 691.701 232.905 676.19 232.905 660.016L354.873 660.016Z" stroke="#96C9FF" stroke-width="2" stroke-linecap="round" stroke-linejoin="round"/>
<path d="M354.873 479.008C354.873 495.182 348.448 510.693 337.011 522.13C325.574 533.567 310.063 539.992 293.889 539.992C277.715 539.992 262.203 533.567 250.767 522.13C239.33 510.693 232.905 495.182 232.905 479.008L354.873 479.008Z" stroke="white" stroke-width="2" stroke-linecap="round" stroke-linejoin="round"/>
<path d="M354.873 479.008C354.873 495.182 348.448 510.693 337.011 522.13C325.574 533.567 310.063 539.992 293.889 539.992C277.715 539.992 262.203 533.567 250.767 522.13C239.33 510.693 232.905 495.182 232.905 479.008L354.873 479.008Z" stroke="#96C9FF" stroke-width="2" stroke-linecap="round" stroke-linejoin="round"/>
<path d="M354.873 599.68C354.873 615.854 348.448 631.366 337.011 642.802C325.574 654.239 310.063 660.664 293.889 660.664C277.715 660.664 262.203 654.239 250.767 642.802C239.33 631.366 232.905 615.854 232.905 599.68L354.873 599.68Z" stroke="white" stroke-width="2" stroke-linecap="round" stroke-linejoin="round"/>
<path d="M354.873 599.68C354.873 615.854 348.448 631.366 337.011 642.802C325.574 654.239 310.063 660.664 293.889 660.664C277.715 660.664 262.203 654.239 250.767 642.802C239.33 631.366 232.905 615.854 232.905 599.68L354.873 599.68Z" stroke="#96C9FF" stroke-width="2" stroke-linecap="round" stroke-linejoin="round"/>
<path d="M354.873 418.672C354.873 434.846 348.448 450.358 337.011 461.794C325.574 473.231 310.063 479.656 293.889 479.656C277.715 479.656 262.203 473.231 250.767 461.794C239.33 450.358 232.905 434.846 232.905 418.672L354.873 418.672Z" stroke="white" stroke-width="2" stroke-linecap="round" stroke-linejoin="round"/>
<path d="M354.873 418.672C354.873 434.846 348.448 450.358 337.011 461.794C325.574 473.231 310.063 479.656 293.889 479.656C277.715 479.656 262.203 473.231 250.767 461.794C239.33 450.358 232.905 434.846 232.905 418.672L354.873 418.672Z" stroke="#96C9FF" stroke-width="2" stroke-linecap="round" stroke-linejoin="round"/>
<path d="M354.873 539.344C354.873 555.518 348.448 571.029 337.011 582.466C325.574 593.903 310.063 600.328 293.889 600.328C277.715 600.328 262.203 593.903 250.767 582.466C239.33 571.03 232.905 555.518 232.905 539.344L354.873 539.344Z" stroke="white" stroke-width="2" stroke-linecap="round" stroke-linejoin="round"/>
<path d="M354.873 539.344C354.873 555.518 348.448 571.029 337.011 582.466C325.574 593.903 310.063 600.328 293.889 600.328C277.715 600.328 262.203 593.903 250.767 582.466C239.33 571.03 232.905 555.518 232.905 539.344L354.873 539.344Z" stroke="#96C9FF" stroke-width="2" stroke-linecap="round" stroke-linejoin="round"/>
<path d="M354.873 358.336C354.873 374.51 348.448 390.022 337.011 401.458C325.574 412.895 310.063 419.32 293.889 419.32C277.715 419.32 262.203 412.895 250.767 401.458C239.33 390.022 232.905 374.51 232.905 358.336L354.873 358.336Z" stroke="white" stroke-width="2" stroke-linecap="round" stroke-linejoin="round"/>
<path d="M354.873 358.336C354.873 374.51 348.448 390.022 337.011 401.458C325.574 412.895 310.063 419.32 293.889 419.32C277.715 419.32 262.203 412.895 250.767 401.458C239.33 390.022 232.905 374.51 232.905 358.336L354.873 358.336Z" stroke="#96C9FF" stroke-width="2" stroke-linecap="round" stroke-linejoin="round"/>
<path d="M354.873 298C354.873 314.174 348.448 329.686 337.011 341.122C325.574 352.559 310.063 358.984 293.889 358.984C277.715 358.984 262.203 352.559 250.767 341.122C239.33 329.686 232.905 314.174 232.905 298L354.873 298Z" stroke="white" stroke-width="2" stroke-linecap="round" stroke-linejoin="round"/>
<path d="M354.873 298C354.873 314.174 348.448 329.686 337.011 341.122C325.574 352.559 310.063 358.984 293.889 358.984C277.715 358.984 262.203 352.559 250.767 341.122C239.33 329.686 232.905 314.174 232.905 298L354.873 298Z" stroke="#96C9FF" stroke-width="2" stroke-linecap="round" stroke-linejoin="round"/>
</g>
<g opacity="0.5">
<path d="M109.936 358.984C109.936 342.81 116.362 327.299 127.798 315.862C139.235 304.425 154.747 298 170.921 298C187.095 298 202.606 304.425 214.043 315.862C225.48 327.299 231.905 342.81 231.905 358.984L109.936 358.984Z" stroke="white" stroke-width="2" stroke-linecap="round" stroke-linejoin="round"/>
<path d="M109.936 358.984C109.936 342.81 116.362 327.299 127.798 315.862C139.235 304.425 154.747 298 170.921 298C187.095 298 202.606 304.425 214.043 315.862C225.48 327.299 231.905 342.81 231.905 358.984L109.936 358.984Z" stroke="#96C9FF" stroke-width="2" stroke-linecap="round" stroke-linejoin="round"/>
<path d="M109.937 539.992C109.937 523.818 116.362 508.307 127.798 496.87C139.235 485.433 154.747 479.008 170.921 479.008C187.095 479.008 202.606 485.433 214.043 496.87C225.48 508.307 231.905 523.818 231.905 539.992L109.937 539.992Z" stroke="white" stroke-width="2" stroke-linecap="round" stroke-linejoin="round"/>
<path d="M109.937 539.992C109.937 523.818 116.362 508.307 127.798 496.87C139.235 485.433 154.747 479.008 170.921 479.008C187.095 479.008 202.606 485.433 214.043 496.87C225.48 508.307 231.905 523.818 231.905 539.992L109.937 539.992Z" stroke="#96C9FF" stroke-width="2" stroke-linecap="round" stroke-linejoin="round"/>
<path d="M109.937 419.32C109.937 403.146 116.362 387.635 127.798 376.198C139.235 364.761 154.747 358.336 170.921 358.336C187.095 358.336 202.606 364.761 214.043 376.198C225.48 387.635 231.905 403.146 231.905 419.32L109.937 419.32Z" stroke="white" stroke-width="2" stroke-linecap="round" stroke-linejoin="round"/>
<path d="M109.937 419.32C109.937 403.146 116.362 387.635 127.798 376.198C139.235 364.761 154.747 358.336 170.921 358.336C187.095 358.336 202.606 364.761 214.043 376.198C225.48 387.635 231.905 403.146 231.905 419.32L109.937 419.32Z" stroke="#96C9FF" stroke-width="2" stroke-linecap="round" stroke-linejoin="round"/>
<path d="M109.937 600.328C109.937 584.154 116.362 568.643 127.798 557.206C139.235 545.769 154.747 539.344 170.921 539.344C187.095 539.344 202.606 545.769 214.043 557.206C225.48 568.643 231.905 584.154 231.905 600.328L109.937 600.328Z" stroke="white" stroke-width="2" stroke-linecap="round" stroke-linejoin="round"/>
<path d="M109.937 600.328C109.937 584.154 116.362 568.643 127.798 557.206C139.235 545.769 154.747 539.344 170.921 539.344C187.095 539.344 202.606 545.769 214.043 557.206C225.48 568.643 231.905 584.154 231.905 600.328L109.937 600.328Z" stroke="#96C9FF" stroke-width="2" stroke-linecap="round" stroke-linejoin="round"/>
<path d="M109.937 479.656C109.937 463.482 116.362 447.971 127.798 436.534C139.235 425.097 154.747 418.672 170.921 418.672C187.095 418.672 202.606 425.097 214.043 436.534C225.48 447.971 231.905 463.482 231.905 479.656L109.937 479.656Z" stroke="white" stroke-width="2" stroke-linecap="round" stroke-linejoin="round"/>
<path d="M109.937 479.656C109.937 463.482 116.362 447.971 127.798 436.534C139.235 425.097 154.747 418.672 170.921 418.672C187.095 418.672 202.606 425.097 214.043 436.534C225.48 447.971 231.905 463.482 231.905 479.656L109.937 479.656Z" stroke="#96C9FF" stroke-width="2" stroke-linecap="round" stroke-linejoin="round"/>
<path d="M109.937 660.664C109.937 644.49 116.362 628.978 127.798 617.542C139.235 606.105 154.747 599.68 170.921 599.68C187.095 599.68 202.606 606.105 214.043 617.542C225.48 628.978 231.905 644.49 231.905 660.664L109.937 660.664Z" stroke="white" stroke-width="2" stroke-linecap="round" stroke-linejoin="round"/>
<path d="M109.937 660.664C109.937 644.49 116.362 628.978 127.798 617.542C139.235 606.105 154.747 599.68 170.921 599.68C187.095 599.68 202.606 606.105 214.043 617.542C225.48 628.978 231.905 644.49 231.905 660.664L109.937 660.664Z" stroke="#96C9FF" stroke-width="2" stroke-linecap="round" stroke-linejoin="round"/>
<path d="M109.937 721C109.937 704.826 116.362 689.315 127.798 677.878C139.235 666.441 154.747 660.016 170.921 660.016C187.095 660.016 202.606 666.441 214.043 677.878C225.48 689.315 231.905 704.826 231.905 721L109.937 721Z" stroke="white" stroke-width="2" stroke-linecap="round" stroke-linejoin="round"/>
<path d="M109.937 721C109.937 704.826 116.362 689.315 127.798 677.878C139.235 666.441 154.747 660.016 170.921 660.016C187.095 660.016 202.606 666.441 214.043 677.878C225.48 689.315 231.905 704.826 231.905 721L109.937 721Z" stroke="#96C9FF" stroke-width="2" stroke-linecap="round" stroke-linejoin="round"/>
</g>
<g opacity="0.5">
<path d="M108.936 660.016C108.936 676.19 102.511 691.701 91.0746 703.138C79.6379 714.575 64.1263 721 47.9524 721C31.7784 721 16.2668 714.575 4.83009 703.138C-6.60665 691.702 -13.0317 676.19 -13.0317 660.016L108.936 660.016Z" stroke="white" stroke-width="2" stroke-linecap="round" stroke-linejoin="round"/>
<path d="M108.936 660.016C108.936 676.19 102.511 691.701 91.0746 703.138C79.6379 714.575 64.1263 721 47.9524 721C31.7784 721 16.2668 714.575 4.83009 703.138C-6.60665 691.702 -13.0317 676.19 -13.0317 660.016L108.936 660.016Z" stroke="#96C9FF" stroke-width="2" stroke-linecap="round" stroke-linejoin="round"/>
<path d="M108.936 479.008C108.936 495.182 102.511 510.693 91.0746 522.13C79.6379 533.567 64.1263 539.992 47.9524 539.992C31.7784 539.992 16.2668 533.567 4.83009 522.13C-6.60665 510.693 -13.0317 495.182 -13.0317 479.008L108.936 479.008Z" stroke="white" stroke-width="2" stroke-linecap="round" stroke-linejoin="round"/>
<path d="M108.936 479.008C108.936 495.182 102.511 510.693 91.0746 522.13C79.6379 533.567 64.1263 539.992 47.9524 539.992C31.7784 539.992 16.2668 533.567 4.83009 522.13C-6.60665 510.693 -13.0317 495.182 -13.0317 479.008L108.936 479.008Z" stroke="#96C9FF" stroke-width="2" stroke-linecap="round" stroke-linejoin="round"/>
<path d="M108.936 599.68C108.936 615.854 102.511 631.366 91.0746 642.802C79.6379 654.239 64.1263 660.664 47.9524 660.664C31.7784 660.664 16.2668 654.239 4.83009 642.802C-6.60665 631.366 -13.0317 615.854 -13.0317 599.68L108.936 599.68Z" stroke="white" stroke-width="2" stroke-linecap="round" stroke-linejoin="round"/>
<path d="M108.936 599.68C108.936 615.854 102.511 631.366 91.0746 642.802C79.6379 654.239 64.1263 660.664 47.9524 660.664C31.7784 660.664 16.2668 654.239 4.83009 642.802C-6.60665 631.366 -13.0317 615.854 -13.0317 599.68L108.936 599.68Z" stroke="#96C9FF" stroke-width="2" stroke-linecap="round" stroke-linejoin="round"/>
<path d="M108.936 418.672C108.936 434.846 102.511 450.358 91.0746 461.794C79.6379 473.231 64.1263 479.656 47.9523 479.656C31.7783 479.656 16.2668 473.231 4.83005 461.794C-6.60668 450.358 -13.0318 434.846 -13.0318 418.672L108.936 418.672Z" stroke="white" stroke-width="2" stroke-linecap="round" stroke-linejoin="round"/>
<path d="M108.936 418.672C108.936 434.846 102.511 450.358 91.0746 461.794C79.6379 473.231 64.1263 479.656 47.9523 479.656C31.7783 479.656 16.2668 473.231 4.83005 461.794C-6.60668 450.358 -13.0318 434.846 -13.0318 418.672L108.936 418.672Z" stroke="#96C9FF" stroke-width="2" stroke-linecap="round" stroke-linejoin="round"/>
<path d="M108.936 539.344C108.936 555.518 102.511 571.03 91.0746 582.466C79.6379 593.903 64.1263 600.328 47.9524 600.328C31.7784 600.328 16.2668 593.903 4.83009 582.466C-6.60665 571.03 -13.0317 555.518 -13.0317 539.344L108.936 539.344Z" stroke="white" stroke-width="2" stroke-linecap="round" stroke-linejoin="round"/>
<path d="M108.936 539.344C108.936 555.518 102.511 571.03 91.0746 582.466C79.6379 593.903 64.1263 600.328 47.9524 600.328C31.7784 600.328 16.2668 593.903 4.83009 582.466C-6.60665 571.03 -13.0317 555.518 -13.0317 539.344L108.936 539.344Z" stroke="#96C9FF" stroke-width="2" stroke-linecap="round" stroke-linejoin="round"/>
<path d="M108.936 358.336C108.936 374.51 102.511 390.022 91.0746 401.458C79.6379 412.895 64.1263 419.32 47.9523 419.32C31.7783 419.32 16.2668 412.895 4.83005 401.458C-6.60668 390.022 -13.0318 374.51 -13.0318 358.336L108.936 358.336Z" stroke="white" stroke-width="2" stroke-linecap="round" stroke-linejoin="round"/>
<path d="M108.936 358.336C108.936 374.51 102.511 390.022 91.0746 401.458C79.6379 412.895 64.1263 419.32 47.9523 419.32C31.7783 419.32 16.2668 412.895 4.83005 401.458C-6.60668 390.022 -13.0318 374.51 -13.0318 358.336L108.936 358.336Z" stroke="#96C9FF" stroke-width="2" stroke-linecap="round" stroke-linejoin="round"/>
<path d="M108.936 298C108.936 314.174 102.511 329.686 91.0746 341.122C79.6379 352.559 64.1263 358.984 47.9523 358.984C31.7783 358.984 16.2668 352.559 4.83005 341.122C-6.60668 329.686 -13.0318 314.174 -13.0318 298L108.936 298Z" stroke="white" stroke-width="2" stroke-linecap="round" stroke-linejoin="round"/>
<path d="M108.936 298C108.936 314.174 102.511 329.686 91.0746 341.122C79.6379 352.559 64.1263 358.984 47.9523 358.984C31.7783 358.984 16.2668 352.559 4.83005 341.122C-6.60668 329.686 -13.0318 314.174 -13.0318 298L108.936 298Z" stroke="#96C9FF" stroke-width="2" stroke-linecap="round" stroke-linejoin="round"/>
</g>
<g opacity="0.4">
<path d="M594.666 535.667C594.666 543.977 591.365 551.947 585.489 557.823C579.613 563.699 571.643 567 563.333 567C555.023 567 547.053 563.699 541.177 557.823C535.301 551.947 532 543.977 532 535.667L594.666 535.667Z" stroke="#005EF6" stroke-width="2" stroke-linecap="round" stroke-linejoin="round"/>
<path d="M594.666 504.333C594.666 512.643 591.365 520.613 585.489 526.489C579.613 532.365 571.643 535.666 563.333 535.666C555.023 535.666 547.053 532.365 541.177 526.489C535.301 520.613 532 512.643 532 504.333L594.666 504.333Z" stroke="#005EF6" stroke-width="2" stroke-linecap="round" stroke-linejoin="round"/>
<path d="M594.666 473C594.666 481.31 591.365 489.28 585.489 495.156C579.613 501.032 571.643 504.333 563.333 504.333C555.023 504.333 547.053 501.032 541.177 495.156C535.301 489.28 532 481.31 532 473L594.666 473Z" stroke="#005EF6" stroke-width="2" stroke-linecap="round" stroke-linejoin="round"/>
</g>
</svg>
