<svg width="1365" height="761" viewBox="0 0 1365 761" fill="none" xmlns="http://www.w3.org/2000/svg">
<g clip-path="url(#clip0_1628_11468)">
<rect width="1365" height="761" fill="white"/>
<g opacity="0.5">
<g opacity="0.5">
<path d="M784.393 616.008C784.393 632.182 777.973 647.693 766.545 659.13C755.116 670.567 739.616 676.992 723.454 676.992C707.292 676.992 691.792 670.567 680.363 659.13C668.935 647.693 662.515 632.182 662.515 616.008L784.393 616.008Z" stroke="url(#paint0_linear_1628_11468)" stroke-width="2" stroke-linecap="round" stroke-linejoin="round"/>
<path d="M784.393 736.68C784.393 752.854 777.973 768.365 766.545 779.802C755.116 791.239 739.616 797.664 723.454 797.664C707.292 797.664 691.792 791.239 680.363 779.802C668.935 768.365 662.515 752.854 662.515 736.68L784.393 736.68Z" stroke="url(#paint1_linear_1628_11468)" stroke-width="2" stroke-linecap="round" stroke-linejoin="round"/>
<path d="M784.393 555.672C784.393 571.846 777.973 587.358 766.545 598.794C755.116 610.231 739.616 616.656 723.454 616.656C707.292 616.656 691.792 610.231 680.363 598.794C668.935 587.358 662.515 571.846 662.515 555.672L784.393 555.672Z" stroke="url(#paint2_linear_1628_11468)" stroke-width="2" stroke-linecap="round" stroke-linejoin="round"/>
<path d="M784.393 676.344C784.393 692.518 777.973 708.029 766.545 719.466C755.116 730.903 739.616 737.328 723.454 737.328C707.292 737.328 691.792 730.903 680.363 719.466C668.935 708.029 662.515 692.518 662.515 676.344L784.393 676.344Z" stroke="url(#paint3_linear_1628_11468)" stroke-width="2" stroke-linecap="round" stroke-linejoin="round"/>
<path d="M784.393 495.336C784.393 511.51 777.973 527.022 766.545 538.458C755.116 549.895 739.616 556.32 723.454 556.32C707.292 556.32 691.792 549.895 680.363 538.458C668.935 527.022 662.515 511.51 662.515 495.336L784.393 495.336Z" stroke="url(#paint4_linear_1628_11468)" stroke-width="2" stroke-linecap="round" stroke-linejoin="round"/>
<path d="M784.393 435C784.393 451.174 777.973 466.686 766.545 478.122C755.116 489.559 739.616 495.984 723.454 495.984C707.292 495.984 691.792 489.559 680.363 478.122C668.935 466.686 662.515 451.174 662.515 435L784.393 435Z" stroke="url(#paint5_linear_1628_11468)" stroke-width="2" stroke-linecap="round" stroke-linejoin="round"/>
</g>
<g opacity="0.5">
<path d="M1029.05 616.008C1029.05 632.182 1022.63 647.693 1011.2 659.13C999.772 670.567 984.271 676.992 968.109 676.992C951.947 676.992 936.447 670.567 925.018 659.13C913.59 647.693 907.17 632.182 907.17 616.008L1029.05 616.008Z" stroke="url(#paint6_linear_1628_11468)" stroke-width="2" stroke-linecap="round" stroke-linejoin="round"/>
<path d="M1029.05 736.68C1029.05 752.854 1022.63 768.365 1011.2 779.802C999.772 791.239 984.271 797.664 968.109 797.664C951.947 797.664 936.447 791.239 925.018 779.802C913.59 768.365 907.17 752.854 907.17 736.68L1029.05 736.68Z" stroke="url(#paint7_linear_1628_11468)" stroke-width="2" stroke-linecap="round" stroke-linejoin="round"/>
<path d="M1029.05 555.672C1029.05 571.846 1022.63 587.358 1011.2 598.794C999.772 610.231 984.271 616.656 968.109 616.656C951.947 616.656 936.447 610.231 925.018 598.794C913.59 587.358 907.17 571.846 907.17 555.672L1029.05 555.672Z" stroke="url(#paint8_linear_1628_11468)" stroke-width="2" stroke-linecap="round" stroke-linejoin="round"/>
<path d="M1029.05 676.344C1029.05 692.518 1022.63 708.029 1011.2 719.466C999.772 730.903 984.271 737.328 968.109 737.328C951.947 737.328 936.447 730.903 925.018 719.466C913.59 708.029 907.17 692.518 907.17 676.344L1029.05 676.344Z" stroke="url(#paint9_linear_1628_11468)" stroke-width="2" stroke-linecap="round" stroke-linejoin="round"/>
<path d="M1029.05 495.336C1029.05 511.51 1022.63 527.022 1011.2 538.458C999.772 549.895 984.271 556.32 968.109 556.32C951.947 556.32 936.447 549.895 925.018 538.458C913.59 527.022 907.17 511.51 907.17 495.336L1029.05 495.336Z" stroke="url(#paint10_linear_1628_11468)" stroke-width="2" stroke-linecap="round" stroke-linejoin="round"/>
<path d="M1029.05 435C1029.05 451.174 1022.63 466.686 1011.2 478.122C999.772 489.559 984.271 495.984 968.109 495.984C951.947 495.984 936.447 489.559 925.018 478.122C913.59 466.686 907.17 451.174 907.17 435L1029.05 435Z" stroke="url(#paint11_linear_1628_11468)" stroke-width="2" stroke-linecap="round" stroke-linejoin="round"/>
</g>
<g opacity="0.5">
<path d="M1273.7 616.008C1273.7 632.182 1267.28 647.693 1255.86 659.13C1244.43 670.567 1228.93 676.992 1212.76 676.992C1196.6 676.992 1181.1 670.567 1169.67 659.13C1158.25 647.693 1151.82 632.182 1151.82 616.008L1273.7 616.008Z" stroke="url(#paint12_linear_1628_11468)" stroke-width="2" stroke-linecap="round" stroke-linejoin="round"/>
<path d="M1273.7 736.68C1273.7 752.854 1267.28 768.365 1255.86 779.802C1244.43 791.239 1228.93 797.664 1212.76 797.664C1196.6 797.664 1181.1 791.239 1169.67 779.802C1158.25 768.365 1151.82 752.854 1151.82 736.68L1273.7 736.68Z" stroke="url(#paint13_linear_1628_11468)" stroke-width="2" stroke-linecap="round" stroke-linejoin="round"/>
<path d="M1273.7 555.672C1273.7 571.846 1267.28 587.358 1255.86 598.794C1244.43 610.231 1228.93 616.656 1212.76 616.656C1196.6 616.656 1181.1 610.231 1169.67 598.794C1158.25 587.358 1151.82 571.846 1151.82 555.672L1273.7 555.672Z" stroke="url(#paint14_linear_1628_11468)" stroke-width="2" stroke-linecap="round" stroke-linejoin="round"/>
<path d="M1273.7 676.344C1273.7 692.518 1267.28 708.029 1255.86 719.466C1244.43 730.903 1228.93 737.328 1212.76 737.328C1196.6 737.328 1181.1 730.903 1169.67 719.466C1158.25 708.029 1151.82 692.518 1151.82 676.344L1273.7 676.344Z" stroke="url(#paint15_linear_1628_11468)" stroke-width="2" stroke-linecap="round" stroke-linejoin="round"/>
<path d="M1273.7 495.336C1273.7 511.51 1267.28 527.022 1255.86 538.458C1244.43 549.895 1228.93 556.32 1212.76 556.32C1196.6 556.32 1181.1 549.895 1169.67 538.458C1158.25 527.022 1151.82 511.51 1151.82 495.336L1273.7 495.336Z" stroke="url(#paint16_linear_1628_11468)" stroke-width="2" stroke-linecap="round" stroke-linejoin="round"/>
<path d="M1273.7 435C1273.7 451.174 1267.28 466.686 1255.86 478.122C1244.43 489.559 1228.93 495.984 1212.76 495.984C1196.6 495.984 1181.1 489.559 1169.67 478.122C1158.25 466.686 1151.82 451.174 1151.82 435L1273.7 435Z" stroke="url(#paint17_linear_1628_11468)" stroke-width="2" stroke-linecap="round" stroke-linejoin="round"/>
</g>
<g opacity="0.5">
<path d="M785.043 495.984C785.043 479.81 791.464 464.299 802.892 452.862C814.32 441.425 829.82 435 845.983 435C862.145 435 877.645 441.425 889.073 452.862C900.502 464.299 906.922 479.81 906.922 495.984H785.043Z" stroke="url(#paint18_linear_1628_11468)" stroke-width="2" stroke-linecap="round" stroke-linejoin="round"/>
<path d="M785.043 676.992C785.043 660.818 791.464 645.307 802.892 633.87C814.32 622.433 829.82 616.008 845.983 616.008C862.145 616.008 877.645 622.433 889.073 633.87C900.502 645.307 906.922 660.818 906.922 676.992H785.043Z" stroke="url(#paint19_linear_1628_11468)" stroke-width="2" stroke-linecap="round" stroke-linejoin="round"/>
<path d="M785.043 556.32C785.043 540.146 791.464 524.634 802.892 513.198C814.32 501.761 829.82 495.336 845.983 495.336C862.145 495.336 877.645 501.761 889.073 513.198C900.502 524.634 906.922 540.146 906.922 556.32H785.043Z" stroke="url(#paint20_linear_1628_11468)" stroke-width="2" stroke-linecap="round" stroke-linejoin="round"/>
<path d="M785.043 737.328C785.043 721.154 791.464 705.643 802.892 694.206C814.32 682.769 829.82 676.344 845.983 676.344C862.145 676.344 877.645 682.769 889.073 694.206C900.502 705.643 906.922 721.154 906.922 737.328H785.043Z" stroke="url(#paint21_linear_1628_11468)" stroke-width="2" stroke-linecap="round" stroke-linejoin="round"/>
<path d="M785.043 616.656C785.043 600.482 791.464 584.971 802.892 573.534C814.32 562.097 829.82 555.672 845.983 555.672C862.145 555.672 877.645 562.097 889.073 573.534C900.502 584.971 906.922 600.482 906.922 616.656H785.043Z" stroke="url(#paint22_linear_1628_11468)" stroke-width="2" stroke-linecap="round" stroke-linejoin="round"/>
<path d="M785.043 797.664C785.043 781.49 791.464 765.978 802.892 754.542C814.32 743.105 829.82 736.68 845.983 736.68C862.145 736.68 877.645 743.105 889.073 754.542C900.502 765.978 906.922 781.49 906.922 797.664H785.043Z" stroke="url(#paint23_linear_1628_11468)" stroke-width="2" stroke-linecap="round" stroke-linejoin="round"/>
</g>
<g opacity="0.5">
<path d="M1029.7 495.984C1029.7 479.81 1036.12 464.299 1047.55 452.862C1058.98 441.425 1074.48 435 1090.64 435C1106.8 435 1122.3 441.425 1133.73 452.862C1145.16 464.299 1151.58 479.81 1151.58 495.984H1029.7Z" stroke="url(#paint24_linear_1628_11468)" stroke-width="2" stroke-linecap="round" stroke-linejoin="round"/>
<path d="M1029.7 676.992C1029.7 660.818 1036.12 645.307 1047.55 633.87C1058.98 622.433 1074.48 616.008 1090.64 616.008C1106.8 616.008 1122.3 622.433 1133.73 633.87C1145.16 645.307 1151.58 660.818 1151.58 676.992H1029.7Z" stroke="url(#paint25_linear_1628_11468)" stroke-width="2" stroke-linecap="round" stroke-linejoin="round"/>
<path d="M1029.7 556.32C1029.7 540.146 1036.12 524.634 1047.55 513.198C1058.98 501.761 1074.48 495.336 1090.64 495.336C1106.8 495.336 1122.3 501.761 1133.73 513.198C1145.16 524.634 1151.58 540.146 1151.58 556.32H1029.7Z" stroke="url(#paint26_linear_1628_11468)" stroke-width="2" stroke-linecap="round" stroke-linejoin="round"/>
<path d="M1029.7 737.328C1029.7 721.154 1036.12 705.643 1047.55 694.206C1058.98 682.769 1074.48 676.344 1090.64 676.344C1106.8 676.344 1122.3 682.769 1133.73 694.206C1145.16 705.643 1151.58 721.154 1151.58 737.328H1029.7Z" stroke="url(#paint27_linear_1628_11468)" stroke-width="2" stroke-linecap="round" stroke-linejoin="round"/>
<path d="M1029.7 616.656C1029.7 600.482 1036.12 584.971 1047.55 573.534C1058.98 562.097 1074.48 555.672 1090.64 555.672C1106.8 555.672 1122.3 562.097 1133.73 573.534C1145.16 584.971 1151.58 600.482 1151.58 616.656H1029.7Z" stroke="url(#paint28_linear_1628_11468)" stroke-width="2" stroke-linecap="round" stroke-linejoin="round"/>
<path d="M1029.7 797.664C1029.7 781.49 1036.12 765.978 1047.55 754.542C1058.98 743.105 1074.48 736.68 1090.64 736.68C1106.8 736.68 1122.3 743.105 1133.73 754.542C1145.16 765.978 1151.58 781.49 1151.58 797.664H1029.7Z" stroke="url(#paint29_linear_1628_11468)" stroke-width="2" stroke-linecap="round" stroke-linejoin="round"/>
</g>
<g opacity="0.5">
<path d="M1029.7 495.984C1029.7 479.81 1036.12 464.299 1047.55 452.862C1058.98 441.425 1074.48 435 1090.64 435C1106.8 435 1122.3 441.425 1133.73 452.862C1145.16 464.299 1151.58 479.81 1151.58 495.984H1029.7Z" stroke="url(#paint30_linear_1628_11468)" stroke-width="2" stroke-linecap="round" stroke-linejoin="round"/>
<path d="M1029.7 676.992C1029.7 660.818 1036.12 645.307 1047.55 633.87C1058.98 622.433 1074.48 616.008 1090.64 616.008C1106.8 616.008 1122.3 622.433 1133.73 633.87C1145.16 645.307 1151.58 660.818 1151.58 676.992H1029.7Z" stroke="url(#paint31_linear_1628_11468)" stroke-width="2" stroke-linecap="round" stroke-linejoin="round"/>
<path d="M1029.7 556.32C1029.7 540.146 1036.12 524.634 1047.55 513.198C1058.98 501.761 1074.48 495.336 1090.64 495.336C1106.8 495.336 1122.3 501.761 1133.73 513.198C1145.16 524.634 1151.58 540.146 1151.58 556.32H1029.7Z" stroke="url(#paint32_linear_1628_11468)" stroke-width="2" stroke-linecap="round" stroke-linejoin="round"/>
<path d="M1029.7 737.328C1029.7 721.154 1036.12 705.643 1047.55 694.206C1058.98 682.769 1074.48 676.344 1090.64 676.344C1106.8 676.344 1122.3 682.769 1133.73 694.206C1145.16 705.643 1151.58 721.154 1151.58 737.328H1029.7Z" stroke="url(#paint33_linear_1628_11468)" stroke-width="2" stroke-linecap="round" stroke-linejoin="round"/>
<path d="M1029.7 616.656C1029.7 600.482 1036.12 584.971 1047.55 573.534C1058.98 562.097 1074.48 555.672 1090.64 555.672C1106.8 555.672 1122.3 562.097 1133.73 573.534C1145.16 584.971 1151.58 600.482 1151.58 616.656H1029.7Z" stroke="url(#paint34_linear_1628_11468)" stroke-width="2" stroke-linecap="round" stroke-linejoin="round"/>
<path d="M1029.7 797.664C1029.7 781.49 1036.12 765.978 1047.55 754.542C1058.98 743.105 1074.48 736.68 1090.64 736.68C1106.8 736.68 1122.3 743.105 1133.73 754.542C1145.16 765.978 1151.58 781.49 1151.58 797.664H1029.7Z" stroke="url(#paint35_linear_1628_11468)" stroke-width="2" stroke-linecap="round" stroke-linejoin="round"/>
</g>
<g opacity="0.5">
<path d="M1273.2 495.984C1273.2 479.81 1279.63 464.299 1291.05 452.862C1302.48 441.425 1317.98 435 1334.14 435C1350.31 435 1365.81 441.425 1377.24 452.862C1388.66 464.299 1395.08 479.81 1395.08 495.984H1273.2Z" stroke="url(#paint36_linear_1628_11468)" stroke-width="2" stroke-linecap="round" stroke-linejoin="round"/>
<path d="M1273.2 676.992C1273.2 660.818 1279.63 645.307 1291.05 633.87C1302.48 622.433 1317.98 616.008 1334.14 616.008C1350.31 616.008 1365.81 622.433 1377.24 633.87C1388.66 645.307 1395.08 660.818 1395.08 676.992H1273.2Z" stroke="url(#paint37_linear_1628_11468)" stroke-width="2" stroke-linecap="round" stroke-linejoin="round"/>
<path d="M1273.2 556.32C1273.2 540.146 1279.63 524.634 1291.05 513.198C1302.48 501.761 1317.98 495.336 1334.14 495.336C1350.31 495.336 1365.81 501.761 1377.24 513.198C1388.66 524.634 1395.08 540.146 1395.08 556.32H1273.2Z" stroke="url(#paint38_linear_1628_11468)" stroke-width="2" stroke-linecap="round" stroke-linejoin="round"/>
<path d="M1273.2 737.328C1273.2 721.154 1279.63 705.643 1291.05 694.206C1302.48 682.769 1317.98 676.344 1334.14 676.344C1350.31 676.344 1365.81 682.769 1377.24 694.206C1388.66 705.643 1395.08 721.154 1395.08 737.328H1273.2Z" stroke="url(#paint39_linear_1628_11468)" stroke-width="2" stroke-linecap="round" stroke-linejoin="round"/>
<path d="M1273.2 616.656C1273.2 600.482 1279.63 584.971 1291.05 573.534C1302.48 562.097 1317.98 555.672 1334.14 555.672C1350.31 555.672 1365.81 562.097 1377.24 573.534C1388.66 584.971 1395.08 600.482 1395.08 616.656H1273.2Z" stroke="url(#paint40_linear_1628_11468)" stroke-width="2" stroke-linecap="round" stroke-linejoin="round"/>
<path d="M1273.2 797.664C1273.2 781.49 1279.63 765.978 1291.05 754.542C1302.48 743.105 1317.98 736.68 1334.14 736.68C1350.31 736.68 1365.81 743.105 1377.24 754.542C1388.66 765.978 1395.08 781.49 1395.08 797.664H1273.2Z" stroke="url(#paint41_linear_1628_11468)" stroke-width="2" stroke-linecap="round" stroke-linejoin="round"/>
</g>
</g>
<path d="M205.545 522.891C206.524 523.403 206.919 524.641 206.147 525.431C205.364 526.233 204.389 526.837 203.301 527.178C201.569 527.721 199.694 527.553 198.086 526.711C196.479 525.87 195.271 524.424 194.729 522.692C194.388 521.603 194.328 520.457 194.539 519.356C194.747 518.271 195.989 517.889 196.967 518.401L205.545 522.891Z" fill="white"/>
<path opacity="0.2" d="M226.832 502C227.937 502 228.863 502.916 228.528 503.969C228.258 504.817 227.815 505.596 227.223 506.243C226.192 507.368 224.794 508 223.336 508C221.879 508 220.481 507.368 219.45 506.243C218.858 505.596 218.415 504.817 218.145 503.969C217.81 502.916 218.736 502 219.84 502L226.832 502Z" fill="#EA3323"/>
<path opacity="0.2" d="M265.121 511.227C266.01 510.571 267.289 510.757 267.704 511.781C268.241 513.104 268.419 514.558 268.202 515.993C267.884 518.095 266.745 519.984 265.036 521.245C263.327 522.506 261.186 523.036 259.087 522.718C257.652 522.501 256.317 521.9 255.213 520.996C254.358 520.296 254.56 519.018 255.448 518.362L265.121 511.227Z" fill="#005EF6"/>
<g opacity="0.5">
<path d="M594.473 94.9922C594.473 78.8182 600.898 63.3067 612.335 51.8699C623.772 40.4332 639.283 34.0081 655.457 34.0081C671.631 34.0081 687.143 40.4332 698.58 51.8699C710.016 63.3066 716.441 78.8182 716.441 94.9922L594.473 94.9922Z" stroke="white" stroke-width="2" stroke-linecap="round" stroke-linejoin="round"/>
<path d="M594.473 94.9922C594.473 78.8182 600.898 63.3067 612.335 51.8699C623.772 40.4332 639.283 34.0081 655.457 34.0081C671.631 34.0081 687.143 40.4332 698.58 51.8699C710.016 63.3066 716.441 78.8182 716.441 94.9922L594.473 94.9922Z" stroke="#96C9FF" stroke-width="2" stroke-linecap="round" stroke-linejoin="round"/>
<path d="M594.473 155.328C594.473 139.154 600.898 123.642 612.335 112.206C623.772 100.769 639.283 94.3439 655.457 94.3439C671.631 94.3439 687.143 100.769 698.58 112.206C710.016 123.642 716.441 139.154 716.441 155.328L594.473 155.328Z" stroke="white" stroke-width="2" stroke-linecap="round" stroke-linejoin="round"/>
<path d="M594.473 155.328C594.473 139.154 600.898 123.642 612.335 112.206C623.772 100.769 639.283 94.3439 655.457 94.3439C671.631 94.3439 687.143 100.769 698.58 112.206C710.016 123.642 716.441 139.154 716.441 155.328L594.473 155.328Z" stroke="#96C9FF" stroke-width="2" stroke-linecap="round" stroke-linejoin="round"/>
<path d="M594.473 34.6561C594.473 18.4821 600.898 2.97053 612.335 -8.46621C623.772 -19.9029 639.283 -26.328 655.457 -26.328C671.631 -26.328 687.143 -19.903 698.58 -8.46622C710.016 2.97051 716.441 18.4821 716.441 34.656L594.473 34.6561Z" stroke="white" stroke-width="2" stroke-linecap="round" stroke-linejoin="round"/>
<path d="M594.473 34.6561C594.473 18.4821 600.898 2.97053 612.335 -8.46621C623.772 -19.9029 639.283 -26.328 655.457 -26.328C671.631 -26.328 687.143 -19.903 698.58 -8.46622C710.016 2.97051 716.441 18.4821 716.441 34.656L594.473 34.6561Z" stroke="#96C9FF" stroke-width="2" stroke-linecap="round" stroke-linejoin="round"/>
<path d="M594.473 215.664C594.473 199.49 600.898 183.978 612.335 172.542C623.772 161.105 639.283 154.68 655.457 154.68C671.631 154.68 687.143 161.105 698.58 172.542C710.016 183.978 716.441 199.49 716.441 215.664L594.473 215.664Z" stroke="white" stroke-width="2" stroke-linecap="round" stroke-linejoin="round"/>
<path d="M594.473 215.664C594.473 199.49 600.898 183.978 612.335 172.542C623.772 161.105 639.283 154.68 655.457 154.68C671.631 154.68 687.143 161.105 698.58 172.542C710.016 183.978 716.441 199.49 716.441 215.664L594.473 215.664Z" stroke="#96C9FF" stroke-width="2" stroke-linecap="round" stroke-linejoin="round"/>
<path d="M594.473 276C594.473 259.826 600.898 244.314 612.335 232.878C623.772 221.441 639.283 215.016 655.457 215.016C671.631 215.016 687.143 221.441 698.58 232.878C710.016 244.314 716.441 259.826 716.441 276L594.473 276Z" stroke="white" stroke-width="2" stroke-linecap="round" stroke-linejoin="round"/>
<path d="M594.473 276C594.473 259.826 600.898 244.314 612.335 232.878C623.772 221.441 639.283 215.016 655.457 215.016C671.631 215.016 687.143 221.441 698.58 232.878C710.016 244.314 716.441 259.826 716.441 276L594.473 276Z" stroke="#96C9FF" stroke-width="2" stroke-linecap="round" stroke-linejoin="round"/>
</g>
<g opacity="0.5">
<path d="M593.473 215.016C593.473 231.19 587.048 246.701 575.611 258.138C564.175 269.575 548.663 276 532.489 276C516.315 276 500.804 269.575 489.367 258.138C477.93 246.701 471.505 231.19 471.505 215.016L593.473 215.016Z" stroke="white" stroke-width="2" stroke-linecap="round" stroke-linejoin="round"/>
<path d="M593.473 215.016C593.473 231.19 587.048 246.701 575.611 258.138C564.175 269.575 548.663 276 532.489 276C516.315 276 500.804 269.575 489.367 258.138C477.93 246.701 471.505 231.19 471.505 215.016L593.473 215.016Z" stroke="#96C9FF" stroke-width="2" stroke-linecap="round" stroke-linejoin="round"/>
<path d="M593.473 34.0078C593.473 50.1818 587.048 65.6933 575.611 77.1301C564.175 88.5668 548.663 94.9919 532.489 94.9919C516.315 94.9919 500.804 88.5668 489.367 77.1301C477.93 65.6934 471.505 50.1818 471.505 34.0078L593.473 34.0078Z" stroke="white" stroke-width="2" stroke-linecap="round" stroke-linejoin="round"/>
<path d="M593.473 34.0078C593.473 50.1818 587.048 65.6933 575.611 77.1301C564.175 88.5668 548.663 94.9919 532.489 94.9919C516.315 94.9919 500.804 88.5668 489.367 77.1301C477.93 65.6934 471.505 50.1818 471.505 34.0078L593.473 34.0078Z" stroke="#96C9FF" stroke-width="2" stroke-linecap="round" stroke-linejoin="round"/>
<path d="M593.473 154.68C593.473 170.854 587.048 186.366 575.611 197.802C564.175 209.239 548.663 215.664 532.489 215.664C516.315 215.664 500.804 209.239 489.367 197.802C477.93 186.366 471.505 170.854 471.505 154.68L593.473 154.68Z" stroke="white" stroke-width="2" stroke-linecap="round" stroke-linejoin="round"/>
<path d="M593.473 154.68C593.473 170.854 587.048 186.366 575.611 197.802C564.175 209.239 548.663 215.664 532.489 215.664C516.315 215.664 500.804 209.239 489.367 197.802C477.93 186.366 471.505 170.854 471.505 154.68L593.473 154.68Z" stroke="#96C9FF" stroke-width="2" stroke-linecap="round" stroke-linejoin="round"/>
<path d="M593.473 -26.328C593.473 -10.154 587.048 5.3575 575.611 16.7942C564.175 28.231 548.663 34.6561 532.489 34.6561C516.315 34.6561 500.804 28.231 489.367 16.7942C477.93 5.35751 471.505 -10.154 471.505 -26.328L593.473 -26.328Z" stroke="white" stroke-width="2" stroke-linecap="round" stroke-linejoin="round"/>
<path d="M593.473 -26.328C593.473 -10.154 587.048 5.3575 575.611 16.7942C564.175 28.231 548.663 34.6561 532.489 34.6561C516.315 34.6561 500.804 28.231 489.367 16.7942C477.93 5.35751 471.505 -10.154 471.505 -26.328L593.473 -26.328Z" stroke="#96C9FF" stroke-width="2" stroke-linecap="round" stroke-linejoin="round"/>
<path d="M593.473 94.3439C593.473 110.518 587.048 126.029 575.611 137.466C564.175 148.903 548.663 155.328 532.489 155.328C516.315 155.328 500.804 148.903 489.367 137.466C477.93 126.029 471.505 110.518 471.505 94.3439L593.473 94.3439Z" stroke="white" stroke-width="2" stroke-linecap="round" stroke-linejoin="round"/>
<path d="M593.473 94.3439C593.473 110.518 587.048 126.029 575.611 137.466C564.175 148.903 548.663 155.328 532.489 155.328C516.315 155.328 500.804 148.903 489.367 137.466C477.93 126.029 471.505 110.518 471.505 94.3439L593.473 94.3439Z" stroke="#96C9FF" stroke-width="2" stroke-linecap="round" stroke-linejoin="round"/>
</g>
<g opacity="0.5">
<path d="M348.537 94.9923C348.537 78.8183 354.962 63.3067 366.399 51.87C377.835 40.4332 393.347 34.0081 409.521 34.0081C425.695 34.0081 441.206 40.4332 452.643 51.87C464.08 63.3067 470.505 78.8182 470.505 94.9922L348.537 94.9923Z" stroke="white" stroke-width="2" stroke-linecap="round" stroke-linejoin="round"/>
<path d="M348.537 94.9923C348.537 78.8183 354.962 63.3067 366.399 51.87C377.835 40.4332 393.347 34.0081 409.521 34.0081C425.695 34.0081 441.206 40.4332 452.643 51.87C464.08 63.3067 470.505 78.8182 470.505 94.9922L348.537 94.9923Z" stroke="#96C9FF" stroke-width="2" stroke-linecap="round" stroke-linejoin="round"/>
<path d="M348.537 155.328C348.537 139.154 354.962 123.643 366.399 112.206C377.835 100.769 393.347 94.344 409.521 94.344C425.695 94.344 441.206 100.769 452.643 112.206C464.08 123.643 470.505 139.154 470.505 155.328L348.537 155.328Z" stroke="white" stroke-width="2" stroke-linecap="round" stroke-linejoin="round"/>
<path d="M348.537 155.328C348.537 139.154 354.962 123.643 366.399 112.206C377.835 100.769 393.347 94.344 409.521 94.344C425.695 94.344 441.206 100.769 452.643 112.206C464.08 123.643 470.505 139.154 470.505 155.328L348.537 155.328Z" stroke="#96C9FF" stroke-width="2" stroke-linecap="round" stroke-linejoin="round"/>
<path d="M348.537 34.6561C348.537 18.4821 354.962 2.97059 366.399 -8.46615C377.835 -19.9029 393.347 -26.328 409.521 -26.328C425.695 -26.328 441.206 -19.9029 452.643 -8.46616C464.08 2.97057 470.505 18.4821 470.505 34.6561L348.537 34.6561Z" stroke="white" stroke-width="2" stroke-linecap="round" stroke-linejoin="round"/>
<path d="M348.537 34.6561C348.537 18.4821 354.962 2.97059 366.399 -8.46615C377.835 -19.9029 393.347 -26.328 409.521 -26.328C425.695 -26.328 441.206 -19.9029 452.643 -8.46616C464.08 2.97057 470.505 18.4821 470.505 34.6561L348.537 34.6561Z" stroke="#96C9FF" stroke-width="2" stroke-linecap="round" stroke-linejoin="round"/>
<path d="M348.537 215.664C348.537 199.49 354.962 183.978 366.399 172.542C377.835 161.105 393.347 154.68 409.521 154.68C425.695 154.68 441.206 161.105 452.643 172.542C464.08 183.978 470.505 199.49 470.505 215.664L348.537 215.664Z" stroke="white" stroke-width="2" stroke-linecap="round" stroke-linejoin="round"/>
<path d="M348.537 215.664C348.537 199.49 354.962 183.978 366.399 172.542C377.835 161.105 393.347 154.68 409.521 154.68C425.695 154.68 441.206 161.105 452.643 172.542C464.08 183.978 470.505 199.49 470.505 215.664L348.537 215.664Z" stroke="#96C9FF" stroke-width="2" stroke-linecap="round" stroke-linejoin="round"/>
<path d="M348.537 276C348.537 259.826 354.962 244.315 366.399 232.878C377.835 221.441 393.347 215.016 409.521 215.016C425.695 215.016 441.206 221.441 452.643 232.878C464.08 244.315 470.505 259.826 470.505 276L348.537 276Z" stroke="white" stroke-width="2" stroke-linecap="round" stroke-linejoin="round"/>
<path d="M348.537 276C348.537 259.826 354.962 244.315 366.399 232.878C377.835 221.441 393.347 215.016 409.521 215.016C425.695 215.016 441.206 221.441 452.643 232.878C464.08 244.315 470.505 259.826 470.505 276L348.537 276Z" stroke="#96C9FF" stroke-width="2" stroke-linecap="round" stroke-linejoin="round"/>
</g>
<g opacity="0.5">
<path d="M347.537 215.016C347.537 231.19 341.112 246.701 329.675 258.138C318.238 269.575 302.727 276 286.553 276C270.379 276 254.867 269.575 243.43 258.138C231.994 246.701 225.569 231.19 225.569 215.016L347.537 215.016Z" stroke="white" stroke-width="2" stroke-linecap="round" stroke-linejoin="round"/>
<path d="M347.537 215.016C347.537 231.19 341.112 246.701 329.675 258.138C318.238 269.575 302.727 276 286.553 276C270.379 276 254.867 269.575 243.43 258.138C231.994 246.701 225.569 231.19 225.569 215.016L347.537 215.016Z" stroke="#96C9FF" stroke-width="2" stroke-linecap="round" stroke-linejoin="round"/>
<path d="M347.537 34.0078C347.537 50.1818 341.112 65.6934 329.675 77.1301C318.238 88.5669 302.727 94.9919 286.553 94.9919C270.379 94.992 254.867 88.5669 243.43 77.1301C231.994 65.6934 225.569 50.1818 225.569 34.0079L347.537 34.0078Z" stroke="white" stroke-width="2" stroke-linecap="round" stroke-linejoin="round"/>
<path d="M347.537 34.0078C347.537 50.1818 341.112 65.6934 329.675 77.1301C318.238 88.5669 302.727 94.9919 286.553 94.9919C270.379 94.992 254.867 88.5669 243.43 77.1301C231.994 65.6934 225.569 50.1818 225.569 34.0079L347.537 34.0078Z" stroke="#96C9FF" stroke-width="2" stroke-linecap="round" stroke-linejoin="round"/>
<path d="M347.537 154.68C347.537 170.854 341.112 186.366 329.675 197.802C318.238 209.239 302.727 215.664 286.553 215.664C270.379 215.664 254.867 209.239 243.43 197.802C231.994 186.366 225.569 170.854 225.569 154.68L347.537 154.68Z" stroke="white" stroke-width="2" stroke-linecap="round" stroke-linejoin="round"/>
<path d="M347.537 154.68C347.537 170.854 341.112 186.366 329.675 197.802C318.238 209.239 302.727 215.664 286.553 215.664C270.379 215.664 254.867 209.239 243.43 197.802C231.994 186.366 225.569 170.854 225.569 154.68L347.537 154.68Z" stroke="#96C9FF" stroke-width="2" stroke-linecap="round" stroke-linejoin="round"/>
<path d="M347.537 -26.328C347.537 -10.154 341.112 5.35753 329.675 16.7943C318.238 28.231 302.727 34.6561 286.553 34.6561C270.379 34.6561 254.867 28.231 243.43 16.7943C231.994 5.35754 225.569 -10.154 225.569 -26.328L347.537 -26.328Z" stroke="white" stroke-width="2" stroke-linecap="round" stroke-linejoin="round"/>
<path d="M347.537 -26.328C347.537 -10.154 341.112 5.35753 329.675 16.7943C318.238 28.231 302.727 34.6561 286.553 34.6561C270.379 34.6561 254.867 28.231 243.43 16.7943C231.994 5.35754 225.569 -10.154 225.569 -26.328L347.537 -26.328Z" stroke="#96C9FF" stroke-width="2" stroke-linecap="round" stroke-linejoin="round"/>
<path d="M347.537 94.344C347.537 110.518 341.112 126.029 329.675 137.466C318.238 148.903 302.727 155.328 286.553 155.328C270.379 155.328 254.867 148.903 243.43 137.466C231.994 126.03 225.569 110.518 225.569 94.344L347.537 94.344Z" stroke="white" stroke-width="2" stroke-linecap="round" stroke-linejoin="round"/>
<path d="M347.537 94.344C347.537 110.518 341.112 126.029 329.675 137.466C318.238 148.903 302.727 155.328 286.553 155.328C270.379 155.328 254.867 148.903 243.43 137.466C231.994 126.03 225.569 110.518 225.569 94.344L347.537 94.344Z" stroke="#96C9FF" stroke-width="2" stroke-linecap="round" stroke-linejoin="round"/>
</g>
<g opacity="0.5">
<path d="M102.6 94.9923C102.6 78.8183 109.025 63.3067 120.462 51.87C131.899 40.4332 147.41 34.0081 163.584 34.0081C179.758 34.0081 195.27 40.4332 206.707 51.87C218.143 63.3067 224.569 78.8182 224.569 94.9922L102.6 94.9923Z" stroke="white" stroke-width="2" stroke-linecap="round" stroke-linejoin="round"/>
<path d="M102.6 94.9923C102.6 78.8183 109.025 63.3067 120.462 51.87C131.899 40.4332 147.41 34.0081 163.584 34.0081C179.758 34.0081 195.27 40.4332 206.707 51.87C218.143 63.3067 224.569 78.8182 224.569 94.9922L102.6 94.9923Z" stroke="#96C9FF" stroke-width="2" stroke-linecap="round" stroke-linejoin="round"/>
<path d="M102.6 155.328C102.6 139.154 109.025 123.643 120.462 112.206C131.899 100.769 147.41 94.344 163.584 94.344C179.758 94.344 195.27 100.769 206.707 112.206C218.143 123.643 224.569 139.154 224.569 155.328L102.6 155.328Z" stroke="white" stroke-width="2" stroke-linecap="round" stroke-linejoin="round"/>
<path d="M102.6 155.328C102.6 139.154 109.025 123.643 120.462 112.206C131.899 100.769 147.41 94.344 163.584 94.344C179.758 94.344 195.27 100.769 206.707 112.206C218.143 123.643 224.569 139.154 224.569 155.328L102.6 155.328Z" stroke="#96C9FF" stroke-width="2" stroke-linecap="round" stroke-linejoin="round"/>
<path d="M102.6 34.6561C102.6 18.4821 109.025 2.97059 120.462 -8.46615C131.899 -19.9029 147.41 -26.328 163.584 -26.328C179.758 -26.328 195.27 -19.9029 206.707 -8.46616C218.143 2.97057 224.569 18.4821 224.569 34.6561L102.6 34.6561Z" stroke="white" stroke-width="2" stroke-linecap="round" stroke-linejoin="round"/>
<path d="M102.6 34.6561C102.6 18.4821 109.025 2.97059 120.462 -8.46615C131.899 -19.9029 147.41 -26.328 163.584 -26.328C179.758 -26.328 195.27 -19.9029 206.707 -8.46616C218.143 2.97057 224.569 18.4821 224.569 34.6561L102.6 34.6561Z" stroke="#96C9FF" stroke-width="2" stroke-linecap="round" stroke-linejoin="round"/>
<path d="M102.6 215.664C102.6 199.49 109.025 183.978 120.462 172.542C131.899 161.105 147.41 154.68 163.584 154.68C179.758 154.68 195.27 161.105 206.707 172.542C218.143 183.978 224.569 199.49 224.569 215.664L102.6 215.664Z" stroke="white" stroke-width="2" stroke-linecap="round" stroke-linejoin="round"/>
<path d="M102.6 215.664C102.6 199.49 109.025 183.978 120.462 172.542C131.899 161.105 147.41 154.68 163.584 154.68C179.758 154.68 195.27 161.105 206.707 172.542C218.143 183.978 224.569 199.49 224.569 215.664L102.6 215.664Z" stroke="#96C9FF" stroke-width="2" stroke-linecap="round" stroke-linejoin="round"/>
<path d="M102.6 276C102.6 259.826 109.026 244.315 120.462 232.878C131.899 221.441 147.411 215.016 163.585 215.016C179.759 215.016 195.27 221.441 206.707 232.878C218.144 244.315 224.569 259.826 224.569 276L102.6 276Z" stroke="white" stroke-width="2" stroke-linecap="round" stroke-linejoin="round"/>
<path d="M102.6 276C102.6 259.826 109.026 244.315 120.462 232.878C131.899 221.441 147.411 215.016 163.585 215.016C179.759 215.016 195.27 221.441 206.707 232.878C218.144 244.315 224.569 259.826 224.569 276L102.6 276Z" stroke="#96C9FF" stroke-width="2" stroke-linecap="round" stroke-linejoin="round"/>
</g>
<g opacity="0.5">
<path d="M101.6 215.016C101.6 231.19 95.1752 246.701 83.7385 258.138C72.3018 269.575 56.7902 276 40.6162 276C24.4422 276 8.9307 269.575 -2.50604 258.138C-13.9428 246.702 -20.3679 231.19 -20.3679 215.016L101.6 215.016Z" stroke="white" stroke-width="2" stroke-linecap="round" stroke-linejoin="round"/>
<path d="M101.6 215.016C101.6 231.19 95.1752 246.701 83.7385 258.138C72.3018 269.575 56.7902 276 40.6162 276C24.4422 276 8.9307 269.575 -2.50604 258.138C-13.9428 246.702 -20.3679 231.19 -20.3679 215.016L101.6 215.016Z" stroke="#96C9FF" stroke-width="2" stroke-linecap="round" stroke-linejoin="round"/>
<path d="M101.6 34.0079C101.6 50.1819 95.1752 65.6934 83.7385 77.1301C72.3018 88.5669 56.7902 94.992 40.6162 94.992C24.4422 94.992 8.9307 88.5669 -2.50604 77.1302C-13.9428 65.6934 -20.3679 50.1819 -20.3679 34.0079L101.6 34.0079Z" stroke="white" stroke-width="2" stroke-linecap="round" stroke-linejoin="round"/>
<path d="M101.6 34.0079C101.6 50.1819 95.1752 65.6934 83.7385 77.1301C72.3018 88.5669 56.7902 94.992 40.6162 94.992C24.4422 94.992 8.9307 88.5669 -2.50604 77.1302C-13.9428 65.6934 -20.3679 50.1819 -20.3679 34.0079L101.6 34.0079Z" stroke="#96C9FF" stroke-width="2" stroke-linecap="round" stroke-linejoin="round"/>
<path d="M101.6 154.68C101.6 170.854 95.1752 186.366 83.7385 197.802C72.3018 209.239 56.7902 215.664 40.6162 215.664C24.4422 215.664 8.9307 209.239 -2.50604 197.802C-13.9428 186.366 -20.3679 170.854 -20.3679 154.68L101.6 154.68Z" stroke="white" stroke-width="2" stroke-linecap="round" stroke-linejoin="round"/>
<path d="M101.6 154.68C101.6 170.854 95.1752 186.366 83.7385 197.802C72.3018 209.239 56.7902 215.664 40.6162 215.664C24.4422 215.664 8.9307 209.239 -2.50604 197.802C-13.9428 186.366 -20.3679 170.854 -20.3679 154.68L101.6 154.68Z" stroke="#96C9FF" stroke-width="2" stroke-linecap="round" stroke-linejoin="round"/>
<path d="M101.6 -26.328C101.6 -10.154 95.1752 5.35756 83.7385 16.7943C72.3018 28.231 56.7902 34.6561 40.6162 34.6561C24.4422 34.6561 8.9307 28.231 -2.50604 16.7943C-13.9428 5.35757 -20.3679 -10.154 -20.3679 -26.328L101.6 -26.328Z" stroke="white" stroke-width="2" stroke-linecap="round" stroke-linejoin="round"/>
<path d="M101.6 -26.328C101.6 -10.154 95.1752 5.35756 83.7385 16.7943C72.3018 28.231 56.7902 34.6561 40.6162 34.6561C24.4422 34.6561 8.9307 28.231 -2.50604 16.7943C-13.9428 5.35757 -20.3679 -10.154 -20.3679 -26.328L101.6 -26.328Z" stroke="#96C9FF" stroke-width="2" stroke-linecap="round" stroke-linejoin="round"/>
<path d="M101.6 94.344C101.6 110.518 95.1752 126.03 83.7385 137.466C72.3018 148.903 56.7902 155.328 40.6162 155.328C24.4422 155.328 8.9307 148.903 -2.50604 137.466C-13.9428 126.03 -20.3679 110.518 -20.3679 94.344L101.6 94.344Z" stroke="white" stroke-width="2" stroke-linecap="round" stroke-linejoin="round"/>
<path d="M101.6 94.344C101.6 110.518 95.1752 126.03 83.7385 137.466C72.3018 148.903 56.7902 155.328 40.6162 155.328C24.4422 155.328 8.9307 148.903 -2.50604 137.466C-13.9428 126.03 -20.3679 110.518 -20.3679 94.344L101.6 94.344Z" stroke="#96C9FF" stroke-width="2" stroke-linecap="round" stroke-linejoin="round"/>
</g>
<g opacity="0.5">
<path d="M601.809 358.984C601.809 342.81 608.234 327.299 619.671 315.862C631.108 304.425 646.619 298 662.793 298C678.967 298 694.479 304.425 705.916 315.862C717.352 327.299 723.778 342.81 723.778 358.984L601.809 358.984Z" stroke="white" stroke-width="2" stroke-linecap="round" stroke-linejoin="round"/>
<path d="M601.809 358.984C601.809 342.81 608.234 327.299 619.671 315.862C631.108 304.425 646.619 298 662.793 298C678.967 298 694.479 304.425 705.916 315.862C717.352 327.299 723.778 342.81 723.778 358.984L601.809 358.984Z" stroke="#96C9FF" stroke-width="2" stroke-linecap="round" stroke-linejoin="round"/>
<path d="M601.809 539.992C601.809 523.818 608.234 508.307 619.671 496.87C631.108 485.433 646.62 479.008 662.793 479.008C678.967 479.008 694.479 485.433 705.916 496.87C717.353 508.307 723.778 523.818 723.778 539.992L601.809 539.992Z" stroke="white" stroke-width="2" stroke-linecap="round" stroke-linejoin="round"/>
<path d="M601.809 539.992C601.809 523.818 608.234 508.307 619.671 496.87C631.108 485.433 646.62 479.008 662.793 479.008C678.967 479.008 694.479 485.433 705.916 496.87C717.353 508.307 723.778 523.818 723.778 539.992L601.809 539.992Z" stroke="#96C9FF" stroke-width="2" stroke-linecap="round" stroke-linejoin="round"/>
<path d="M601.809 419.32C601.809 403.146 608.234 387.635 619.671 376.198C631.108 364.761 646.62 358.336 662.793 358.336C678.967 358.336 694.479 364.761 705.916 376.198C717.353 387.635 723.778 403.146 723.778 419.32L601.809 419.32Z" stroke="white" stroke-width="2" stroke-linecap="round" stroke-linejoin="round"/>
<path d="M601.809 419.32C601.809 403.146 608.234 387.635 619.671 376.198C631.108 364.761 646.62 358.336 662.793 358.336C678.967 358.336 694.479 364.761 705.916 376.198C717.353 387.635 723.778 403.146 723.778 419.32L601.809 419.32Z" stroke="#96C9FF" stroke-width="2" stroke-linecap="round" stroke-linejoin="round"/>
<path d="M601.809 600.328C601.809 584.154 608.234 568.643 619.671 557.206C631.108 545.769 646.62 539.344 662.793 539.344C678.967 539.344 694.479 545.769 705.916 557.206C717.353 568.642 723.778 584.154 723.778 600.328L601.809 600.328Z" stroke="white" stroke-width="2" stroke-linecap="round" stroke-linejoin="round"/>
<path d="M601.809 600.328C601.809 584.154 608.234 568.643 619.671 557.206C631.108 545.769 646.62 539.344 662.793 539.344C678.967 539.344 694.479 545.769 705.916 557.206C717.353 568.642 723.778 584.154 723.778 600.328L601.809 600.328Z" stroke="#96C9FF" stroke-width="2" stroke-linecap="round" stroke-linejoin="round"/>
<path d="M601.809 479.656C601.809 463.482 608.234 447.971 619.671 436.534C631.108 425.097 646.62 418.672 662.793 418.672C678.967 418.672 694.479 425.097 705.916 436.534C717.353 447.971 723.778 463.482 723.778 479.656L601.809 479.656Z" stroke="white" stroke-width="2" stroke-linecap="round" stroke-linejoin="round"/>
<path d="M601.809 479.656C601.809 463.482 608.234 447.971 619.671 436.534C631.108 425.097 646.62 418.672 662.793 418.672C678.967 418.672 694.479 425.097 705.916 436.534C717.353 447.971 723.778 463.482 723.778 479.656L601.809 479.656Z" stroke="#96C9FF" stroke-width="2" stroke-linecap="round" stroke-linejoin="round"/>
<path d="M601.809 660.664C601.809 644.49 608.235 628.978 619.671 617.542C631.108 606.105 646.62 599.68 662.794 599.68C678.968 599.68 694.479 606.105 705.916 617.542C717.353 628.978 723.778 644.49 723.778 660.664L601.809 660.664Z" stroke="white" stroke-width="2" stroke-linecap="round" stroke-linejoin="round"/>
<path d="M601.809 660.664C601.809 644.49 608.235 628.978 619.671 617.542C631.108 606.105 646.62 599.68 662.794 599.68C678.968 599.68 694.479 606.105 705.916 617.542C717.353 628.978 723.778 644.49 723.778 660.664L601.809 660.664Z" stroke="#96C9FF" stroke-width="2" stroke-linecap="round" stroke-linejoin="round"/>
<path d="M601.809 721C601.809 704.826 608.235 689.314 619.671 677.878C631.108 666.441 646.62 660.016 662.794 660.016C678.968 660.016 694.479 666.441 705.916 677.878C717.353 689.314 723.778 704.826 723.778 721L601.809 721Z" stroke="white" stroke-width="2" stroke-linecap="round" stroke-linejoin="round"/>
<path d="M601.809 721C601.809 704.826 608.235 689.314 619.671 677.878C631.108 666.441 646.62 660.016 662.794 660.016C678.968 660.016 694.479 666.441 705.916 677.878C717.353 689.314 723.778 704.826 723.778 721L601.809 721Z" stroke="#96C9FF" stroke-width="2" stroke-linecap="round" stroke-linejoin="round"/>
</g>
<g opacity="0.5">
<path d="M600.809 660.016C600.809 676.19 594.384 691.701 582.947 703.138C571.511 714.575 555.999 721 539.825 721C523.651 721 508.14 714.575 496.703 703.138C485.266 691.701 478.841 676.19 478.841 660.016L600.809 660.016Z" stroke="white" stroke-width="2" stroke-linecap="round" stroke-linejoin="round"/>
<path d="M600.809 660.016C600.809 676.19 594.384 691.701 582.947 703.138C571.511 714.575 555.999 721 539.825 721C523.651 721 508.14 714.575 496.703 703.138C485.266 691.701 478.841 676.19 478.841 660.016L600.809 660.016Z" stroke="#96C9FF" stroke-width="2" stroke-linecap="round" stroke-linejoin="round"/>
<path d="M600.809 479.008C600.809 495.182 594.384 510.693 582.948 522.13C571.511 533.567 555.999 539.992 539.825 539.992C523.651 539.992 508.14 533.567 496.703 522.13C485.266 510.693 478.841 495.182 478.841 479.008L600.809 479.008Z" stroke="white" stroke-width="2" stroke-linecap="round" stroke-linejoin="round"/>
<path d="M600.809 479.008C600.809 495.182 594.384 510.693 582.948 522.13C571.511 533.567 555.999 539.992 539.825 539.992C523.651 539.992 508.14 533.567 496.703 522.13C485.266 510.693 478.841 495.182 478.841 479.008L600.809 479.008Z" stroke="#96C9FF" stroke-width="2" stroke-linecap="round" stroke-linejoin="round"/>
<path d="M600.809 599.68C600.809 615.854 594.384 631.366 582.948 642.802C571.511 654.239 555.999 660.664 539.825 660.664C523.651 660.664 508.14 654.239 496.703 642.802C485.266 631.366 478.841 615.854 478.841 599.68L600.809 599.68Z" stroke="white" stroke-width="2" stroke-linecap="round" stroke-linejoin="round"/>
<path d="M600.809 599.68C600.809 615.854 594.384 631.366 582.948 642.802C571.511 654.239 555.999 660.664 539.825 660.664C523.651 660.664 508.14 654.239 496.703 642.802C485.266 631.366 478.841 615.854 478.841 599.68L600.809 599.68Z" stroke="#96C9FF" stroke-width="2" stroke-linecap="round" stroke-linejoin="round"/>
<path d="M600.809 418.672C600.809 434.846 594.384 450.358 582.948 461.794C571.511 473.231 555.999 479.656 539.825 479.656C523.651 479.656 508.14 473.231 496.703 461.794C485.266 450.358 478.841 434.846 478.841 418.672L600.809 418.672Z" stroke="white" stroke-width="2" stroke-linecap="round" stroke-linejoin="round"/>
<path d="M600.809 418.672C600.809 434.846 594.384 450.358 582.948 461.794C571.511 473.231 555.999 479.656 539.825 479.656C523.651 479.656 508.14 473.231 496.703 461.794C485.266 450.358 478.841 434.846 478.841 418.672L600.809 418.672Z" stroke="#96C9FF" stroke-width="2" stroke-linecap="round" stroke-linejoin="round"/>
<path d="M600.809 539.344C600.809 555.518 594.384 571.029 582.948 582.466C571.511 593.903 555.999 600.328 539.825 600.328C523.651 600.328 508.14 593.903 496.703 582.466C485.266 571.029 478.841 555.518 478.841 539.344L600.809 539.344Z" stroke="white" stroke-width="2" stroke-linecap="round" stroke-linejoin="round"/>
<path d="M600.809 539.344C600.809 555.518 594.384 571.029 582.948 582.466C571.511 593.903 555.999 600.328 539.825 600.328C523.651 600.328 508.14 593.903 496.703 582.466C485.266 571.029 478.841 555.518 478.841 539.344L600.809 539.344Z" stroke="#96C9FF" stroke-width="2" stroke-linecap="round" stroke-linejoin="round"/>
<path d="M600.809 358.336C600.809 374.51 594.384 390.022 582.948 401.458C571.511 412.895 555.999 419.32 539.825 419.32C523.651 419.32 508.14 412.895 496.703 401.458C485.266 390.022 478.841 374.51 478.841 358.336L600.809 358.336Z" stroke="white" stroke-width="2" stroke-linecap="round" stroke-linejoin="round"/>
<path d="M600.809 358.336C600.809 374.51 594.384 390.022 582.948 401.458C571.511 412.895 555.999 419.32 539.825 419.32C523.651 419.32 508.14 412.895 496.703 401.458C485.266 390.022 478.841 374.51 478.841 358.336L600.809 358.336Z" stroke="#96C9FF" stroke-width="2" stroke-linecap="round" stroke-linejoin="round"/>
<path d="M600.809 298C600.809 314.174 594.384 329.686 582.948 341.122C571.511 352.559 555.999 358.984 539.825 358.984C523.651 358.984 508.14 352.559 496.703 341.122C485.266 329.686 478.841 314.174 478.841 298L600.809 298Z" stroke="white" stroke-width="2" stroke-linecap="round" stroke-linejoin="round"/>
<path d="M600.809 298C600.809 314.174 594.384 329.686 582.948 341.122C571.511 352.559 555.999 358.984 539.825 358.984C523.651 358.984 508.14 352.559 496.703 341.122C485.266 329.686 478.841 314.174 478.841 298L600.809 298Z" stroke="#96C9FF" stroke-width="2" stroke-linecap="round" stroke-linejoin="round"/>
</g>
<g opacity="0.5">
<path d="M355.873 358.984C355.873 342.81 362.298 327.299 373.735 315.862C385.171 304.425 400.683 298 416.857 298C433.031 298 448.542 304.425 459.979 315.862C471.416 327.299 477.841 342.81 477.841 358.984L355.873 358.984Z" stroke="white" stroke-width="2" stroke-linecap="round" stroke-linejoin="round"/>
<path d="M355.873 358.984C355.873 342.81 362.298 327.299 373.735 315.862C385.171 304.425 400.683 298 416.857 298C433.031 298 448.542 304.425 459.979 315.862C471.416 327.299 477.841 342.81 477.841 358.984L355.873 358.984Z" stroke="#96C9FF" stroke-width="2" stroke-linecap="round" stroke-linejoin="round"/>
<path d="M355.873 539.992C355.873 523.818 362.298 508.307 373.735 496.87C385.171 485.433 400.683 479.008 416.857 479.008C433.031 479.008 448.543 485.433 459.979 496.87C471.416 508.307 477.841 523.818 477.841 539.992L355.873 539.992Z" stroke="white" stroke-width="2" stroke-linecap="round" stroke-linejoin="round"/>
<path d="M355.873 539.992C355.873 523.818 362.298 508.307 373.735 496.87C385.171 485.433 400.683 479.008 416.857 479.008C433.031 479.008 448.543 485.433 459.979 496.87C471.416 508.307 477.841 523.818 477.841 539.992L355.873 539.992Z" stroke="#96C9FF" stroke-width="2" stroke-linecap="round" stroke-linejoin="round"/>
<path d="M355.873 419.32C355.873 403.146 362.298 387.635 373.735 376.198C385.171 364.761 400.683 358.336 416.857 358.336C433.031 358.336 448.543 364.761 459.979 376.198C471.416 387.635 477.841 403.146 477.841 419.32L355.873 419.32Z" stroke="white" stroke-width="2" stroke-linecap="round" stroke-linejoin="round"/>
<path d="M355.873 419.32C355.873 403.146 362.298 387.635 373.735 376.198C385.171 364.761 400.683 358.336 416.857 358.336C433.031 358.336 448.543 364.761 459.979 376.198C471.416 387.635 477.841 403.146 477.841 419.32L355.873 419.32Z" stroke="#96C9FF" stroke-width="2" stroke-linecap="round" stroke-linejoin="round"/>
<path d="M355.873 600.328C355.873 584.154 362.298 568.643 373.735 557.206C385.171 545.769 400.683 539.344 416.857 539.344C433.031 539.344 448.543 545.769 459.979 557.206C471.416 568.643 477.841 584.154 477.841 600.328L355.873 600.328Z" stroke="white" stroke-width="2" stroke-linecap="round" stroke-linejoin="round"/>
<path d="M355.873 600.328C355.873 584.154 362.298 568.643 373.735 557.206C385.171 545.769 400.683 539.344 416.857 539.344C433.031 539.344 448.543 545.769 459.979 557.206C471.416 568.643 477.841 584.154 477.841 600.328L355.873 600.328Z" stroke="#96C9FF" stroke-width="2" stroke-linecap="round" stroke-linejoin="round"/>
<path d="M355.873 479.656C355.873 463.482 362.298 447.971 373.735 436.534C385.171 425.097 400.683 418.672 416.857 418.672C433.031 418.672 448.543 425.097 459.979 436.534C471.416 447.971 477.841 463.482 477.841 479.656L355.873 479.656Z" stroke="white" stroke-width="2" stroke-linecap="round" stroke-linejoin="round"/>
<path d="M355.873 479.656C355.873 463.482 362.298 447.971 373.735 436.534C385.171 425.097 400.683 418.672 416.857 418.672C433.031 418.672 448.543 425.097 459.979 436.534C471.416 447.971 477.841 463.482 477.841 479.656L355.873 479.656Z" stroke="#96C9FF" stroke-width="2" stroke-linecap="round" stroke-linejoin="round"/>
<path d="M355.873 660.664C355.873 644.49 362.298 628.978 373.735 617.542C385.171 606.105 400.683 599.68 416.857 599.68C433.031 599.68 448.543 606.105 459.979 617.542C471.416 628.978 477.841 644.49 477.841 660.664L355.873 660.664Z" stroke="white" stroke-width="2" stroke-linecap="round" stroke-linejoin="round"/>
<path d="M355.873 660.664C355.873 644.49 362.298 628.978 373.735 617.542C385.171 606.105 400.683 599.68 416.857 599.68C433.031 599.68 448.543 606.105 459.979 617.542C471.416 628.978 477.841 644.49 477.841 660.664L355.873 660.664Z" stroke="#96C9FF" stroke-width="2" stroke-linecap="round" stroke-linejoin="round"/>
<path d="M355.873 721C355.873 704.826 362.298 689.314 373.735 677.878C385.171 666.441 400.683 660.016 416.857 660.016C433.031 660.016 448.543 666.441 459.979 677.878C471.416 689.314 477.841 704.826 477.841 721L355.873 721Z" stroke="white" stroke-width="2" stroke-linecap="round" stroke-linejoin="round"/>
<path d="M355.873 721C355.873 704.826 362.298 689.314 373.735 677.878C385.171 666.441 400.683 660.016 416.857 660.016C433.031 660.016 448.543 666.441 459.979 677.878C471.416 689.314 477.841 704.826 477.841 721L355.873 721Z" stroke="#96C9FF" stroke-width="2" stroke-linecap="round" stroke-linejoin="round"/>
</g>
<g opacity="0.5">
<path d="M354.873 660.016C354.873 676.19 348.448 691.701 337.011 703.138C325.574 714.575 310.063 721 293.889 721C277.715 721 262.203 714.575 250.767 703.138C239.33 691.701 232.905 676.19 232.905 660.016L354.873 660.016Z" stroke="white" stroke-width="2" stroke-linecap="round" stroke-linejoin="round"/>
<path d="M354.873 660.016C354.873 676.19 348.448 691.701 337.011 703.138C325.574 714.575 310.063 721 293.889 721C277.715 721 262.203 714.575 250.767 703.138C239.33 691.701 232.905 676.19 232.905 660.016L354.873 660.016Z" stroke="#96C9FF" stroke-width="2" stroke-linecap="round" stroke-linejoin="round"/>
<path d="M354.873 479.008C354.873 495.182 348.448 510.693 337.011 522.13C325.574 533.567 310.063 539.992 293.889 539.992C277.715 539.992 262.203 533.567 250.767 522.13C239.33 510.693 232.905 495.182 232.905 479.008L354.873 479.008Z" stroke="white" stroke-width="2" stroke-linecap="round" stroke-linejoin="round"/>
<path d="M354.873 479.008C354.873 495.182 348.448 510.693 337.011 522.13C325.574 533.567 310.063 539.992 293.889 539.992C277.715 539.992 262.203 533.567 250.767 522.13C239.33 510.693 232.905 495.182 232.905 479.008L354.873 479.008Z" stroke="#96C9FF" stroke-width="2" stroke-linecap="round" stroke-linejoin="round"/>
<path d="M354.873 599.68C354.873 615.854 348.448 631.366 337.011 642.802C325.574 654.239 310.063 660.664 293.889 660.664C277.715 660.664 262.203 654.239 250.767 642.802C239.33 631.366 232.905 615.854 232.905 599.68L354.873 599.68Z" stroke="white" stroke-width="2" stroke-linecap="round" stroke-linejoin="round"/>
<path d="M354.873 599.68C354.873 615.854 348.448 631.366 337.011 642.802C325.574 654.239 310.063 660.664 293.889 660.664C277.715 660.664 262.203 654.239 250.767 642.802C239.33 631.366 232.905 615.854 232.905 599.68L354.873 599.68Z" stroke="#96C9FF" stroke-width="2" stroke-linecap="round" stroke-linejoin="round"/>
<path d="M354.873 418.672C354.873 434.846 348.448 450.358 337.011 461.794C325.574 473.231 310.063 479.656 293.889 479.656C277.715 479.656 262.203 473.231 250.767 461.794C239.33 450.358 232.905 434.846 232.905 418.672L354.873 418.672Z" stroke="white" stroke-width="2" stroke-linecap="round" stroke-linejoin="round"/>
<path d="M354.873 418.672C354.873 434.846 348.448 450.358 337.011 461.794C325.574 473.231 310.063 479.656 293.889 479.656C277.715 479.656 262.203 473.231 250.767 461.794C239.33 450.358 232.905 434.846 232.905 418.672L354.873 418.672Z" stroke="#96C9FF" stroke-width="2" stroke-linecap="round" stroke-linejoin="round"/>
<path d="M354.873 539.344C354.873 555.518 348.448 571.029 337.011 582.466C325.574 593.903 310.063 600.328 293.889 600.328C277.715 600.328 262.203 593.903 250.767 582.466C239.33 571.03 232.905 555.518 232.905 539.344L354.873 539.344Z" stroke="white" stroke-width="2" stroke-linecap="round" stroke-linejoin="round"/>
<path d="M354.873 539.344C354.873 555.518 348.448 571.029 337.011 582.466C325.574 593.903 310.063 600.328 293.889 600.328C277.715 600.328 262.203 593.903 250.767 582.466C239.33 571.03 232.905 555.518 232.905 539.344L354.873 539.344Z" stroke="#96C9FF" stroke-width="2" stroke-linecap="round" stroke-linejoin="round"/>
<path d="M354.873 358.336C354.873 374.51 348.448 390.022 337.011 401.458C325.574 412.895 310.063 419.32 293.889 419.32C277.715 419.32 262.203 412.895 250.767 401.458C239.33 390.022 232.905 374.51 232.905 358.336L354.873 358.336Z" stroke="white" stroke-width="2" stroke-linecap="round" stroke-linejoin="round"/>
<path d="M354.873 358.336C354.873 374.51 348.448 390.022 337.011 401.458C325.574 412.895 310.063 419.32 293.889 419.32C277.715 419.32 262.203 412.895 250.767 401.458C239.33 390.022 232.905 374.51 232.905 358.336L354.873 358.336Z" stroke="#96C9FF" stroke-width="2" stroke-linecap="round" stroke-linejoin="round"/>
<path d="M354.873 298C354.873 314.174 348.448 329.686 337.011 341.122C325.574 352.559 310.063 358.984 293.889 358.984C277.715 358.984 262.203 352.559 250.767 341.122C239.33 329.686 232.905 314.174 232.905 298L354.873 298Z" stroke="white" stroke-width="2" stroke-linecap="round" stroke-linejoin="round"/>
<path d="M354.873 298C354.873 314.174 348.448 329.686 337.011 341.122C325.574 352.559 310.063 358.984 293.889 358.984C277.715 358.984 262.203 352.559 250.767 341.122C239.33 329.686 232.905 314.174 232.905 298L354.873 298Z" stroke="#96C9FF" stroke-width="2" stroke-linecap="round" stroke-linejoin="round"/>
</g>
<g opacity="0.5">
<path d="M109.936 358.984C109.936 342.81 116.361 327.299 127.798 315.862C139.235 304.425 154.747 298 170.921 298C187.094 298 202.606 304.425 214.043 315.862C225.48 327.299 231.905 342.81 231.905 358.984L109.936 358.984Z" stroke="white" stroke-width="2" stroke-linecap="round" stroke-linejoin="round"/>
<path d="M109.936 358.984C109.936 342.81 116.361 327.299 127.798 315.862C139.235 304.425 154.747 298 170.921 298C187.094 298 202.606 304.425 214.043 315.862C225.48 327.299 231.905 342.81 231.905 358.984L109.936 358.984Z" stroke="#96C9FF" stroke-width="2" stroke-linecap="round" stroke-linejoin="round"/>
<path d="M109.937 539.992C109.937 523.818 116.362 508.307 127.798 496.87C139.235 485.433 154.747 479.008 170.921 479.008C187.095 479.008 202.606 485.433 214.043 496.87C225.48 508.307 231.905 523.818 231.905 539.992L109.937 539.992Z" stroke="white" stroke-width="2" stroke-linecap="round" stroke-linejoin="round"/>
<path d="M109.937 539.992C109.937 523.818 116.362 508.307 127.798 496.87C139.235 485.433 154.747 479.008 170.921 479.008C187.095 479.008 202.606 485.433 214.043 496.87C225.48 508.307 231.905 523.818 231.905 539.992L109.937 539.992Z" stroke="#96C9FF" stroke-width="2" stroke-linecap="round" stroke-linejoin="round"/>
<path d="M109.937 419.32C109.937 403.146 116.362 387.635 127.798 376.198C139.235 364.761 154.747 358.336 170.921 358.336C187.095 358.336 202.606 364.761 214.043 376.198C225.48 387.635 231.905 403.146 231.905 419.32L109.937 419.32Z" stroke="white" stroke-width="2" stroke-linecap="round" stroke-linejoin="round"/>
<path d="M109.937 419.32C109.937 403.146 116.362 387.635 127.798 376.198C139.235 364.761 154.747 358.336 170.921 358.336C187.095 358.336 202.606 364.761 214.043 376.198C225.48 387.635 231.905 403.146 231.905 419.32L109.937 419.32Z" stroke="#96C9FF" stroke-width="2" stroke-linecap="round" stroke-linejoin="round"/>
<path d="M109.937 600.328C109.937 584.154 116.362 568.643 127.798 557.206C139.235 545.769 154.747 539.344 170.921 539.344C187.095 539.344 202.606 545.769 214.043 557.206C225.48 568.643 231.905 584.154 231.905 600.328L109.937 600.328Z" stroke="white" stroke-width="2" stroke-linecap="round" stroke-linejoin="round"/>
<path d="M109.937 600.328C109.937 584.154 116.362 568.643 127.798 557.206C139.235 545.769 154.747 539.344 170.921 539.344C187.095 539.344 202.606 545.769 214.043 557.206C225.48 568.643 231.905 584.154 231.905 600.328L109.937 600.328Z" stroke="#96C9FF" stroke-width="2" stroke-linecap="round" stroke-linejoin="round"/>
<path d="M109.937 479.656C109.937 463.482 116.362 447.971 127.798 436.534C139.235 425.097 154.747 418.672 170.921 418.672C187.095 418.672 202.606 425.097 214.043 436.534C225.48 447.971 231.905 463.482 231.905 479.656L109.937 479.656Z" stroke="white" stroke-width="2" stroke-linecap="round" stroke-linejoin="round"/>
<path d="M109.937 479.656C109.937 463.482 116.362 447.971 127.798 436.534C139.235 425.097 154.747 418.672 170.921 418.672C187.095 418.672 202.606 425.097 214.043 436.534C225.48 447.971 231.905 463.482 231.905 479.656L109.937 479.656Z" stroke="#96C9FF" stroke-width="2" stroke-linecap="round" stroke-linejoin="round"/>
<path d="M109.937 660.664C109.937 644.49 116.362 628.978 127.798 617.542C139.235 606.105 154.747 599.68 170.921 599.68C187.095 599.68 202.606 606.105 214.043 617.542C225.48 628.978 231.905 644.49 231.905 660.664L109.937 660.664Z" stroke="white" stroke-width="2" stroke-linecap="round" stroke-linejoin="round"/>
<path d="M109.937 660.664C109.937 644.49 116.362 628.978 127.798 617.542C139.235 606.105 154.747 599.68 170.921 599.68C187.095 599.68 202.606 606.105 214.043 617.542C225.48 628.978 231.905 644.49 231.905 660.664L109.937 660.664Z" stroke="#96C9FF" stroke-width="2" stroke-linecap="round" stroke-linejoin="round"/>
<path d="M109.937 721C109.937 704.826 116.362 689.315 127.798 677.878C139.235 666.441 154.747 660.016 170.921 660.016C187.095 660.016 202.606 666.441 214.043 677.878C225.48 689.315 231.905 704.826 231.905 721L109.937 721Z" stroke="white" stroke-width="2" stroke-linecap="round" stroke-linejoin="round"/>
<path d="M109.937 721C109.937 704.826 116.362 689.315 127.798 677.878C139.235 666.441 154.747 660.016 170.921 660.016C187.095 660.016 202.606 666.441 214.043 677.878C225.48 689.315 231.905 704.826 231.905 721L109.937 721Z" stroke="#96C9FF" stroke-width="2" stroke-linecap="round" stroke-linejoin="round"/>
</g>
<g opacity="0.5">
<path d="M108.937 660.016C108.937 676.19 102.511 691.701 91.0747 703.138C79.638 714.575 64.1264 721 47.9524 721C31.7784 721 16.2669 714.575 4.83015 703.138C-6.60659 691.702 -13.0317 676.19 -13.0317 660.016L108.937 660.016Z" stroke="white" stroke-width="2" stroke-linecap="round" stroke-linejoin="round"/>
<path d="M108.937 660.016C108.937 676.19 102.511 691.701 91.0747 703.138C79.638 714.575 64.1264 721 47.9524 721C31.7784 721 16.2669 714.575 4.83015 703.138C-6.60659 691.702 -13.0317 676.19 -13.0317 660.016L108.937 660.016Z" stroke="#96C9FF" stroke-width="2" stroke-linecap="round" stroke-linejoin="round"/>
<path d="M108.937 479.008C108.937 495.182 102.511 510.693 91.0747 522.13C79.638 533.567 64.1264 539.992 47.9524 539.992C31.7784 539.992 16.2669 533.567 4.83015 522.13C-6.60659 510.693 -13.0317 495.182 -13.0317 479.008L108.937 479.008Z" stroke="white" stroke-width="2" stroke-linecap="round" stroke-linejoin="round"/>
<path d="M108.937 479.008C108.937 495.182 102.511 510.693 91.0747 522.13C79.638 533.567 64.1264 539.992 47.9524 539.992C31.7784 539.992 16.2669 533.567 4.83015 522.13C-6.60659 510.693 -13.0317 495.182 -13.0317 479.008L108.937 479.008Z" stroke="#96C9FF" stroke-width="2" stroke-linecap="round" stroke-linejoin="round"/>
<path d="M108.937 599.68C108.937 615.854 102.511 631.366 91.0747 642.802C79.638 654.239 64.1264 660.664 47.9524 660.664C31.7784 660.664 16.2669 654.239 4.83015 642.802C-6.60659 631.366 -13.0317 615.854 -13.0317 599.68L108.937 599.68Z" stroke="white" stroke-width="2" stroke-linecap="round" stroke-linejoin="round"/>
<path d="M108.937 599.68C108.937 615.854 102.511 631.366 91.0747 642.802C79.638 654.239 64.1264 660.664 47.9524 660.664C31.7784 660.664 16.2669 654.239 4.83015 642.802C-6.60659 631.366 -13.0317 615.854 -13.0317 599.68L108.937 599.68Z" stroke="#96C9FF" stroke-width="2" stroke-linecap="round" stroke-linejoin="round"/>
<path d="M108.937 418.672C108.937 434.846 102.511 450.358 91.0747 461.794C79.638 473.231 64.1264 479.656 47.9524 479.656C31.7784 479.656 16.2669 473.231 4.83015 461.794C-6.60659 450.358 -13.0317 434.846 -13.0317 418.672L108.937 418.672Z" stroke="white" stroke-width="2" stroke-linecap="round" stroke-linejoin="round"/>
<path d="M108.937 418.672C108.937 434.846 102.511 450.358 91.0747 461.794C79.638 473.231 64.1264 479.656 47.9524 479.656C31.7784 479.656 16.2669 473.231 4.83015 461.794C-6.60659 450.358 -13.0317 434.846 -13.0317 418.672L108.937 418.672Z" stroke="#96C9FF" stroke-width="2" stroke-linecap="round" stroke-linejoin="round"/>
<path d="M108.937 539.344C108.937 555.518 102.511 571.03 91.0747 582.466C79.638 593.903 64.1264 600.328 47.9524 600.328C31.7784 600.328 16.2669 593.903 4.83015 582.466C-6.60659 571.03 -13.0317 555.518 -13.0317 539.344L108.937 539.344Z" stroke="white" stroke-width="2" stroke-linecap="round" stroke-linejoin="round"/>
<path d="M108.937 539.344C108.937 555.518 102.511 571.03 91.0747 582.466C79.638 593.903 64.1264 600.328 47.9524 600.328C31.7784 600.328 16.2669 593.903 4.83015 582.466C-6.60659 571.03 -13.0317 555.518 -13.0317 539.344L108.937 539.344Z" stroke="#96C9FF" stroke-width="2" stroke-linecap="round" stroke-linejoin="round"/>
<path d="M108.937 358.336C108.937 374.51 102.511 390.022 91.0747 401.458C79.638 412.895 64.1264 419.32 47.9524 419.32C31.7784 419.32 16.2669 412.895 4.83015 401.458C-6.60659 390.022 -13.0317 374.51 -13.0317 358.336L108.937 358.336Z" stroke="white" stroke-width="2" stroke-linecap="round" stroke-linejoin="round"/>
<path d="M108.937 358.336C108.937 374.51 102.511 390.022 91.0747 401.458C79.638 412.895 64.1264 419.32 47.9524 419.32C31.7784 419.32 16.2669 412.895 4.83015 401.458C-6.60659 390.022 -13.0317 374.51 -13.0317 358.336L108.937 358.336Z" stroke="#96C9FF" stroke-width="2" stroke-linecap="round" stroke-linejoin="round"/>
<path d="M108.937 298C108.937 314.174 102.511 329.686 91.0747 341.122C79.638 352.559 64.1264 358.984 47.9524 358.984C31.7784 358.984 16.2669 352.559 4.83015 341.122C-6.60659 329.686 -13.0317 314.174 -13.0317 298L108.937 298Z" stroke="white" stroke-width="2" stroke-linecap="round" stroke-linejoin="round"/>
<path d="M108.937 298C108.937 314.174 102.511 329.686 91.0747 341.122C79.638 352.559 64.1264 358.984 47.9524 358.984C31.7784 358.984 16.2669 352.559 4.83015 341.122C-6.60659 329.686 -13.0317 314.174 -13.0317 298L108.937 298Z" stroke="#96C9FF" stroke-width="2" stroke-linecap="round" stroke-linejoin="round"/>
</g>
<g opacity="0.4">
<path d="M594.231 535.667C594.231 543.977 590.932 551.947 585.06 557.823C579.188 563.699 571.225 567 562.921 567C554.617 567 546.653 563.699 540.781 557.823C534.909 551.947 531.611 543.977 531.611 535.667L594.231 535.667Z" stroke="#005EF6" stroke-width="2" stroke-linecap="round" stroke-linejoin="round"/>
<path d="M594.231 504.333C594.231 512.643 590.932 520.613 585.06 526.489C579.188 532.365 571.225 535.666 562.921 535.666C554.617 535.666 546.653 532.365 540.781 526.489C534.909 520.613 531.611 512.643 531.611 504.333L594.231 504.333Z" stroke="#005EF6" stroke-width="2" stroke-linecap="round" stroke-linejoin="round"/>
<path d="M594.231 473C594.231 481.31 590.932 489.28 585.06 495.156C579.188 501.032 571.225 504.333 562.921 504.333C554.617 504.333 546.653 501.032 540.781 495.156C534.909 489.28 531.611 481.31 531.611 473L594.231 473Z" stroke="#005EF6" stroke-width="2" stroke-linecap="round" stroke-linejoin="round"/>
</g>
</g>
<defs>
<linearGradient id="paint0_linear_1628_11468" x1="784.393" y1="642.949" x2="668.406" y2="641.021" gradientUnits="userSpaceOnUse">
<stop stop-color="#EA3323"/>
<stop offset="1" stop-color="#275DF3"/>
</linearGradient>
<linearGradient id="paint1_linear_1628_11468" x1="784.393" y1="763.621" x2="668.406" y2="761.693" gradientUnits="userSpaceOnUse">
<stop stop-color="#EA3323"/>
<stop offset="1" stop-color="#275DF3"/>
</linearGradient>
<linearGradient id="paint2_linear_1628_11468" x1="784.393" y1="582.613" x2="668.406" y2="580.685" gradientUnits="userSpaceOnUse">
<stop stop-color="#EA3323"/>
<stop offset="1" stop-color="#275DF3"/>
</linearGradient>
<linearGradient id="paint3_linear_1628_11468" x1="784.393" y1="703.285" x2="668.406" y2="701.357" gradientUnits="userSpaceOnUse">
<stop stop-color="#EA3323"/>
<stop offset="1" stop-color="#275DF3"/>
</linearGradient>
<linearGradient id="paint4_linear_1628_11468" x1="784.393" y1="522.277" x2="668.406" y2="520.349" gradientUnits="userSpaceOnUse">
<stop stop-color="#EA3323"/>
<stop offset="1" stop-color="#275DF3"/>
</linearGradient>
<linearGradient id="paint5_linear_1628_11468" x1="784.393" y1="461.941" x2="668.406" y2="460.013" gradientUnits="userSpaceOnUse">
<stop stop-color="#EA3323"/>
<stop offset="1" stop-color="#275DF3"/>
</linearGradient>
<linearGradient id="paint6_linear_1628_11468" x1="1029.05" y1="642.949" x2="913.061" y2="641.021" gradientUnits="userSpaceOnUse">
<stop stop-color="#EA3323"/>
<stop offset="1" stop-color="#275DF3"/>
</linearGradient>
<linearGradient id="paint7_linear_1628_11468" x1="1029.05" y1="763.621" x2="913.061" y2="761.693" gradientUnits="userSpaceOnUse">
<stop stop-color="#EA3323"/>
<stop offset="1" stop-color="#275DF3"/>
</linearGradient>
<linearGradient id="paint8_linear_1628_11468" x1="1029.05" y1="582.613" x2="913.061" y2="580.685" gradientUnits="userSpaceOnUse">
<stop stop-color="#EA3323"/>
<stop offset="1" stop-color="#275DF3"/>
</linearGradient>
<linearGradient id="paint9_linear_1628_11468" x1="1029.05" y1="703.285" x2="913.061" y2="701.357" gradientUnits="userSpaceOnUse">
<stop stop-color="#EA3323"/>
<stop offset="1" stop-color="#275DF3"/>
</linearGradient>
<linearGradient id="paint10_linear_1628_11468" x1="1029.05" y1="522.277" x2="913.061" y2="520.349" gradientUnits="userSpaceOnUse">
<stop stop-color="#EA3323"/>
<stop offset="1" stop-color="#275DF3"/>
</linearGradient>
<linearGradient id="paint11_linear_1628_11468" x1="1029.05" y1="461.941" x2="913.061" y2="460.013" gradientUnits="userSpaceOnUse">
<stop stop-color="#EA3323"/>
<stop offset="1" stop-color="#275DF3"/>
</linearGradient>
<linearGradient id="paint12_linear_1628_11468" x1="1273.7" y1="642.949" x2="1157.72" y2="641.021" gradientUnits="userSpaceOnUse">
<stop stop-color="#EA3323"/>
<stop offset="1" stop-color="#275DF3"/>
</linearGradient>
<linearGradient id="paint13_linear_1628_11468" x1="1273.7" y1="763.621" x2="1157.72" y2="761.693" gradientUnits="userSpaceOnUse">
<stop stop-color="#EA3323"/>
<stop offset="1" stop-color="#275DF3"/>
</linearGradient>
<linearGradient id="paint14_linear_1628_11468" x1="1273.7" y1="582.613" x2="1157.72" y2="580.685" gradientUnits="userSpaceOnUse">
<stop stop-color="#EA3323"/>
<stop offset="1" stop-color="#275DF3"/>
</linearGradient>
<linearGradient id="paint15_linear_1628_11468" x1="1273.7" y1="703.285" x2="1157.72" y2="701.357" gradientUnits="userSpaceOnUse">
<stop stop-color="#EA3323"/>
<stop offset="1" stop-color="#275DF3"/>
</linearGradient>
<linearGradient id="paint16_linear_1628_11468" x1="1273.7" y1="522.277" x2="1157.72" y2="520.349" gradientUnits="userSpaceOnUse">
<stop stop-color="#EA3323"/>
<stop offset="1" stop-color="#275DF3"/>
</linearGradient>
<linearGradient id="paint17_linear_1628_11468" x1="1273.7" y1="461.941" x2="1157.72" y2="460.013" gradientUnits="userSpaceOnUse">
<stop stop-color="#EA3323"/>
<stop offset="1" stop-color="#275DF3"/>
</linearGradient>
<linearGradient id="paint18_linear_1628_11468" x1="785.043" y1="469.043" x2="901.031" y2="470.971" gradientUnits="userSpaceOnUse">
<stop stop-color="#EA3323"/>
<stop offset="1" stop-color="#275DF3"/>
</linearGradient>
<linearGradient id="paint19_linear_1628_11468" x1="785.043" y1="650.051" x2="901.031" y2="651.979" gradientUnits="userSpaceOnUse">
<stop stop-color="#EA3323"/>
<stop offset="1" stop-color="#275DF3"/>
</linearGradient>
<linearGradient id="paint20_linear_1628_11468" x1="785.043" y1="529.379" x2="901.031" y2="531.307" gradientUnits="userSpaceOnUse">
<stop stop-color="#EA3323"/>
<stop offset="1" stop-color="#275DF3"/>
</linearGradient>
<linearGradient id="paint21_linear_1628_11468" x1="785.043" y1="710.387" x2="901.031" y2="712.315" gradientUnits="userSpaceOnUse">
<stop stop-color="#EA3323"/>
<stop offset="1" stop-color="#275DF3"/>
</linearGradient>
<linearGradient id="paint22_linear_1628_11468" x1="785.043" y1="589.715" x2="901.031" y2="591.643" gradientUnits="userSpaceOnUse">
<stop stop-color="#EA3323"/>
<stop offset="1" stop-color="#275DF3"/>
</linearGradient>
<linearGradient id="paint23_linear_1628_11468" x1="785.043" y1="770.723" x2="901.031" y2="772.651" gradientUnits="userSpaceOnUse">
<stop stop-color="#EA3323"/>
<stop offset="1" stop-color="#275DF3"/>
</linearGradient>
<linearGradient id="paint24_linear_1628_11468" x1="1029.7" y1="469.043" x2="1145.69" y2="470.971" gradientUnits="userSpaceOnUse">
<stop stop-color="#EA3323"/>
<stop offset="1" stop-color="#275DF3"/>
</linearGradient>
<linearGradient id="paint25_linear_1628_11468" x1="1029.7" y1="650.051" x2="1145.69" y2="651.979" gradientUnits="userSpaceOnUse">
<stop stop-color="#EA3323"/>
<stop offset="1" stop-color="#275DF3"/>
</linearGradient>
<linearGradient id="paint26_linear_1628_11468" x1="1029.7" y1="529.379" x2="1145.69" y2="531.307" gradientUnits="userSpaceOnUse">
<stop stop-color="#EA3323"/>
<stop offset="1" stop-color="#275DF3"/>
</linearGradient>
<linearGradient id="paint27_linear_1628_11468" x1="1029.7" y1="710.387" x2="1145.69" y2="712.315" gradientUnits="userSpaceOnUse">
<stop stop-color="#EA3323"/>
<stop offset="1" stop-color="#275DF3"/>
</linearGradient>
<linearGradient id="paint28_linear_1628_11468" x1="1029.7" y1="589.715" x2="1145.69" y2="591.643" gradientUnits="userSpaceOnUse">
<stop stop-color="#EA3323"/>
<stop offset="1" stop-color="#275DF3"/>
</linearGradient>
<linearGradient id="paint29_linear_1628_11468" x1="1029.7" y1="770.723" x2="1145.69" y2="772.651" gradientUnits="userSpaceOnUse">
<stop stop-color="#EA3323"/>
<stop offset="1" stop-color="#275DF3"/>
</linearGradient>
<linearGradient id="paint30_linear_1628_11468" x1="1029.7" y1="469.043" x2="1145.69" y2="470.971" gradientUnits="userSpaceOnUse">
<stop stop-color="#EA3323"/>
<stop offset="1" stop-color="#275DF3"/>
</linearGradient>
<linearGradient id="paint31_linear_1628_11468" x1="1029.7" y1="650.051" x2="1145.69" y2="651.979" gradientUnits="userSpaceOnUse">
<stop stop-color="#EA3323"/>
<stop offset="1" stop-color="#275DF3"/>
</linearGradient>
<linearGradient id="paint32_linear_1628_11468" x1="1029.7" y1="529.379" x2="1145.69" y2="531.307" gradientUnits="userSpaceOnUse">
<stop stop-color="#EA3323"/>
<stop offset="1" stop-color="#275DF3"/>
</linearGradient>
<linearGradient id="paint33_linear_1628_11468" x1="1029.7" y1="710.387" x2="1145.69" y2="712.315" gradientUnits="userSpaceOnUse">
<stop stop-color="#EA3323"/>
<stop offset="1" stop-color="#275DF3"/>
</linearGradient>
<linearGradient id="paint34_linear_1628_11468" x1="1029.7" y1="589.715" x2="1145.69" y2="591.643" gradientUnits="userSpaceOnUse">
<stop stop-color="#EA3323"/>
<stop offset="1" stop-color="#275DF3"/>
</linearGradient>
<linearGradient id="paint35_linear_1628_11468" x1="1029.7" y1="770.723" x2="1145.69" y2="772.651" gradientUnits="userSpaceOnUse">
<stop stop-color="#EA3323"/>
<stop offset="1" stop-color="#275DF3"/>
</linearGradient>
<linearGradient id="paint36_linear_1628_11468" x1="1273.2" y1="469.043" x2="1389.19" y2="470.971" gradientUnits="userSpaceOnUse">
<stop stop-color="#EA3323"/>
<stop offset="1" stop-color="#275DF3"/>
</linearGradient>
<linearGradient id="paint37_linear_1628_11468" x1="1273.2" y1="650.051" x2="1389.19" y2="651.979" gradientUnits="userSpaceOnUse">
<stop stop-color="#EA3323"/>
<stop offset="1" stop-color="#275DF3"/>
</linearGradient>
<linearGradient id="paint38_linear_1628_11468" x1="1273.2" y1="529.379" x2="1389.19" y2="531.307" gradientUnits="userSpaceOnUse">
<stop stop-color="#EA3323"/>
<stop offset="1" stop-color="#275DF3"/>
</linearGradient>
<linearGradient id="paint39_linear_1628_11468" x1="1273.2" y1="710.387" x2="1389.19" y2="712.315" gradientUnits="userSpaceOnUse">
<stop stop-color="#EA3323"/>
<stop offset="1" stop-color="#275DF3"/>
</linearGradient>
<linearGradient id="paint40_linear_1628_11468" x1="1273.2" y1="589.715" x2="1389.19" y2="591.643" gradientUnits="userSpaceOnUse">
<stop stop-color="#EA3323"/>
<stop offset="1" stop-color="#275DF3"/>
</linearGradient>
<linearGradient id="paint41_linear_1628_11468" x1="1273.2" y1="770.723" x2="1389.19" y2="772.651" gradientUnits="userSpaceOnUse">
<stop stop-color="#EA3323"/>
<stop offset="1" stop-color="#275DF3"/>
</linearGradient>
<clipPath id="clip0_1628_11468">
<rect width="1365" height="761" fill="white"/>
</clipPath>
</defs>
</svg>
