<svg width="704" height="327" viewBox="0 0 704 327" fill="none" xmlns="http://www.w3.org/2000/svg">
    <g opacity="0.2">
        <g opacity="0.5">
            <path
                d="M122.968 182.008C122.968 198.182 116.543 213.693 105.106 225.13C93.6696 236.567 78.158 242.992 61.984 242.992C45.81 242.992 30.2985 236.567 18.8618 225.13C7.42502 213.693 0.99993 198.182 0.999929 182.008L122.968 182.008Z"
                stroke="url(#paint0_linear_1487_12336)" stroke-width="2" stroke-linecap="round"
                stroke-linejoin="round" />
            <path
                d="M122.968 302.68C122.968 318.854 116.543 334.365 105.106 345.802C93.6696 357.239 78.158 363.664 61.984 363.664C45.81 363.664 30.2985 357.239 18.8618 345.802C7.42502 334.365 0.99993 318.854 0.999929 302.68L122.968 302.68Z"
                stroke="url(#paint1_linear_1487_12336)" stroke-width="2" stroke-linecap="round"
                stroke-linejoin="round" />
            <path
                d="M122.968 121.672C122.968 137.846 116.543 153.358 105.106 164.794C93.6696 176.231 78.158 182.656 61.984 182.656C45.81 182.656 30.2985 176.231 18.8618 164.794C7.42502 153.358 0.99993 137.846 0.999929 121.672L122.968 121.672Z"
                stroke="url(#paint2_linear_1487_12336)" stroke-width="2" stroke-linecap="round"
                stroke-linejoin="round" />
            <path
                d="M122.968 242.344C122.968 258.518 116.543 274.029 105.106 285.466C93.6696 296.903 78.158 303.328 61.984 303.328C45.81 303.328 30.2985 296.903 18.8618 285.466C7.42502 274.029 0.99993 258.518 0.999929 242.344L122.968 242.344Z"
                stroke="url(#paint3_linear_1487_12336)" stroke-width="2" stroke-linecap="round"
                stroke-linejoin="round" />
            <path
                d="M122.968 61.3361C122.968 77.5101 116.543 93.0217 105.106 104.458C93.6696 115.895 78.158 122.32 61.984 122.32C45.81 122.32 30.2985 115.895 18.8618 104.458C7.42502 93.0217 0.99993 77.5101 0.999929 61.3361L122.968 61.3361Z"
                stroke="url(#paint4_linear_1487_12336)" stroke-width="2" stroke-linecap="round"
                stroke-linejoin="round" />
            <path
                d="M122.968 0.999998C122.968 17.174 116.543 32.6855 105.106 44.1223C93.6696 55.559 78.158 61.9841 61.984 61.9841C45.81 61.9841 30.2985 55.559 18.8618 44.1223C7.42502 32.6855 0.99993 17.174 0.999929 1.00001L122.968 0.999998Z"
                stroke="url(#paint5_linear_1487_12336)" stroke-width="2" stroke-linecap="round"
                stroke-linejoin="round" />
        </g>
        <g opacity="0.5">
            <path
                d="M367.802 182.008C367.802 198.182 361.377 213.693 349.941 225.13C338.504 236.567 322.992 242.992 306.818 242.992C290.644 242.992 275.133 236.567 263.696 225.13C252.259 213.693 245.834 198.182 245.834 182.008L367.802 182.008Z"
                stroke="url(#paint6_linear_1487_12336)" stroke-width="2" stroke-linecap="round"
                stroke-linejoin="round" />
            <path
                d="M367.802 302.68C367.802 318.854 361.377 334.365 349.941 345.802C338.504 357.239 322.992 363.664 306.818 363.664C290.644 363.664 275.133 357.239 263.696 345.802C252.259 334.365 245.834 318.854 245.834 302.68L367.802 302.68Z"
                stroke="url(#paint7_linear_1487_12336)" stroke-width="2" stroke-linecap="round"
                stroke-linejoin="round" />
            <path
                d="M367.802 121.672C367.802 137.846 361.377 153.358 349.941 164.794C338.504 176.231 322.992 182.656 306.818 182.656C290.644 182.656 275.133 176.231 263.696 164.794C252.259 153.358 245.834 137.846 245.834 121.672L367.802 121.672Z"
                stroke="url(#paint8_linear_1487_12336)" stroke-width="2" stroke-linecap="round"
                stroke-linejoin="round" />
            <path
                d="M367.802 242.344C367.802 258.518 361.377 274.029 349.941 285.466C338.504 296.903 322.992 303.328 306.818 303.328C290.644 303.328 275.133 296.903 263.696 285.466C252.259 274.029 245.834 258.518 245.834 242.344L367.802 242.344Z"
                stroke="url(#paint9_linear_1487_12336)" stroke-width="2" stroke-linecap="round"
                stroke-linejoin="round" />
            <path
                d="M367.802 61.3361C367.802 77.5101 361.377 93.0217 349.941 104.458C338.504 115.895 322.992 122.32 306.818 122.32C290.644 122.32 275.133 115.895 263.696 104.458C252.259 93.0217 245.834 77.5101 245.834 61.3361L367.802 61.3361Z"
                stroke="url(#paint10_linear_1487_12336)" stroke-width="2" stroke-linecap="round"
                stroke-linejoin="round" />
            <path
                d="M367.802 0.999998C367.802 17.174 361.377 32.6855 349.941 44.1223C338.504 55.559 322.992 61.9841 306.818 61.9841C290.644 61.9841 275.133 55.559 263.696 44.1223C252.259 32.6855 245.834 17.174 245.834 1.00001L367.802 0.999998Z"
                stroke="url(#paint11_linear_1487_12336)" stroke-width="2" stroke-linecap="round"
                stroke-linejoin="round" />
        </g>
        <g opacity="0.5">
            <path
                d="M612.637 182.008C612.637 198.182 606.212 213.693 594.775 225.13C583.339 236.567 567.827 242.992 551.653 242.992C535.479 242.992 519.967 236.567 508.531 225.13C497.094 213.693 490.669 198.182 490.669 182.008L612.637 182.008Z"
                stroke="url(#paint12_linear_1487_12336)" stroke-width="2" stroke-linecap="round"
                stroke-linejoin="round" />
            <path
                d="M612.637 302.68C612.637 318.854 606.212 334.365 594.775 345.802C583.339 357.239 567.827 363.664 551.653 363.664C535.479 363.664 519.967 357.239 508.531 345.802C497.094 334.365 490.669 318.854 490.669 302.68L612.637 302.68Z"
                stroke="url(#paint13_linear_1487_12336)" stroke-width="2" stroke-linecap="round"
                stroke-linejoin="round" />
            <path
                d="M612.637 121.672C612.637 137.846 606.212 153.358 594.775 164.794C583.339 176.231 567.827 182.656 551.653 182.656C535.479 182.656 519.967 176.231 508.531 164.794C497.094 153.358 490.669 137.846 490.669 121.672L612.637 121.672Z"
                stroke="url(#paint14_linear_1487_12336)" stroke-width="2" stroke-linecap="round"
                stroke-linejoin="round" />
            <path
                d="M612.637 242.344C612.637 258.518 606.212 274.029 594.775 285.466C583.339 296.903 567.827 303.328 551.653 303.328C535.479 303.328 519.967 296.903 508.531 285.466C497.094 274.029 490.669 258.518 490.669 242.344L612.637 242.344Z"
                stroke="url(#paint15_linear_1487_12336)" stroke-width="2" stroke-linecap="round"
                stroke-linejoin="round" />
            <path
                d="M612.637 61.3361C612.637 77.5101 606.212 93.0217 594.775 104.458C583.339 115.895 567.827 122.32 551.653 122.32C535.479 122.32 519.967 115.895 508.531 104.458C497.094 93.0217 490.669 77.5101 490.669 61.3361L612.637 61.3361Z"
                stroke="url(#paint16_linear_1487_12336)" stroke-width="2" stroke-linecap="round"
                stroke-linejoin="round" />
            <path
                d="M612.637 0.999998C612.637 17.174 606.212 32.6855 594.775 44.1223C583.339 55.559 567.827 61.9841 551.653 61.9841C535.479 61.9841 519.967 55.559 508.531 44.1223C497.094 32.6855 490.669 17.174 490.669 1.00001L612.637 0.999998Z"
                stroke="url(#paint17_linear_1487_12336)" stroke-width="2" stroke-linecap="round"
                stroke-linejoin="round" />
        </g>
        <g opacity="0.5">
            <path
                d="M123.618 61.9841C123.618 45.8101 130.043 30.2986 141.48 18.8618C152.917 7.42509 168.428 1 184.602 1C200.776 1 216.288 7.42509 227.725 18.8618C239.161 30.2986 245.586 45.8101 245.586 61.9841L123.618 61.9841Z"
                stroke="url(#paint18_linear_1487_12336)" stroke-width="2" stroke-linecap="round"
                stroke-linejoin="round" />
            <path
                d="M123.618 242.992C123.618 226.818 130.043 211.307 141.48 199.87C152.917 188.433 168.428 182.008 184.602 182.008C200.776 182.008 216.288 188.433 227.725 199.87C239.161 211.307 245.586 226.818 245.586 242.992H123.618Z"
                stroke="url(#paint19_linear_1487_12336)" stroke-width="2" stroke-linecap="round"
                stroke-linejoin="round" />
            <path
                d="M123.618 122.32C123.618 106.146 130.043 90.6344 141.48 79.1977C152.917 67.7609 168.428 61.3358 184.602 61.3358C200.776 61.3358 216.288 67.7609 227.725 79.1977C239.161 90.6344 245.586 106.146 245.586 122.32L123.618 122.32Z"
                stroke="url(#paint20_linear_1487_12336)" stroke-width="2" stroke-linecap="round"
                stroke-linejoin="round" />
            <path
                d="M123.618 303.328C123.618 287.154 130.043 271.643 141.48 260.206C152.917 248.769 168.428 242.344 184.602 242.344C200.776 242.344 216.288 248.769 227.725 260.206C239.161 271.643 245.586 287.154 245.586 303.328H123.618Z"
                stroke="url(#paint21_linear_1487_12336)" stroke-width="2" stroke-linecap="round"
                stroke-linejoin="round" />
            <path
                d="M123.618 182.656C123.618 166.482 130.043 150.971 141.48 139.534C152.917 128.097 168.428 121.672 184.602 121.672C200.776 121.672 216.288 128.097 227.725 139.534C239.161 150.971 245.586 166.482 245.586 182.656H123.618Z"
                stroke="url(#paint22_linear_1487_12336)" stroke-width="2" stroke-linecap="round"
                stroke-linejoin="round" />
            <path
                d="M123.618 363.664C123.618 347.49 130.043 331.978 141.48 320.542C152.917 309.105 168.428 302.68 184.602 302.68C200.776 302.68 216.288 309.105 227.725 320.542C239.161 331.978 245.586 347.49 245.586 363.664H123.618Z"
                stroke="url(#paint23_linear_1487_12336)" stroke-width="2" stroke-linecap="round"
                stroke-linejoin="round" />
        </g>
        <g opacity="0.5">
            <path
                d="M368.453 61.9841C368.453 45.8101 374.878 30.2986 386.314 18.8618C397.751 7.42509 413.263 1 429.437 1C445.611 1 461.122 7.42509 472.559 18.8618C483.996 30.2986 490.421 45.8101 490.421 61.9841L368.453 61.9841Z"
                stroke="url(#paint24_linear_1487_12336)" stroke-width="2" stroke-linecap="round"
                stroke-linejoin="round" />
            <path
                d="M368.453 242.992C368.453 226.818 374.878 211.307 386.314 199.87C397.751 188.433 413.263 182.008 429.437 182.008C445.611 182.008 461.122 188.433 472.559 199.87C483.996 211.307 490.421 226.818 490.421 242.992H368.453Z"
                stroke="url(#paint25_linear_1487_12336)" stroke-width="2" stroke-linecap="round"
                stroke-linejoin="round" />
            <path
                d="M368.453 122.32C368.453 106.146 374.878 90.6344 386.314 79.1977C397.751 67.7609 413.263 61.3358 429.437 61.3358C445.611 61.3358 461.122 67.7609 472.559 79.1977C483.996 90.6344 490.421 106.146 490.421 122.32L368.453 122.32Z"
                stroke="url(#paint26_linear_1487_12336)" stroke-width="2" stroke-linecap="round"
                stroke-linejoin="round" />
            <path
                d="M368.453 303.328C368.453 287.154 374.878 271.643 386.314 260.206C397.751 248.769 413.263 242.344 429.437 242.344C445.611 242.344 461.122 248.769 472.559 260.206C483.996 271.643 490.421 287.154 490.421 303.328H368.453Z"
                stroke="url(#paint27_linear_1487_12336)" stroke-width="2" stroke-linecap="round"
                stroke-linejoin="round" />
            <path
                d="M368.453 182.656C368.453 166.482 374.878 150.971 386.314 139.534C397.751 128.097 413.263 121.672 429.437 121.672C445.611 121.672 461.122 128.097 472.559 139.534C483.996 150.971 490.421 166.482 490.421 182.656H368.453Z"
                stroke="url(#paint28_linear_1487_12336)" stroke-width="2" stroke-linecap="round"
                stroke-linejoin="round" />
            <path
                d="M368.453 363.664C368.453 347.49 374.878 331.978 386.314 320.542C397.751 309.105 413.263 302.68 429.437 302.68C445.611 302.68 461.122 309.105 472.559 320.542C483.996 331.978 490.421 347.49 490.421 363.664H368.453Z"
                stroke="url(#paint29_linear_1487_12336)" stroke-width="2" stroke-linecap="round"
                stroke-linejoin="round" />
        </g>
        <g opacity="0.5">
            <path
                d="M368.453 61.9841C368.453 45.8101 374.878 30.2986 386.314 18.8618C397.751 7.42509 413.263 1 429.437 1C445.611 1 461.122 7.42509 472.559 18.8618C483.996 30.2986 490.421 45.8101 490.421 61.9841L368.453 61.9841Z"
                stroke="url(#paint30_linear_1487_12336)" stroke-width="2" stroke-linecap="round"
                stroke-linejoin="round" />
            <path
                d="M368.453 242.992C368.453 226.818 374.878 211.307 386.314 199.87C397.751 188.433 413.263 182.008 429.437 182.008C445.611 182.008 461.122 188.433 472.559 199.87C483.996 211.307 490.421 226.818 490.421 242.992H368.453Z"
                stroke="url(#paint31_linear_1487_12336)" stroke-width="2" stroke-linecap="round"
                stroke-linejoin="round" />
            <path
                d="M368.453 122.32C368.453 106.146 374.878 90.6344 386.314 79.1977C397.751 67.7609 413.263 61.3358 429.437 61.3358C445.611 61.3358 461.122 67.7609 472.559 79.1977C483.996 90.6344 490.421 106.146 490.421 122.32L368.453 122.32Z"
                stroke="url(#paint32_linear_1487_12336)" stroke-width="2" stroke-linecap="round"
                stroke-linejoin="round" />
            <path
                d="M368.453 303.328C368.453 287.154 374.878 271.643 386.314 260.206C397.751 248.769 413.263 242.344 429.437 242.344C445.611 242.344 461.122 248.769 472.559 260.206C483.996 271.643 490.421 287.154 490.421 303.328H368.453Z"
                stroke="url(#paint33_linear_1487_12336)" stroke-width="2" stroke-linecap="round"
                stroke-linejoin="round" />
            <path
                d="M368.453 182.656C368.453 166.482 374.878 150.971 386.314 139.534C397.751 128.097 413.263 121.672 429.437 121.672C445.611 121.672 461.122 128.097 472.559 139.534C483.996 150.971 490.421 166.482 490.421 182.656H368.453Z"
                stroke="url(#paint34_linear_1487_12336)" stroke-width="2" stroke-linecap="round"
                stroke-linejoin="round" />
            <path
                d="M368.453 363.664C368.453 347.49 374.878 331.978 386.314 320.542C397.751 309.105 413.263 302.68 429.437 302.68C445.611 302.68 461.122 309.105 472.559 320.542C483.996 331.978 490.421 347.49 490.421 363.664H368.453Z"
                stroke="url(#paint35_linear_1487_12336)" stroke-width="2" stroke-linecap="round"
                stroke-linejoin="round" />
        </g>
        <g opacity="0.5">
            <path
                d="M612.138 61.9841C612.138 45.8101 618.563 30.2986 630 18.8618C641.436 7.42509 656.948 1 673.122 1C689.296 1 704.807 7.42509 716.244 18.8618C727.681 30.2986 734.106 45.8101 734.106 61.9841L612.138 61.9841Z"
                stroke="url(#paint36_linear_1487_12336)" stroke-width="2" stroke-linecap="round"
                stroke-linejoin="round" />
            <path
                d="M612.138 242.992C612.138 226.818 618.563 211.307 630 199.87C641.436 188.433 656.948 182.008 673.122 182.008C689.296 182.008 704.807 188.433 716.244 199.87C727.681 211.307 734.106 226.818 734.106 242.992H612.138Z"
                stroke="url(#paint37_linear_1487_12336)" stroke-width="2" stroke-linecap="round"
                stroke-linejoin="round" />
            <path
                d="M612.138 122.32C612.138 106.146 618.563 90.6344 630 79.1977C641.436 67.7609 656.948 61.3358 673.122 61.3358C689.296 61.3358 704.807 67.7609 716.244 79.1977C727.681 90.6344 734.106 106.146 734.106 122.32L612.138 122.32Z"
                stroke="url(#paint38_linear_1487_12336)" stroke-width="2" stroke-linecap="round"
                stroke-linejoin="round" />
            <path
                d="M612.138 303.328C612.138 287.154 618.563 271.643 630 260.206C641.436 248.769 656.948 242.344 673.122 242.344C689.296 242.344 704.807 248.769 716.244 260.206C727.681 271.643 734.106 287.154 734.106 303.328H612.138Z"
                stroke="url(#paint39_linear_1487_12336)" stroke-width="2" stroke-linecap="round"
                stroke-linejoin="round" />
            <path
                d="M612.138 182.656C612.138 166.482 618.563 150.971 630 139.534C641.436 128.097 656.948 121.672 673.122 121.672C689.296 121.672 704.807 128.097 716.244 139.534C727.681 150.971 734.106 166.482 734.106 182.656H612.138Z"
                stroke="url(#paint40_linear_1487_12336)" stroke-width="2" stroke-linecap="round"
                stroke-linejoin="round" />
            <path
                d="M612.138 363.664C612.138 347.49 618.563 331.978 630 320.542C641.436 309.105 656.948 302.68 673.122 302.68C689.296 302.68 704.807 309.105 716.244 320.542C727.681 331.978 734.106 347.49 734.106 363.664H612.138Z"
                stroke="url(#paint41_linear_1487_12336)" stroke-width="2" stroke-linecap="round"
                stroke-linejoin="round" />
        </g>
    </g>
    <defs>
        <linearGradient id="paint0_linear_1487_12336" x1="122.968" y1="208.949" x2="6.89578" y2="207.018"
            gradientUnits="userSpaceOnUse">
            <stop stop-color="#EA3323" />
            <stop offset="1" stop-color="#275DF3" />
        </linearGradient>
        <linearGradient id="paint1_linear_1487_12336" x1="122.968" y1="329.621" x2="6.89578" y2="327.69"
            gradientUnits="userSpaceOnUse">
            <stop stop-color="#EA3323" />
            <stop offset="1" stop-color="#275DF3" />
        </linearGradient>
        <linearGradient id="paint2_linear_1487_12336" x1="122.968" y1="148.613" x2="6.89578" y2="146.682"
            gradientUnits="userSpaceOnUse">
            <stop stop-color="#EA3323" />
            <stop offset="1" stop-color="#275DF3" />
        </linearGradient>
        <linearGradient id="paint3_linear_1487_12336" x1="122.968" y1="269.285" x2="6.89578" y2="267.354"
            gradientUnits="userSpaceOnUse">
            <stop stop-color="#EA3323" />
            <stop offset="1" stop-color="#275DF3" />
        </linearGradient>
        <linearGradient id="paint4_linear_1487_12336" x1="122.968" y1="88.2772" x2="6.89578" y2="86.3464"
            gradientUnits="userSpaceOnUse">
            <stop stop-color="#EA3323" />
            <stop offset="1" stop-color="#275DF3" />
        </linearGradient>
        <linearGradient id="paint5_linear_1487_12336" x1="122.968" y1="27.9411" x2="6.89578" y2="26.0103"
            gradientUnits="userSpaceOnUse">
            <stop stop-color="#EA3323" />
            <stop offset="1" stop-color="#275DF3" />
        </linearGradient>
        <linearGradient id="paint6_linear_1487_12336" x1="367.802" y1="208.949" x2="251.73" y2="207.018"
            gradientUnits="userSpaceOnUse">
            <stop stop-color="#EA3323" />
            <stop offset="1" stop-color="#275DF3" />
        </linearGradient>
        <linearGradient id="paint7_linear_1487_12336" x1="367.802" y1="329.621" x2="251.73" y2="327.69"
            gradientUnits="userSpaceOnUse">
            <stop stop-color="#EA3323" />
            <stop offset="1" stop-color="#275DF3" />
        </linearGradient>
        <linearGradient id="paint8_linear_1487_12336" x1="367.802" y1="148.613" x2="251.73" y2="146.682"
            gradientUnits="userSpaceOnUse">
            <stop stop-color="#EA3323" />
            <stop offset="1" stop-color="#275DF3" />
        </linearGradient>
        <linearGradient id="paint9_linear_1487_12336" x1="367.802" y1="269.285" x2="251.73" y2="267.354"
            gradientUnits="userSpaceOnUse">
            <stop stop-color="#EA3323" />
            <stop offset="1" stop-color="#275DF3" />
        </linearGradient>
        <linearGradient id="paint10_linear_1487_12336" x1="367.802" y1="88.2772" x2="251.73" y2="86.3464"
            gradientUnits="userSpaceOnUse">
            <stop stop-color="#EA3323" />
            <stop offset="1" stop-color="#275DF3" />
        </linearGradient>
        <linearGradient id="paint11_linear_1487_12336" x1="367.802" y1="27.9411" x2="251.73" y2="26.0103"
            gradientUnits="userSpaceOnUse">
            <stop stop-color="#EA3323" />
            <stop offset="1" stop-color="#275DF3" />
        </linearGradient>
        <linearGradient id="paint12_linear_1487_12336" x1="612.637" y1="208.949" x2="496.565" y2="207.018"
            gradientUnits="userSpaceOnUse">
            <stop stop-color="#EA3323" />
            <stop offset="1" stop-color="#275DF3" />
        </linearGradient>
        <linearGradient id="paint13_linear_1487_12336" x1="612.637" y1="329.621" x2="496.565" y2="327.69"
            gradientUnits="userSpaceOnUse">
            <stop stop-color="#EA3323" />
            <stop offset="1" stop-color="#275DF3" />
        </linearGradient>
        <linearGradient id="paint14_linear_1487_12336" x1="612.637" y1="148.613" x2="496.565" y2="146.682"
            gradientUnits="userSpaceOnUse">
            <stop stop-color="#EA3323" />
            <stop offset="1" stop-color="#275DF3" />
        </linearGradient>
        <linearGradient id="paint15_linear_1487_12336" x1="612.637" y1="269.285" x2="496.565" y2="267.354"
            gradientUnits="userSpaceOnUse">
            <stop stop-color="#EA3323" />
            <stop offset="1" stop-color="#275DF3" />
        </linearGradient>
        <linearGradient id="paint16_linear_1487_12336" x1="612.637" y1="88.2772" x2="496.565" y2="86.3464"
            gradientUnits="userSpaceOnUse">
            <stop stop-color="#EA3323" />
            <stop offset="1" stop-color="#275DF3" />
        </linearGradient>
        <linearGradient id="paint17_linear_1487_12336" x1="612.637" y1="27.9411" x2="496.565" y2="26.0103"
            gradientUnits="userSpaceOnUse">
            <stop stop-color="#EA3323" />
            <stop offset="1" stop-color="#275DF3" />
        </linearGradient>
        <linearGradient id="paint18_linear_1487_12336" x1="123.618" y1="35.043" x2="239.691" y2="36.9739"
            gradientUnits="userSpaceOnUse">
            <stop stop-color="#EA3323" />
            <stop offset="1" stop-color="#275DF3" />
        </linearGradient>
        <linearGradient id="paint19_linear_1487_12336" x1="123.618" y1="216.051" x2="239.691" y2="217.982"
            gradientUnits="userSpaceOnUse">
            <stop stop-color="#EA3323" />
            <stop offset="1" stop-color="#275DF3" />
        </linearGradient>
        <linearGradient id="paint20_linear_1487_12336" x1="123.618" y1="95.3789" x2="239.691" y2="97.3097"
            gradientUnits="userSpaceOnUse">
            <stop stop-color="#EA3323" />
            <stop offset="1" stop-color="#275DF3" />
        </linearGradient>
        <linearGradient id="paint21_linear_1487_12336" x1="123.618" y1="276.387" x2="239.691" y2="278.318"
            gradientUnits="userSpaceOnUse">
            <stop stop-color="#EA3323" />
            <stop offset="1" stop-color="#275DF3" />
        </linearGradient>
        <linearGradient id="paint22_linear_1487_12336" x1="123.618" y1="155.715" x2="239.691" y2="157.646"
            gradientUnits="userSpaceOnUse">
            <stop stop-color="#EA3323" />
            <stop offset="1" stop-color="#275DF3" />
        </linearGradient>
        <linearGradient id="paint23_linear_1487_12336" x1="123.618" y1="336.723" x2="239.691" y2="338.654"
            gradientUnits="userSpaceOnUse">
            <stop stop-color="#EA3323" />
            <stop offset="1" stop-color="#275DF3" />
        </linearGradient>
        <linearGradient id="paint24_linear_1487_12336" x1="368.453" y1="35.043" x2="484.525" y2="36.9739"
            gradientUnits="userSpaceOnUse">
            <stop stop-color="#EA3323" />
            <stop offset="1" stop-color="#275DF3" />
        </linearGradient>
        <linearGradient id="paint25_linear_1487_12336" x1="368.453" y1="216.051" x2="484.525" y2="217.982"
            gradientUnits="userSpaceOnUse">
            <stop stop-color="#EA3323" />
            <stop offset="1" stop-color="#275DF3" />
        </linearGradient>
        <linearGradient id="paint26_linear_1487_12336" x1="368.453" y1="95.3789" x2="484.525" y2="97.3097"
            gradientUnits="userSpaceOnUse">
            <stop stop-color="#EA3323" />
            <stop offset="1" stop-color="#275DF3" />
        </linearGradient>
        <linearGradient id="paint27_linear_1487_12336" x1="368.453" y1="276.387" x2="484.525" y2="278.318"
            gradientUnits="userSpaceOnUse">
            <stop stop-color="#EA3323" />
            <stop offset="1" stop-color="#275DF3" />
        </linearGradient>
        <linearGradient id="paint28_linear_1487_12336" x1="368.453" y1="155.715" x2="484.525" y2="157.646"
            gradientUnits="userSpaceOnUse">
            <stop stop-color="#EA3323" />
            <stop offset="1" stop-color="#275DF3" />
        </linearGradient>
        <linearGradient id="paint29_linear_1487_12336" x1="368.453" y1="336.723" x2="484.525" y2="338.654"
            gradientUnits="userSpaceOnUse">
            <stop stop-color="#EA3323" />
            <stop offset="1" stop-color="#275DF3" />
        </linearGradient>
        <linearGradient id="paint30_linear_1487_12336" x1="368.453" y1="35.043" x2="484.525" y2="36.9739"
            gradientUnits="userSpaceOnUse">
            <stop stop-color="#EA3323" />
            <stop offset="1" stop-color="#275DF3" />
        </linearGradient>
        <linearGradient id="paint31_linear_1487_12336" x1="368.453" y1="216.051" x2="484.525" y2="217.982"
            gradientUnits="userSpaceOnUse">
            <stop stop-color="#EA3323" />
            <stop offset="1" stop-color="#275DF3" />
        </linearGradient>
        <linearGradient id="paint32_linear_1487_12336" x1="368.453" y1="95.3789" x2="484.525" y2="97.3097"
            gradientUnits="userSpaceOnUse">
            <stop stop-color="#EA3323" />
            <stop offset="1" stop-color="#275DF3" />
        </linearGradient>
        <linearGradient id="paint33_linear_1487_12336" x1="368.453" y1="276.387" x2="484.525" y2="278.318"
            gradientUnits="userSpaceOnUse">
            <stop stop-color="#EA3323" />
            <stop offset="1" stop-color="#275DF3" />
        </linearGradient>
        <linearGradient id="paint34_linear_1487_12336" x1="368.453" y1="155.715" x2="484.525" y2="157.646"
            gradientUnits="userSpaceOnUse">
            <stop stop-color="#EA3323" />
            <stop offset="1" stop-color="#275DF3" />
        </linearGradient>
        <linearGradient id="paint35_linear_1487_12336" x1="368.453" y1="336.723" x2="484.525" y2="338.654"
            gradientUnits="userSpaceOnUse">
            <stop stop-color="#EA3323" />
            <stop offset="1" stop-color="#275DF3" />
        </linearGradient>
        <linearGradient id="paint36_linear_1487_12336" x1="612.138" y1="35.043" x2="728.21" y2="36.9739"
            gradientUnits="userSpaceOnUse">
            <stop stop-color="#EA3323" />
            <stop offset="1" stop-color="#275DF3" />
        </linearGradient>
        <linearGradient id="paint37_linear_1487_12336" x1="612.138" y1="216.051" x2="728.21" y2="217.982"
            gradientUnits="userSpaceOnUse">
            <stop stop-color="#EA3323" />
            <stop offset="1" stop-color="#275DF3" />
        </linearGradient>
        <linearGradient id="paint38_linear_1487_12336" x1="612.138" y1="95.3789" x2="728.21" y2="97.3097"
            gradientUnits="userSpaceOnUse">
            <stop stop-color="#EA3323" />
            <stop offset="1" stop-color="#275DF3" />
        </linearGradient>
        <linearGradient id="paint39_linear_1487_12336" x1="612.138" y1="276.387" x2="728.21" y2="278.318"
            gradientUnits="userSpaceOnUse">
            <stop stop-color="#EA3323" />
            <stop offset="1" stop-color="#275DF3" />
        </linearGradient>
        <linearGradient id="paint40_linear_1487_12336" x1="612.138" y1="155.715" x2="728.21" y2="157.646"
            gradientUnits="userSpaceOnUse">
            <stop stop-color="#EA3323" />
            <stop offset="1" stop-color="#275DF3" />
        </linearGradient>
        <linearGradient id="paint41_linear_1487_12336" x1="612.138" y1="336.723" x2="728.21" y2="338.654"
            gradientUnits="userSpaceOnUse">
            <stop stop-color="#EA3323" />
            <stop offset="1" stop-color="#275DF3" />
        </linearGradient>
    </defs>
</svg>