<svg width="24" height="24" viewBox="0 0 24 24" fill="none" xmlns="http://www.w3.org/2000/svg">
<path d="M2.978 17.0018C2.55527 16.2708 2.22666 15.4892 2 14.6758C2.49331 14.4249 2.90759 14.0424 3.19703 13.5707C3.48646 13.0989 3.63977 12.5563 3.63997 12.0029C3.64018 11.4494 3.48728 10.9067 3.1982 10.4348C2.90912 9.96283 2.49512 9.58005 2.002 9.32878C2.45404 7.69426 3.31473 6.20173 4.503 4.99178C4.96709 5.2935 5.50562 5.46094 6.05898 5.47556C6.61234 5.49018 7.15895 5.35141 7.63833 5.07461C8.11771 4.79781 8.51115 4.39377 8.77513 3.90722C9.0391 3.42066 9.16331 2.87055 9.134 2.31778C10.7761 1.8934 12.4992 1.89409 14.141 2.31978C14.112 2.87254 14.2364 3.42257 14.5006 3.90898C14.7648 4.3954 15.1584 4.79925 15.6378 5.07584C16.1173 5.35242 16.6639 5.49096 17.2173 5.47613C17.7706 5.46129 18.309 5.29366 18.773 4.99178C19.352 5.58178 19.866 6.25278 20.298 7.00178C20.731 7.75078 21.055 8.53178 21.276 9.32778C20.7827 9.57868 20.3684 9.96115 20.079 10.4329C19.7895 10.9046 19.6362 11.4472 19.636 12.0007C19.6358 12.5541 19.7887 13.0968 20.0778 13.5688C20.3669 14.0407 20.7809 14.4235 21.274 14.6748C20.822 16.3093 19.9613 17.8018 18.773 19.0118C18.3089 18.7101 17.7704 18.5426 17.217 18.528C16.6637 18.5134 16.117 18.6521 15.6377 18.9289C15.1583 19.2057 14.7648 19.6098 14.5009 20.0963C14.2369 20.5829 14.1127 21.133 14.142 21.6858C12.4999 22.1102 10.7768 22.1095 9.135 21.6838C9.16405 21.131 9.0396 20.581 8.77542 20.0946C8.51124 19.6081 8.11764 19.2043 7.63817 18.9277C7.1587 18.6511 6.61205 18.5126 6.05873 18.5274C5.5054 18.5423 4.96696 18.7099 4.503 19.0118C3.91199 18.4087 3.39959 17.7334 2.978 17.0018ZM8.638 17.1978C9.70363 17.8124 10.5048 18.7988 10.888 19.9678C11.387 20.0148 11.888 20.0158 12.387 19.9688C12.7704 18.7996 13.572 17.8132 14.638 17.1988C15.7032 16.5825 16.9585 16.3813 18.163 16.6338C18.453 16.2258 18.703 15.7908 18.911 15.3358C18.0904 14.4192 17.6371 13.232 17.638 12.0018C17.638 10.7418 18.108 9.56478 18.911 8.66778C18.7015 8.21292 18.4505 7.77841 18.161 7.36978C16.9573 7.62209 15.7028 7.42125 14.638 6.80578C13.5724 6.19115 12.7712 5.20476 12.388 4.03578C11.889 3.98878 11.388 3.98778 10.889 4.03478C10.5056 5.20392 9.704 6.19034 8.638 6.80478C7.57278 7.42109 6.31748 7.6223 5.113 7.36978C4.82357 7.77806 4.57313 8.21264 4.365 8.66778C5.18557 9.58434 5.63888 10.7716 5.638 12.0018C5.638 13.2618 5.168 14.4388 4.365 15.3358C4.57447 15.7906 4.82554 16.2251 5.115 16.6338C6.31872 16.3815 7.57321 16.5823 8.638 17.1978ZM11.638 15.0018C10.8424 15.0018 10.0793 14.6857 9.51668 14.1231C8.95407 13.5605 8.638 12.7974 8.638 12.0018C8.638 11.2061 8.95407 10.4431 9.51668 9.88046C10.0793 9.31785 10.8424 9.00178 11.638 9.00178C12.4337 9.00178 13.1967 9.31785 13.7593 9.88046C14.3219 10.4431 14.638 11.2061 14.638 12.0018C14.638 12.7974 14.3219 13.5605 13.7593 14.1231C13.1967 14.6857 12.4337 15.0018 11.638 15.0018ZM11.638 13.0018C11.9032 13.0018 12.1576 12.8964 12.3451 12.7089C12.5326 12.5213 12.638 12.267 12.638 12.0018C12.638 11.7366 12.5326 11.4822 12.3451 11.2947C12.1576 11.1071 11.9032 11.0018 11.638 11.0018C11.3728 11.0018 11.1184 11.1071 10.9309 11.2947C10.7434 11.4822 10.638 11.7366 10.638 12.0018C10.638 12.267 10.7434 12.5213 10.9309 12.7089C11.1184 12.8964 11.3728 13.0018 11.638 13.0018Z" fill="white"/>
</svg>
