<svg width="12" height="13" viewBox="0 0 12 13" fill="none" xmlns="http://www.w3.org/2000/svg">
<path d="M9.50021 7.52179C9.15556 7.52417 8.8157 7.60619 8.50505 7.76195C8.19439 7.91772 7.92067 8.14336 7.70354 8.42266L4.72854 6.99222C4.86842 6.54529 4.86842 6.06351 4.72854 5.61657L7.70354 4.18614C8.05449 4.62803 8.54374 4.92636 9.08496 5.02847C9.62619 5.13059 10.1846 5.02993 10.6616 4.74425C11.1386 4.45858 11.5036 4.00625 11.6921 3.46711C11.8806 2.92797 11.8806 2.33666 11.692 1.79756C11.5034 1.25845 11.1383 0.806196 10.6612 0.520612C10.1842 0.235027 9.62575 0.134471 9.08455 0.236689C8.54334 0.338907 8.05414 0.63733 7.70327 1.07929C7.35241 1.52125 7.16243 2.07833 7.16688 2.65222C7.16863 2.79723 7.18229 2.94182 7.20771 3.0844L4.12771 4.56353C3.79934 4.22849 3.38352 4.00202 2.93235 3.91248C2.48117 3.82295 2.01471 3.87434 1.59141 4.06022C1.1681 4.24609 0.806771 4.55818 0.552693 4.95739C0.298615 5.3566 0.163086 5.82517 0.163086 6.3044C0.163086 6.78362 0.298615 7.25219 0.552693 7.6514C0.806771 8.05061 1.1681 8.3627 1.59141 8.54858C2.01471 8.73445 2.48117 8.78584 2.93235 8.69631C3.38352 8.60678 3.79934 8.38031 4.12771 8.04527L7.20771 9.5244C7.18229 9.66697 7.16863 9.81156 7.16688 9.95657C7.16688 10.4381 7.30372 10.9089 7.56011 11.3093C7.8165 11.7097 8.18092 12.0217 8.60728 12.206C9.03364 12.3903 9.5028 12.4385 9.95542 12.3446C10.408 12.2506 10.8238 12.0187 11.1501 11.6782C11.4764 11.3377 11.6987 10.9039 11.7887 10.4316C11.8787 9.95927 11.8325 9.46972 11.6559 9.02482C11.4793 8.57992 11.1803 8.19966 10.7965 7.93212C10.4128 7.66459 9.9617 7.52179 9.50021 7.52179ZM9.50021 1.43483C9.73096 1.43483 9.95652 1.50623 10.1484 1.64C10.3402 1.77377 10.4898 1.9639 10.5781 2.18635C10.6664 2.4088 10.6895 2.65357 10.6445 2.88972C10.5994 3.12587 10.4883 3.34279 10.3252 3.51305C10.162 3.6833 9.95413 3.79925 9.72782 3.84622C9.5015 3.8932 9.26693 3.86909 9.05375 3.77695C8.84057 3.6848 8.65836 3.52877 8.53016 3.32857C8.40197 3.12837 8.33354 2.893 8.33354 2.65222C8.33354 2.32935 8.45646 2.0197 8.67525 1.7914C8.89404 1.56309 9.19079 1.43483 9.50021 1.43483ZM2.50021 7.52179C2.26946 7.52179 2.0439 7.45039 1.85204 7.31662C1.66019 7.18285 1.51065 6.99272 1.42235 6.77027C1.33405 6.54782 1.31094 6.30305 1.35596 6.0669C1.40098 5.83075 1.51209 5.61383 1.67525 5.44357C1.83841 5.27332 2.04629 5.15737 2.2726 5.1104C2.49892 5.06342 2.73349 5.08753 2.94667 5.17967C3.15985 5.27182 3.34206 5.42785 3.47026 5.62805C3.59845 5.82825 3.66688 6.06362 3.66688 6.3044C3.66688 6.62727 3.54396 6.93692 3.32517 7.16522C3.10638 7.39353 2.80963 7.52179 2.50021 7.52179ZM9.50021 11.174C9.26947 11.174 9.0439 11.1026 8.85205 10.9688C8.66019 10.835 8.51065 10.6449 8.42235 10.4224C8.33405 10.2 8.31094 9.95522 8.35596 9.71907C8.40098 9.48292 8.51209 9.266 8.67525 9.09575C8.83841 8.92549 9.04629 8.80955 9.2726 8.76257C9.49892 8.7156 9.73349 8.73971 9.94668 8.83185C10.1599 8.92399 10.3421 9.08003 10.4703 9.28022C10.5985 9.48042 10.6669 9.71579 10.6669 9.95657C10.6669 10.2794 10.544 10.5891 10.3252 10.8174C10.1064 11.0457 9.80963 11.174 9.50021 11.174Z" fill="#275DF3"/>
</svg>
