<svg width="40" height="40" viewBox="0 0 40 40" fill="none" xmlns="http://www.w3.org/2000/svg">
<path d="M21.1782 27.8433L27.8443 21.1771C28.1557 20.8638 28.3304 20.44 28.3304 19.9982C28.3304 19.5565 28.1557 19.1327 27.8443 18.8193L21.1782 12.1533C20.8647 11.8454 20.4423 11.6738 20.003 11.6758C19.5636 11.6778 19.1428 11.8532 18.8321 12.1639C18.5215 12.4746 18.346 12.8954 18.344 13.3347C18.3421 13.7741 18.5137 14.1964 18.8215 14.5099L22.6431 18.3316H13.3332C12.8911 18.3316 12.4672 18.5072 12.1547 18.8197C11.8421 19.1323 11.6665 19.5562 11.6665 19.9983C11.6665 20.4403 11.8421 20.8642 12.1547 21.1768C12.4672 21.4893 12.8911 21.6649 13.3332 21.6649H22.6431L18.8214 25.4866C18.5121 25.7998 18.3393 26.2226 18.3407 26.6628C18.3421 27.1029 18.5176 27.5247 18.8288 27.8359C19.1401 28.1472 19.5618 28.3226 20.002 28.324C20.4422 28.3254 20.865 28.1525 21.1782 27.8433Z" fill="#275DF3"/>
<path d="M36.6668 19.9987C36.6668 16.7024 35.6894 13.48 33.858 10.7392C32.0266 7.99838 29.4237 5.86217 26.3782 4.60071C23.3328 3.33925 19.9817 3.0092 16.7487 3.65228C13.5156 4.29537 10.5459 5.88272 8.21506 8.21359C5.88418 10.5445 4.29684 13.5142 3.65375 16.7472C3.01066 19.9802 3.34072 23.3313 4.60218 26.3768C5.86364 29.4222 7.99985 32.0252 10.7407 33.8565C13.4815 35.6879 16.7038 36.6654 20.0002 36.6654C24.4189 36.6605 28.6553 34.9029 31.7799 31.7784C34.9044 28.6538 36.6619 24.4175 36.6668 19.9987ZM18.8218 27.8437C18.667 27.689 18.5442 27.5053 18.4605 27.3031C18.3767 27.1009 18.3336 26.8842 18.3336 26.6653C18.3336 26.4465 18.3767 26.2297 18.4605 26.0276C18.5442 25.8254 18.667 25.6417 18.8218 25.4869L22.6434 21.6654H13.3335C12.8915 21.6654 12.4676 21.4898 12.155 21.1772C11.8424 20.8647 11.6668 20.4407 11.6668 19.9987C11.6668 19.5567 11.8424 19.1328 12.155 18.8202C12.4676 18.5076 12.8915 18.332 13.3335 18.332H22.6434L18.8218 14.5104C18.514 14.1969 18.3424 13.7745 18.3444 13.3352C18.3464 12.8958 18.5218 12.475 18.8325 12.1643C19.1431 11.8537 19.5639 11.6782 20.0033 11.6762C20.4427 11.6743 20.865 11.8459 21.1785 12.1537L27.8447 18.8199C28.156 19.1332 28.3308 19.557 28.3308 19.9988C28.3308 20.4405 28.156 20.8643 27.8447 21.1777L21.1785 27.8437C21.0238 27.9985 20.8401 28.1213 20.6379 28.2051C20.4357 28.2888 20.219 28.3319 20.0002 28.3319C19.7813 28.3319 19.5646 28.2888 19.3624 28.2051C19.1602 28.1213 18.9766 27.9985 18.8218 27.8437Z" fill="white"/>
</svg>
