<svg width="40" height="40" viewBox="0 0 40 40" fill="none" xmlns="http://www.w3.org/2000/svg">
<path d="M18.8213 27.8452L12.1552 21.1791C11.8438 20.8657 11.6691 20.4419 11.6691 20.0002C11.6691 19.5584 11.8438 19.1346 12.1552 18.8213L18.8213 12.1552C19.1348 11.8474 19.5572 11.6758 19.9965 11.6778C20.4359 11.6797 20.8567 11.8552 21.1674 12.1658C21.4781 12.4765 21.6535 12.8973 21.6555 13.3367C21.6575 13.776 21.4859 14.1984 21.178 14.5119L17.3564 18.3335H26.6663C27.1084 18.3335 27.5323 18.5091 27.8449 18.8217C28.1574 19.1343 28.333 19.5582 28.333 20.0002C28.333 20.4422 28.1574 20.8662 27.8449 21.1787C27.5323 21.4913 27.1084 21.6669 26.6663 21.6669H17.3564L21.1781 25.4885C21.4874 25.8017 21.6602 26.2246 21.6588 26.6647C21.6574 27.1049 21.4819 27.5266 21.1707 27.8379C20.8594 28.1491 20.4377 28.3246 19.9975 28.3259C19.5574 28.3273 19.1345 28.1545 18.8213 27.8452Z" fill="#275DF3"/>
<path d="M3.33365 20.0007C3.33365 16.7043 4.31114 13.482 6.14249 10.7412C7.97385 8.00034 10.5768 5.86413 13.6223 4.60267C16.6677 3.34121 20.0188 3.01115 23.2518 3.65424C26.4848 4.29732 29.4546 5.88467 31.7854 8.21555C34.1163 10.5464 35.7037 13.5161 36.3467 16.7492C36.9898 19.9822 36.6598 23.3333 35.3983 26.3787C34.1368 29.4242 32.0006 32.0271 29.2598 33.8585C26.519 35.6898 23.2967 36.6673 20.0003 36.6673C15.5816 36.6624 11.3452 34.9049 8.22063 31.7803C5.09609 28.6558 3.33857 24.4194 3.33365 20.0007V20.0007ZM21.1787 27.8457C21.3335 27.6909 21.4562 27.5072 21.54 27.305C21.6238 27.1029 21.6669 26.8861 21.6669 26.6673C21.6669 26.4484 21.6238 26.2317 21.54 26.0295C21.4562 25.8273 21.3335 25.6436 21.1787 25.4889L17.3571 21.6673H26.667C27.109 21.6673 27.5329 21.4917 27.8455 21.1792C28.1581 20.8666 28.3337 20.4427 28.3337 20.0007C28.3337 19.5586 28.1581 19.1347 27.8455 18.8221C27.5329 18.5096 27.109 18.334 26.667 18.334H17.3571L21.1787 14.5123C21.4865 14.1988 21.6581 13.7765 21.6561 13.3371C21.6541 12.8978 21.4787 12.477 21.168 12.1663C20.8573 11.8556 20.4366 11.6802 19.9972 11.6782C19.5578 11.6762 19.1355 11.8478 18.822 12.1557L12.1558 18.8218C11.8445 19.1352 11.6697 19.559 11.6697 20.0007C11.6697 20.4424 11.8445 20.8663 12.1558 21.1796L18.822 27.8457C18.9767 28.0004 19.1604 28.1232 19.3626 28.207C19.5648 28.2908 19.7815 28.3339 20.0003 28.3339C20.2192 28.3339 20.4359 28.2908 20.6381 28.207C20.8402 28.1232 21.0239 28.0004 21.1787 27.8457Z" fill="white"/>
</svg>
