<svg width="16" height="17" viewBox="0 0 16 17" fill="none" xmlns="http://www.w3.org/2000/svg">
<path d="M6.66667 12.4987C6.84348 12.4987 7.01305 12.4285 7.13807 12.3034C7.2631 12.1784 7.33333 12.0088 7.33333 11.832V7.83203C7.33333 7.65522 7.2631 7.48565 7.13807 7.36063C7.01305 7.2356 6.84348 7.16536 6.66667 7.16536C6.48986 7.16536 6.32029 7.2356 6.19526 7.36063C6.07024 7.48565 6 7.65522 6 7.83203V11.832C6 12.0088 6.07024 12.1784 6.19526 12.3034C6.32029 12.4285 6.48986 12.4987 6.66667 12.4987ZM13.3333 4.4987H10.6667V3.83203C10.6667 3.3016 10.456 2.79289 10.0809 2.41782C9.70581 2.04274 9.1971 1.83203 8.66667 1.83203H7.33333C6.8029 1.83203 6.29419 2.04274 5.91912 2.41782C5.54405 2.79289 5.33333 3.3016 5.33333 3.83203V4.4987H2.66667C2.48986 4.4987 2.32029 4.56894 2.19526 4.69396C2.07024 4.81898 2 4.98855 2 5.16536C2 5.34218 2.07024 5.51174 2.19526 5.63677C2.32029 5.76179 2.48986 5.83203 2.66667 5.83203H3.33333V13.1654C3.33333 13.6958 3.54405 14.2045 3.91912 14.5796C4.29419 14.9547 4.8029 15.1654 5.33333 15.1654H10.6667C11.1971 15.1654 11.7058 14.9547 12.0809 14.5796C12.456 14.2045 12.6667 13.6958 12.6667 13.1654V5.83203H13.3333C13.5101 5.83203 13.6797 5.76179 13.8047 5.63677C13.9298 5.51174 14 5.34218 14 5.16536C14 4.98855 13.9298 4.81898 13.8047 4.69396C13.6797 4.56894 13.5101 4.4987 13.3333 4.4987ZM6.66667 3.83203C6.66667 3.65522 6.7369 3.48565 6.86193 3.36063C6.98695 3.2356 7.15652 3.16536 7.33333 3.16536H8.66667C8.84348 3.16536 9.01305 3.2356 9.13807 3.36063C9.2631 3.48565 9.33333 3.65522 9.33333 3.83203V4.4987H6.66667V3.83203ZM11.3333 13.1654C11.3333 13.3422 11.2631 13.5117 11.1381 13.6368C11.013 13.7618 10.8435 13.832 10.6667 13.832H5.33333C5.15652 13.832 4.98695 13.7618 4.86193 13.6368C4.7369 13.5117 4.66667 13.3422 4.66667 13.1654V5.83203H11.3333V13.1654ZM9.33333 12.4987C9.51014 12.4987 9.67971 12.4285 9.80474 12.3034C9.92976 12.1784 10 12.0088 10 11.832V7.83203C10 7.65522 9.92976 7.48565 9.80474 7.36063C9.67971 7.2356 9.51014 7.16536 9.33333 7.16536C9.15652 7.16536 8.98695 7.2356 8.86193 7.36063C8.73691 7.48565 8.66667 7.65522 8.66667 7.83203V11.832C8.66667 12.0088 8.73691 12.1784 8.86193 12.3034C8.98695 12.4285 9.15652 12.4987 9.33333 12.4987Z" fill="#24272E"/>
</svg>
