<svg width="23" height="24" viewBox="0 0 23 24" fill="none" xmlns="http://www.w3.org/2000/svg">
<g opacity="0.5">
<path d="M17.6525 8.13347C17.067 6.74425 16.0564 5.59159 14.7757 4.8521C13.4949 4.11262 12.0147 3.82711 10.5618 4.03933C9.10884 4.25155 7.76339 4.94979 6.73158 6.02705C5.69977 7.10431 5.03852 8.50117 4.84917 10.0036C3.93548 10.2295 3.13396 10.794 2.59683 11.5899C2.0597 12.3858 1.82437 13.3576 1.93551 14.3209C2.04666 15.2841 2.49655 16.1717 3.19975 16.815C3.90295 17.4583 4.81048 17.8126 5.75 17.8105C6.00417 17.8105 6.24792 17.7063 6.42765 17.5207C6.60737 17.3351 6.70833 17.0835 6.70833 16.821C6.70833 16.5586 6.60737 16.3069 6.42765 16.1214C6.24792 15.9358 6.00417 15.8316 5.75 15.8316C5.24167 15.8316 4.75416 15.6231 4.39471 15.252C4.03527 14.8808 3.83334 14.3775 3.83334 13.8526C3.83334 13.3278 4.03527 12.8244 4.39471 12.4533C4.75416 12.0822 5.24167 11.8737 5.75 11.8737C6.00417 11.8737 6.24792 11.7694 6.42765 11.5839C6.60737 11.3983 6.70833 11.1466 6.70833 10.8842C6.71078 9.71393 7.11494 8.58245 7.84901 7.69076C8.58308 6.79908 9.59952 6.20494 10.7178 6.01389C11.836 5.82285 12.9836 6.04727 13.9568 6.64729C14.9299 7.24731 15.6655 8.18407 16.0329 9.29115C16.0877 9.46118 16.1862 9.61266 16.3178 9.72942C16.4495 9.84618 16.6094 9.92384 16.7804 9.9541C17.4187 10.0786 17.9974 10.4227 18.4221 10.9302C18.8468 11.4378 19.0925 12.0789 19.1191 12.749C19.1458 13.4192 18.9519 14.0789 18.569 14.6207C18.186 15.1625 17.6367 15.5544 17.0104 15.7326C16.7639 15.7982 16.5527 15.9623 16.4233 16.1887C16.2939 16.415 16.2569 16.6852 16.3204 16.9398C16.384 17.1943 16.5428 17.4124 16.7621 17.546C16.9814 17.6796 17.243 17.7178 17.4896 17.6522C18.4981 17.377 19.3921 16.7696 20.0359 15.9221C20.6796 15.0746 21.0379 14.0333 21.0563 12.9564C21.0748 11.8795 20.7523 10.8259 20.138 9.95541C19.5237 9.08494 18.651 8.44525 17.6525 8.13347V8.13347ZM12.1804 10.1817C12.0893 10.0916 11.9818 10.021 11.8642 9.97389C11.6309 9.87492 11.3692 9.87492 11.1358 9.97389C11.0182 10.021 10.9107 10.0916 10.8196 10.1817L7.94458 13.1501C7.76413 13.3364 7.66275 13.5891 7.66275 13.8526C7.66275 14.1161 7.76413 14.3688 7.94458 14.5552C8.12504 14.7415 8.3698 14.8461 8.625 14.8461C8.88021 14.8461 9.12496 14.7415 9.30542 14.5552L10.5417 13.2688V18.8C10.5417 19.0624 10.6426 19.3141 10.8224 19.4997C11.0021 19.6852 11.2458 19.7895 11.5 19.7895C11.7542 19.7895 11.9979 19.6852 12.1776 19.4997C12.3574 19.3141 12.4583 19.0624 12.4583 18.8V13.2688L13.6946 14.5552C13.7837 14.6479 13.8897 14.7215 14.0064 14.7717C14.1232 14.822 14.2485 14.8478 14.375 14.8478C14.5015 14.8478 14.6268 14.822 14.7436 14.7717C14.8603 14.7215 14.9663 14.6479 15.0554 14.5552C15.1452 14.4632 15.2165 14.3537 15.2652 14.2332C15.3138 14.1126 15.3389 13.9832 15.3389 13.8526C15.3389 13.722 15.3138 13.5927 15.2652 13.4721C15.2165 13.3515 15.1452 13.2421 15.0554 13.1501L12.1804 10.1817Z" fill="#275DF3"/>
</g>
</svg>
