<svg width="23" height="24" viewBox="0 0 23 24" fill="none" xmlns="http://www.w3.org/2000/svg">
<path d="M17.6521 8.26009C17.0666 6.87087 16.056 5.7182 14.7753 4.97872C13.4945 4.23924 12.0143 3.95373 10.5614 4.16595C9.10846 4.37817 7.76301 5.07641 6.7312 6.15367C5.69939 7.23093 5.03814 8.62779 4.84879 10.1302C3.9351 10.3561 3.13358 10.9206 2.59645 11.7165C2.05932 12.5124 1.82398 13.4842 1.93513 14.4475C2.04628 15.4107 2.49617 16.2983 3.19937 16.9416C3.90257 17.5849 4.8101 17.9392 5.74962 17.9371C6.00379 17.9371 6.24754 17.8329 6.42726 17.6473C6.60699 17.4618 6.70795 17.2101 6.70795 16.9477C6.70795 16.6852 6.60699 16.4336 6.42726 16.248C6.24754 16.0624 6.00379 15.9582 5.74962 15.9582C5.24129 15.9582 4.75378 15.7497 4.39433 15.3786C4.03489 15.0074 3.83295 14.5041 3.83295 13.9792C3.83295 13.4544 4.03489 12.951 4.39433 12.5799C4.75378 12.2088 5.24129 12.0003 5.74962 12.0003C6.00379 12.0003 6.24754 11.896 6.42726 11.7105C6.60699 11.5249 6.70795 11.2732 6.70795 11.0108C6.7104 9.84055 7.11456 8.70906 7.84863 7.81738C8.5827 6.9257 9.59914 6.33155 10.7174 6.14051C11.8356 5.94946 12.9832 6.17389 13.9564 6.77391C14.9295 7.37392 15.6651 8.31069 16.0325 9.41777C16.0873 9.5878 16.1858 9.73928 16.3174 9.85604C16.4491 9.9728 16.609 10.0505 16.78 10.0807C17.4183 10.2053 17.997 10.5493 18.4217 11.0569C18.8464 11.5644 19.0921 12.2055 19.1188 12.8756C19.1454 13.5458 18.9515 14.2055 18.5686 14.7473C18.1856 15.2891 17.6363 15.681 17.01 15.8592C16.7635 15.9248 16.5523 16.0889 16.4229 16.3153C16.2935 16.5417 16.2565 16.8118 16.32 17.0664C16.3836 17.321 16.5425 17.539 16.7617 17.6726C16.981 17.8062 17.2427 17.8444 17.4892 17.7788C18.4977 17.5037 19.3918 16.8962 20.0355 16.0487C20.6792 15.2012 21.0375 14.1599 21.056 13.083C21.0744 12.0062 20.752 10.9525 20.1376 10.082C19.5233 9.21156 18.6506 8.57187 17.6521 8.26009ZM12.18 10.3083C12.0889 10.2182 11.9814 10.1476 11.8638 10.1005C11.6305 10.0015 11.3688 10.0015 11.1355 10.1005C11.0178 10.1476 10.9103 10.2182 10.8192 10.3083L7.9442 13.2767C7.76375 13.463 7.66237 13.7157 7.66237 13.9792C7.66237 14.2427 7.76375 14.4954 7.9442 14.6818C8.12466 14.8681 8.36941 14.9728 8.62462 14.9728C8.87983 14.9728 9.12458 14.8681 9.30504 14.6818L10.5413 13.3955V18.9266C10.5413 19.189 10.6423 19.4407 10.822 19.6263C11.0017 19.8118 11.2455 19.9161 11.4996 19.9161C11.7538 19.9161 11.9975 19.8118 12.1773 19.6263C12.357 19.4407 12.458 19.189 12.458 18.9266V13.3955L13.6942 14.6818C13.7833 14.7745 13.8893 14.8481 14.0061 14.8984C14.1228 14.9486 14.2481 14.9745 14.3746 14.9745C14.5011 14.9745 14.6264 14.9486 14.7432 14.8984C14.86 14.8481 14.9659 14.7745 15.055 14.6818C15.1449 14.5898 15.2162 14.4803 15.2648 14.3598C15.3135 14.2392 15.3385 14.1099 15.3385 13.9792C15.3385 13.8486 15.3135 13.7193 15.2648 13.5987C15.2162 13.4781 15.1449 13.3687 15.055 13.2767L12.18 10.3083Z" fill="#275DF3"/>
</svg>
