<svg width="15" height="17" viewBox="0 0 15 17" fill="none" xmlns="http://www.w3.org/2000/svg">
<path d="M14.0645 4.47667C14.0645 4.47667 14.0645 4.47667 14.0645 4.41L14.0145 4.285C13.9971 4.25848 13.9776 4.2334 13.9561 4.21C13.9338 4.17472 13.9088 4.14128 13.8811 4.11L13.8061 4.05167L13.6728 3.985L7.42281 0.126669C7.29037 0.0438915 7.13733 0 6.98114 0C6.82496 0 6.67192 0.0438915 6.53948 0.126669L0.339476 3.985L0.264476 4.05167L0.189476 4.11C0.161852 4.14128 0.136773 4.17472 0.114476 4.21C0.0930527 4.2334 0.0735454 4.25848 0.056143 4.285L0.00614288 4.41C0.00614288 4.41 0.00614288 4.41 0.00614288 4.47667C-0.00204763 4.54866 -0.00204763 4.62135 0.00614288 4.69334V11.9767C0.00585948 12.1183 0.041673 12.2576 0.110202 12.3816C0.178732 12.5055 0.277716 12.6099 0.39781 12.685L6.64781 16.5433C6.68628 16.5671 6.72857 16.584 6.77281 16.5933C6.77281 16.5933 6.81448 16.5933 6.83948 16.5933C6.98046 16.6381 7.13183 16.6381 7.27281 16.5933C7.27281 16.5933 7.31448 16.5933 7.33948 16.5933C7.38372 16.584 7.42601 16.5671 7.46448 16.5433V16.5433L13.6728 12.685C13.7929 12.6099 13.8919 12.5055 13.9604 12.3816C14.0289 12.2576 14.0648 12.1183 14.0645 11.9767V4.69334C14.0727 4.62135 14.0727 4.54866 14.0645 4.47667V4.47667ZM6.17281 14.3433L1.58948 11.51V6.19334L6.17281 9.01834V14.3433ZM7.00614 7.57667L2.33948 4.69334L7.00614 1.81834L11.6728 4.69334L7.00614 7.57667ZM12.4228 11.51L7.83948 14.3433V9.01834L12.4228 6.19334V11.51Z" fill="url(#paint0_linear_1714_11470)"/>
<defs>
<linearGradient id="paint0_linear_1714_11470" x1="-5.32495e-10" y1="9.28158" x2="13.3935" y2="9.37585" gradientUnits="userSpaceOnUse">
<stop stop-color="#EA3323"/>
<stop offset="1" stop-color="#275DF3"/>
</linearGradient>
</defs>
</svg>
