<svg width="226" height="158" viewBox="0 0 226 158" fill="none" xmlns="http://www.w3.org/2000/svg">
<path d="M182.971 0H47.5426C41.3096 0 36.2568 5.05279 36.2568 11.2857V146.714C36.2568 152.947 41.3096 158 47.5426 158H182.971C189.204 158 194.257 152.947 194.257 146.714V11.2857C194.257 5.05279 189.204 0 182.971 0Z" fill="url(#paint0_linear_3172_7196)"/>
<g filter="url(#filter0_d_3172_7196)">
<path d="M61.0857 60.9429H213.443C214.939 60.9429 216.375 61.5374 217.433 62.5956C218.491 63.6539 219.086 65.0891 219.086 66.5857V94.8C219.086 96.2966 218.491 97.7319 217.433 98.7901C216.375 99.8484 214.939 100.443 213.443 100.443H61.0857C59.5891 100.443 58.1539 99.8484 57.0956 98.7901C56.0374 97.7319 55.4429 96.2966 55.4429 94.8V66.5857C55.4429 65.0891 56.0374 63.6539 57.0956 62.5956C58.1539 61.5374 59.5891 60.9429 61.0857 60.9429V60.9429Z" fill="white"/>
</g>
<path d="M144.6 69.9712H115.257C113.387 69.9712 111.871 71.487 111.871 73.3569C111.871 75.2268 113.387 76.7426 115.257 76.7426H144.6C146.47 76.7426 147.985 75.2268 147.985 73.3569C147.985 71.487 146.47 69.9712 144.6 69.9712Z" fill="#CBDEFF"/>
<path d="M164.914 84.6426H115.257C113.387 84.6426 111.871 86.1584 111.871 88.0283C111.871 89.8982 113.387 91.414 115.257 91.414H164.914C166.784 91.414 168.3 89.8982 168.3 88.0283C168.3 86.1584 166.784 84.6426 164.914 84.6426Z" fill="#DEE9FC"/>
<path d="M89.864 91.4141C95.7853 91.4141 100.585 86.6139 100.585 80.6926C100.585 74.7713 95.7853 69.9712 89.864 69.9712C83.9427 69.9712 79.1426 74.7713 79.1426 80.6926C79.1426 86.6139 83.9427 91.4141 89.864 91.4141Z" fill="#275DF3"/>
<path d="M88.4886 82.8711H89.2726L87.4526 78.0481H86.6476L84.8276 82.8711H85.6186L86.0806 81.6671H88.0266L88.4886 82.8711ZM87.0536 78.9791L87.7746 81.0021H86.3326L87.0536 78.9791ZM91.8729 78.7341C92.3979 78.7341 92.6149 79.1751 92.6149 79.5811C92.6149 79.9941 92.3769 80.4211 91.8449 80.4211H90.6969V78.7341H91.8729ZM89.9479 82.8711H90.6969V81.1001H91.8869C92.9229 81.1001 93.3569 80.3441 93.3569 79.5811C93.3569 78.8181 92.9229 78.0481 91.8869 78.0481H89.9479V82.8711Z" fill="white"/>
<g filter="url(#filter1_d_3172_7196)">
<path d="M12.5569 109.471H164.914C166.411 109.471 167.846 110.066 168.904 111.124C169.962 112.182 170.557 113.617 170.557 115.114V143.328C170.557 144.825 169.962 146.26 168.904 147.318C167.846 148.377 166.411 148.971 164.914 148.971H12.5569C11.0603 148.971 9.62506 148.377 8.56682 147.318C7.50858 146.26 6.91406 144.825 6.91406 143.328V115.114C6.91406 113.617 7.50858 112.182 8.56682 111.124C9.62506 110.066 11.0603 109.471 12.5569 109.471V109.471Z" fill="white"/>
</g>
<path d="M96.0713 118.5H66.7285C64.8586 118.5 63.3428 120.015 63.3428 121.885C63.3428 123.755 64.8586 125.271 66.7285 125.271H96.0713C97.9412 125.271 99.4571 123.755 99.4571 121.885C99.4571 120.015 97.9412 118.5 96.0713 118.5Z" fill="#CBDEFF"/>
<path d="M116.386 133.171H66.7285C64.8586 133.171 63.3428 134.687 63.3428 136.557C63.3428 138.426 64.8586 139.942 66.7285 139.942H116.386C118.256 139.942 119.771 138.426 119.771 136.557C119.771 134.687 118.256 133.171 116.386 133.171Z" fill="#DEE9FC"/>
<path d="M26.6638 139.942C32.5851 139.942 37.3852 135.142 37.3852 129.221C37.3852 123.3 32.5851 118.5 26.6638 118.5C20.7425 118.5 15.9424 123.3 15.9424 129.221C15.9424 135.142 20.7425 139.942 26.6638 139.942Z" fill="#275DF3"/>
<path d="M22.6374 131.902C23.7294 131.902 24.1424 131.181 24.1424 130.327V125.448H23.4214V130.327C23.4214 130.803 23.2044 131.209 22.6374 131.209C22.5814 131.209 22.2664 131.195 22.1474 131.153L22.0774 131.825C22.2594 131.867 22.5044 131.902 22.6374 131.902ZM26.8575 130.341C27.8305 130.341 28.4885 129.704 28.4885 128.899C28.4885 128.192 27.9775 127.751 27.1655 127.548L26.5565 127.394C25.9475 127.24 25.8985 126.918 25.8985 126.764C25.8985 126.323 26.3045 126.05 26.7595 126.05C27.2565 126.05 27.6135 126.358 27.6135 126.813H28.3275C28.3275 125.938 27.6485 125.392 26.7805 125.392C25.9265 125.392 25.1775 125.931 25.1775 126.778C25.1775 127.177 25.3455 127.786 26.3745 128.045L26.9905 128.199C27.3825 128.304 27.7675 128.507 27.7675 128.934C27.7675 129.333 27.4315 129.683 26.8575 129.683C26.2555 129.683 25.8705 129.284 25.8565 128.871H25.1425C25.1425 129.648 25.8285 130.341 26.8575 130.341Z" fill="white"/>
<g filter="url(#filter2_d_3172_7196)">
<path d="M164.914 12.4141H12.5569C9.44046 12.4141 6.91406 14.9405 6.91406 18.0569V46.2712C6.91406 49.3877 9.44046 51.9141 12.5569 51.9141H164.914C168.031 51.9141 170.557 49.3877 170.557 46.2712V18.0569C170.557 14.9405 168.031 12.4141 164.914 12.4141Z" fill="white"/>
</g>
<path d="M93.814 21.4424H64.4712C62.6013 21.4424 61.0854 22.9582 61.0854 24.8281C61.0854 26.698 62.6013 28.2138 64.4712 28.2138H93.814C95.6839 28.2138 97.1997 26.698 97.1997 24.8281C97.1997 22.9582 95.6839 21.4424 93.814 21.4424Z" fill="#CBDEFF"/>
<path d="M114.128 36.1138H64.4712C62.6013 36.1138 61.0854 37.6296 61.0854 39.4995C61.0854 41.3694 62.6013 42.8852 64.4712 42.8852H114.128C115.998 42.8852 117.514 41.3694 117.514 39.4995C117.514 37.6296 115.998 36.1138 114.128 36.1138Z" fill="#DEE9FC"/>
<path d="M41.3357 42.8852C47.257 42.8852 52.0571 38.0851 52.0571 32.1638C52.0571 26.2425 47.257 21.4424 41.3357 21.4424C35.4144 21.4424 30.6143 26.2425 30.6143 32.1638C30.6143 38.0851 35.4144 42.8852 41.3357 42.8852Z" fill="#275DF3"/>
<path d="M36.5959 32.8139C36.5959 33.5979 37.2959 34.2839 38.2969 34.2839C39.2139 34.2839 39.8649 33.7449 39.9419 32.9889C40.0189 32.2889 39.6199 31.7499 38.6399 31.4909L38.0239 31.3299C37.4499 31.1829 37.3799 30.8889 37.3799 30.6999C37.3799 30.3079 37.7649 30.0349 38.2129 30.0349C38.7169 30.0349 39.0529 30.3149 39.0529 30.7629H39.7949C39.7949 29.8809 39.1229 29.3349 38.2269 29.3349C37.3799 29.3349 36.6379 29.8879 36.6379 30.7139C36.6379 31.1409 36.7989 31.7289 37.8349 32.0089L38.4439 32.1629C38.8919 32.2679 39.2349 32.4989 39.2069 32.9469C39.1579 33.3039 38.8639 33.6049 38.2969 33.6049C37.7159 33.6049 37.3589 33.2059 37.3379 32.8139H36.5959ZM41.6374 30.0839H42.7714C43.7164 30.0839 44.1994 30.8609 44.1994 31.8129C44.1994 32.7719 43.7164 33.5279 42.7714 33.5279H41.6374V30.0839ZM42.7714 34.2139C44.1434 34.2139 44.9414 33.1849 44.9414 31.8129C44.9414 30.4409 44.1434 29.3909 42.7714 29.3909H40.8954V34.2139H42.7714Z" fill="white"/>
<defs>
<filter id="filter0_d_3172_7196" x="49.4429" y="57.9429" width="175.643" height="51.5" filterUnits="userSpaceOnUse" color-interpolation-filters="sRGB">
<feFlood flood-opacity="0" result="BackgroundImageFix"/>
<feColorMatrix in="SourceAlpha" type="matrix" values="0 0 0 0 0 0 0 0 0 0 0 0 0 0 0 0 0 0 127 0" result="hardAlpha"/>
<feOffset dy="3"/>
<feGaussianBlur stdDeviation="3"/>
<feColorMatrix type="matrix" values="0 0 0 0 0 0 0 0 0 0 0 0 0 0 0 0 0 0 0.161 0"/>
<feBlend mode="normal" in2="BackgroundImageFix" result="effect1_dropShadow_3172_7196"/>
<feBlend mode="normal" in="SourceGraphic" in2="effect1_dropShadow_3172_7196" result="shape"/>
</filter>
<filter id="filter1_d_3172_7196" x="0.914062" y="106.471" width="175.643" height="51.5" filterUnits="userSpaceOnUse" color-interpolation-filters="sRGB">
<feFlood flood-opacity="0" result="BackgroundImageFix"/>
<feColorMatrix in="SourceAlpha" type="matrix" values="0 0 0 0 0 0 0 0 0 0 0 0 0 0 0 0 0 0 127 0" result="hardAlpha"/>
<feOffset dy="3"/>
<feGaussianBlur stdDeviation="3"/>
<feColorMatrix type="matrix" values="0 0 0 0 0 0 0 0 0 0 0 0 0 0 0 0 0 0 0.161 0"/>
<feBlend mode="normal" in2="BackgroundImageFix" result="effect1_dropShadow_3172_7196"/>
<feBlend mode="normal" in="SourceGraphic" in2="effect1_dropShadow_3172_7196" result="shape"/>
</filter>
<filter id="filter2_d_3172_7196" x="0.914062" y="9.41406" width="175.643" height="51.5" filterUnits="userSpaceOnUse" color-interpolation-filters="sRGB">
<feFlood flood-opacity="0" result="BackgroundImageFix"/>
<feColorMatrix in="SourceAlpha" type="matrix" values="0 0 0 0 0 0 0 0 0 0 0 0 0 0 0 0 0 0 127 0" result="hardAlpha"/>
<feOffset dy="3"/>
<feGaussianBlur stdDeviation="3"/>
<feColorMatrix type="matrix" values="0 0 0 0 0 0 0 0 0 0 0 0 0 0 0 0 0 0 0.161 0"/>
<feBlend mode="normal" in2="BackgroundImageFix" result="effect1_dropShadow_3172_7196"/>
<feBlend mode="normal" in="SourceGraphic" in2="effect1_dropShadow_3172_7196" result="shape"/>
</filter>
<linearGradient id="paint0_linear_3172_7196" x1="115.257" y1="0" x2="115.257" y2="158" gradientUnits="userSpaceOnUse">
<stop stop-color="#E3ECFA"/>
<stop offset="1" stop-color="#DAE7FF"/>
</linearGradient>
</defs>
</svg>
