<svg width="17" height="20" viewBox="0 0 17 20" fill="none" xmlns="http://www.w3.org/2000/svg">
<path d="M16.8774 5.372C16.8774 5.372 16.8774 5.372 16.8774 5.292L16.8174 5.142C16.7965 5.11017 16.7731 5.08008 16.7474 5.052C16.7206 5.00967 16.6905 4.96954 16.6574 4.932L16.5674 4.862L16.4074 4.782L8.90737 0.152002C8.74844 0.0526698 8.56479 0 8.37737 0C8.18995 0 8.0063 0.0526698 7.84737 0.152002L0.407372 4.782L0.317372 4.862L0.227371 4.932C0.194223 4.96954 0.164127 5.00967 0.137372 5.052C0.111663 5.08008 0.0882545 5.11017 0.0673716 5.142L0.00737145 5.292C0.00737145 5.292 0.00737145 5.292 0.00737145 5.372C-0.00245715 5.45839 -0.00245715 5.54561 0.00737145 5.632V14.372C0.00703137 14.5419 0.0500076 14.7092 0.132243 14.8579C0.214478 15.0066 0.333259 15.1319 0.477372 15.222L7.97737 19.852C8.02353 19.8805 8.07428 19.9008 8.12737 19.912C8.12737 19.912 8.17737 19.912 8.20737 19.912C8.37655 19.9657 8.55819 19.9657 8.72737 19.912C8.72737 19.912 8.77737 19.912 8.80737 19.912C8.86046 19.9008 8.91121 19.8805 8.95737 19.852V19.852L16.4074 15.222C16.5515 15.1319 16.6703 15.0066 16.7525 14.8579C16.8347 14.7092 16.8777 14.5419 16.8774 14.372V5.632C16.8872 5.54561 16.8872 5.45839 16.8774 5.372V5.372ZM7.40737 17.212L1.90737 13.812V7.432L7.40737 10.822V17.212ZM8.40737 9.092L2.80737 5.632L8.40737 2.182L14.0074 5.632L8.40737 9.092ZM14.9074 13.812L9.40737 17.212V10.822L14.9074 7.432V13.812Z" fill="#A1A3A6"/>
</svg>
