<svg width="50" height="50" viewBox="0 0 50 50" fill="none" xmlns="http://www.w3.org/2000/svg">
<rect width="50" height="50" rx="8" fill="#E5ECFF"/>
<path d="M25.6766 42.2192C19.817 42.2192 13.9575 42.2192 8.09791 42.2192C7.81168 42.2192 7.52174 42.2192 7.23428 42.1902C5.76733 42.0564 5.1776 41.0906 5.80311 39.7848C6.34597 38.6575 6.93817 37.5591 7.51311 36.4438C10.2274 31.1925 12.9417 25.942 15.6559 20.6924C15.7398 20.532 15.8274 20.3716 15.9249 20.2185C16.6084 19.1478 17.7188 18.9971 18.5935 19.9207C19.2104 20.567 19.7323 21.2928 20.2825 21.9933C23.0791 25.5647 25.8756 29.1376 28.6721 32.7121C29.8936 34.2675 31.4321 34.3519 32.8669 32.9533C33.5788 32.2588 34.2746 31.5462 34.9952 30.8577C36.2943 29.6158 37.7687 29.6906 38.8297 31.1387C40.9592 34.0444 43.0356 36.9888 45.1219 39.9235C45.2849 40.1537 45.4098 40.4076 45.492 40.6759C45.6943 41.3498 45.4081 41.8924 44.7086 42.0721C44.2699 42.1747 43.8197 42.2221 43.3687 42.2131C37.4746 42.2228 31.5772 42.2248 25.6766 42.2192Z" fill="white"/>
<path d="M38.8173 13.4448C38.8158 14.5657 38.4738 15.6609 37.8347 16.5915C37.1955 17.5222 36.2879 18.2464 35.2271 18.6724C34.1662 19.0984 32.9998 19.2069 31.8757 18.9843C30.7517 18.7617 29.7205 18.2179 28.9131 17.4218C28.1057 16.6258 27.5583 15.6134 27.3403 14.513C27.1224 13.4126 27.2437 12.2737 27.6888 11.2407C28.134 10.2077 28.883 9.32719 29.8409 8.71073C30.7987 8.09426 31.9224 7.76963 33.0692 7.77799C34.5965 7.79696 36.0549 8.40164 37.1301 9.46169C38.2054 10.5217 38.8113 11.9522 38.8173 13.4448Z" fill="white"/>
</svg>
