<svg width="32" height="32" viewBox="0 0 32 32" fill="none" xmlns="http://www.w3.org/2000/svg">
<rect width="32" height="32" rx="8" fill="#E5ECFF"/>
<path d="M16.0484 22.6302C13.7046 22.6302 11.3608 22.6302 9.01695 22.6302C8.90245 22.6302 8.78648 22.6302 8.67149 22.6186C8.08472 22.5648 7.84882 22.177 8.09903 21.6526C8.31617 21.1999 8.55305 20.7589 8.78303 20.311C9.86874 18.2023 10.9544 16.0939 12.0402 13.9858C12.0737 13.9214 12.1088 13.857 12.1477 13.7955C12.4211 13.3656 12.8653 13.3051 13.2152 13.6759C13.4619 13.9355 13.6707 14.2269 13.8908 14.5082C15.0094 15.9423 16.128 17.3771 17.2466 18.8125C17.7352 19.4371 18.3506 19.471 18.9246 18.9093C19.2093 18.6305 19.4876 18.3443 19.7758 18.0679C20.2955 17.5692 20.8852 17.5992 21.3097 18.1807C22.1614 19.3475 22.992 20.5299 23.8265 21.7083C23.8918 21.8008 23.9417 21.9027 23.9746 22.0104C24.0555 22.2811 23.941 22.499 23.6612 22.5711C23.4858 22.6123 23.3056 22.6314 23.1253 22.6278C20.7676 22.6316 18.4087 22.6324 16.0484 22.6302Z" fill="white"/>
<path d="M21.3047 11.0755C21.3041 11.5256 21.1673 11.9653 20.9116 12.3391C20.656 12.7128 20.293 13.0036 19.8686 13.1747C19.4443 13.3457 18.9777 13.3893 18.5281 13.2999C18.0784 13.2105 17.666 12.9921 17.343 12.6725C17.0201 12.3528 16.8011 11.9463 16.7139 11.5044C16.6267 11.0625 16.6752 10.6052 16.8533 10.1904C17.0314 9.77556 17.331 9.42197 17.7141 9.17442C18.0973 8.92687 18.5467 8.79651 19.0055 8.79987C19.6164 8.80748 20.1997 9.0503 20.6298 9.47598C21.0599 9.90165 21.3023 10.4761 21.3047 11.0755Z" fill="white"/>
</svg>
